<svg width="216" height="63" viewBox="0 0 216 63" fill="none" xmlns="http://www.w3.org/2000/svg">
<path fill-rule="evenodd" clip-rule="evenodd" d="M0 31.409C0 14.063 14.063 0 31.409 0C48.762 0 62.825 14.063 62.818 31.409C62.818 48.755 48.755 62.818 31.409 62.818C14.063 62.818 0 48.755 0 31.409ZM42.903 4.207C39.263 2.667 35.399 1.89 31.409 1.89C27.426 1.89 23.555 2.667 19.915 4.207C18.172 4.949 16.478 5.866 14.903 6.93C13.342 7.987 11.872 9.198 10.535 10.535C9.198 11.865 7.987 13.342 6.93 14.903C5.866 16.478 4.949 18.165 4.207 19.915C2.667 23.555 1.89 27.419 1.89 31.409C1.89 35.399 2.667 39.263 4.207 42.903C4.949 44.646 5.866 46.34 6.93 47.915C7.987 49.476 9.198 50.946 10.535 52.283C11.865 53.62 13.342 54.831 14.903 55.888C16.478 56.952 18.165 57.869 19.915 58.611C23.555 60.151 27.419 60.928 31.409 60.928C35.399 60.928 39.263 60.151 42.903 58.611C44.646 57.869 46.34 56.952 47.915 55.888C49.476 54.831 50.946 53.62 52.283 52.283C53.62 50.953 54.831 49.476 55.888 47.915C56.952 46.34 57.869 44.653 58.611 42.903C60.151 39.263 60.928 35.399 60.928 31.409C60.928 27.419 60.151 23.555 58.611 19.915C57.869 18.172 56.952 16.478 55.888 14.903C54.831 13.342 53.62 11.872 52.283 10.535C50.953 9.198 49.476 7.987 47.915 6.93C46.34 5.866 44.653 4.949 42.903 4.207Z" fill="#FF6D2D"/>
<path fill-rule="evenodd" clip-rule="evenodd" d="M46.9283 22.8758C47.9223 24.6188 49.0843 26.8588 49.0843 30.0928C49.0843 32.3328 48.3773 34.9858 47.1943 38.7308L44.4923 47.2848L35.0353 19.1448C36.6103 19.0608 38.0313 18.8928 38.0313 18.8928C39.4383 18.7248 39.2773 16.6528 37.8633 16.7368C37.8633 16.7368 33.6213 17.0728 30.8843 17.0728C28.3083 17.0728 23.9893 16.7368 23.9893 16.7368C22.5753 16.6528 22.4073 18.8088 23.8213 18.8928C23.8213 18.8928 25.1583 19.0608 26.5653 19.1448L30.6463 30.3168L24.9203 47.4948L15.3863 19.1378C16.9613 19.0538 18.3823 18.8858 18.3823 18.8858C19.7893 18.7178 19.6213 16.6458 18.2143 16.7298C18.2143 16.7298 13.9723 17.0658 11.2353 17.0658C10.7453 17.0658 10.1643 17.0518 9.54833 17.0308C14.2243 9.92584 22.2673 5.23584 31.4163 5.23584C38.2273 5.23584 44.4363 7.83984 49.0913 12.1098C49.054 12.1075 49.0174 12.1044 48.9809 12.1013C48.9078 12.0951 48.8347 12.0888 48.7553 12.0888C46.1863 12.0888 44.3593 14.3288 44.3593 16.7368C44.3593 18.736 45.4246 20.4523 46.64 22.4103L46.6404 22.411C46.7356 22.5644 46.8317 22.7193 46.9283 22.8758ZM19.9923 54.9708C11.2563 50.7288 5.23633 41.7758 5.23633 31.4158C5.23633 27.6218 6.04833 24.0168 7.50433 20.7618L19.9923 54.9708ZM31.8713 33.7048L24.0173 56.5248C26.3623 57.2178 28.8403 57.5888 31.4093 57.5888C34.4543 57.5888 37.3803 57.0638 40.1033 56.1048C40.0333 55.9928 39.9703 55.8738 39.9143 55.7408L31.8713 33.7048ZM54.5583 21.5528C54.5583 20.5868 54.4953 19.6908 54.3833 18.8578C56.4273 22.5818 57.5893 26.8658 57.5823 31.4158C57.5823 41.0688 52.3533 49.5038 44.5693 54.0398L52.5703 30.9258C54.0613 27.1948 54.5583 24.2058 54.5583 21.5528Z" fill="#FF6D2D"/>
<path d="M80.2349 26.0469H79.1709L75.9859 16.8559L72.8919 26.0469H71.8279L67.0469 11.2769H69.7419L72.4789 20.0689L75.4329 11.2769H76.5669L79.5279 20.0689L82.2509 11.2769H84.9459L80.2349 26.0469Z" fill="#FF6D2D"/>
<path fill-rule="evenodd" clip-rule="evenodd" d="M86.6882 16.5271C85.7502 17.5491 85.2812 18.8721 85.2812 20.4961C85.2812 22.1761 85.7433 23.5131 86.6393 24.5281C87.5353 25.5431 88.7952 26.0471 90.4123 26.0471C91.9943 26.0471 93.2473 25.5431 94.1573 24.5421C95.0673 23.5411 95.5223 22.1901 95.5223 20.4961C95.5223 18.7881 95.0743 17.4441 94.1783 16.4641C93.2823 15.4841 92.0223 14.9941 90.4053 14.9941C88.8653 14.9941 87.6263 15.5051 86.6882 16.5271ZM90.3982 24.0171C88.7112 24.0171 87.8642 22.8411 87.8642 20.4961C87.8642 19.4041 88.0952 18.5501 88.5503 17.9411C89.0052 17.3321 89.6212 17.0241 90.3982 17.0241C92.0852 17.0241 92.9253 18.1791 92.9253 20.4961C92.9253 21.6231 92.7013 22.4911 92.2463 23.1001C91.7912 23.7091 91.1753 24.0171 90.3982 24.0171Z" fill="#FF6D2D"/>
<path d="M103.664 17.5141C103.223 17.2201 102.733 17.0801 102.201 17.0801C101.627 17.0801 101.109 17.3391 100.661 17.8641C100.213 18.3891 99.9889 19.0261 99.9889 19.7821V25.8511H97.5039V15.1971H99.9889V16.1701C100.682 15.3861 101.613 14.9941 102.761 14.9941C103.608 14.9941 104.259 15.1201 104.714 15.3791L103.664 17.5141Z" fill="#FF6D2D"/>
<path fill-rule="evenodd" clip-rule="evenodd" d="M113.057 25.207V25.844H115.549V10.626L113.064 11.221V15.491C112.399 15.162 111.664 14.994 110.852 14.994C109.382 14.994 108.157 15.526 107.177 16.583C106.197 17.64 105.707 19.012 105.707 20.699C105.707 22.386 106.134 23.695 106.988 24.64C107.842 25.585 109.011 26.054 110.495 26.054C111.013 26.054 111.524 25.977 112.014 25.802C112.504 25.627 112.854 25.431 113.057 25.207ZM111.398 17.108C111.972 17.108 112.525 17.318 113.057 17.745H113.064V23.303C112.959 23.45 112.735 23.59 112.385 23.737C112.035 23.884 111.741 23.954 111.503 23.954C109.368 23.954 108.297 22.841 108.297 20.629C108.297 19.495 108.563 18.627 109.102 18.018C109.634 17.409 110.404 17.108 111.398 17.108Z" fill="#FF6D2D"/>
<path fill-rule="evenodd" clip-rule="evenodd" d="M120.772 25.8512V20.4892C121.262 20.5382 121.654 20.5592 121.941 20.5522C125.882 20.5522 127.849 18.8792 127.849 15.5402C127.849 14.0422 127.317 12.9432 126.253 12.2362C125.189 11.5292 123.509 11.1792 121.206 11.1792C120.934 11.1792 120.052 11.2151 118.56 11.2758C118.438 11.2808 118.312 11.2859 118.182 11.2912V25.8512H120.772ZM120.772 18.1932V13.5242C121.024 13.4962 121.283 13.4752 121.563 13.4752C123.992 13.4752 125.21 14.2312 125.21 15.7432C125.21 16.6322 124.937 17.2762 124.391 17.6682C123.852 18.0672 122.991 18.2632 121.808 18.2632C121.556 18.2632 121.206 18.2422 120.772 18.1932Z" fill="black"/>
<path d="M136.15 17.5141C135.709 17.2201 135.219 17.0801 134.687 17.0801C134.113 17.0801 133.595 17.3391 133.147 17.8641C132.699 18.3891 132.475 19.0261 132.475 19.7821V25.8511H129.99V15.1971H132.475V16.1701C133.175 15.3861 134.099 14.9941 135.247 14.9941C136.094 14.9941 136.745 15.1201 137.2 15.3791L136.15 17.5141Z" fill="black"/>
<path fill-rule="evenodd" clip-rule="evenodd" d="M140.594 21.287H148.203C148.343 20.671 148.413 20.209 148.399 19.901C148.399 18.473 147.937 17.304 146.999 16.38C146.068 15.463 144.829 15.001 143.282 15.001C141.826 15.001 140.58 15.519 139.544 16.562C138.508 17.605 137.99 18.963 137.99 20.643C137.99 22.344 138.466 23.674 139.411 24.626C140.356 25.578 141.644 26.054 143.268 26.054C145.004 26.054 146.313 25.697 147.188 24.99L146.222 23.093C145.634 23.681 144.773 23.975 143.639 23.975C142.729 23.975 142.008 23.737 141.469 23.268C140.93 22.799 140.643 22.134 140.594 21.287ZM145.907 19.411H140.678C141.028 17.857 141.91 17.08 143.317 17.073C144.871 17.073 145.732 17.85 145.907 19.411Z" fill="black"/>
<path d="M149.743 25.1648L150.625 23.1838C151.367 23.7718 152.207 24.0658 153.145 24.0658C154.111 24.0658 154.594 23.7228 154.594 23.0298C154.594 22.6238 154.447 22.2948 154.16 22.0358C153.873 21.7768 153.299 21.4758 152.459 21.1188C150.625 20.3558 149.701 19.2918 149.701 17.9128C149.701 16.9888 150.051 16.2748 150.758 15.7568C151.458 15.2458 152.361 14.9868 153.453 14.9868C154.559 14.9868 155.602 15.2388 156.575 15.7358L155.861 17.6678C155.315 17.2058 154.559 16.9678 153.593 16.9678C152.725 16.9678 152.291 17.3108 152.291 18.0038C152.291 18.2768 152.431 18.5218 152.718 18.7388C153.005 18.9558 153.614 19.2498 154.545 19.6208C155.483 19.9918 156.155 20.4328 156.561 20.9578C156.974 21.4828 157.177 22.1128 157.177 22.8548C157.177 23.8418 156.813 24.6188 156.078 25.1858C155.343 25.7528 154.349 26.0328 153.089 26.0328C152.382 26.0328 151.808 25.9768 151.381 25.8578C150.961 25.7598 150.415 25.5218 149.743 25.1648Z" fill="black"/>
<path d="M158.515 25.1648L159.397 23.1838C160.139 23.7718 160.979 24.0658 161.917 24.0658C162.883 24.0658 163.366 23.7228 163.366 23.0298C163.366 22.6238 163.219 22.2948 162.932 22.0358C162.645 21.7768 162.071 21.4758 161.231 21.1188C159.397 20.3558 158.473 19.2918 158.473 17.9128C158.473 16.9888 158.823 16.2748 159.53 15.7568C160.23 15.2458 161.133 14.9868 162.225 14.9868C163.331 14.9868 164.374 15.2388 165.347 15.7358L164.633 17.6678C164.087 17.2058 163.331 16.9678 162.365 16.9678C161.497 16.9678 161.063 17.3108 161.063 18.0038C161.063 18.2768 161.203 18.5218 161.49 18.7388C161.777 18.9558 162.386 19.2498 163.317 19.6208C164.255 19.9918 164.927 20.4328 165.333 20.9578C165.746 21.4828 165.949 22.1128 165.949 22.8548C165.949 23.8418 165.585 24.6188 164.85 25.1858C164.115 25.7528 163.121 26.0328 161.861 26.0328C161.154 26.0328 160.58 25.9768 160.153 25.8578C159.733 25.7598 159.187 25.5218 158.515 25.1648Z" fill="black"/>
<path fill-rule="evenodd" clip-rule="evenodd" d="M74.6899 47.3409H68.9219V28.4969C71.4629 28.3779 73.2409 28.3149 74.2629 28.3149C76.2159 28.3149 77.7489 28.7349 78.8549 29.5679C79.9539 30.4079 80.5069 31.5979 80.5069 33.1519C80.5069 34.6429 79.7159 35.8259 78.1409 36.6939C80.4859 37.5129 81.6549 39.1929 81.6549 41.7409C81.6549 43.4559 81.0039 44.8209 79.7089 45.8289C78.4139 46.8369 76.7409 47.3409 74.6899 47.3409ZM72.2749 31.1779V35.6929C72.7929 35.7279 73.3319 35.7419 73.8989 35.7419C76.0759 35.7419 77.1679 34.9229 77.1679 33.2849C77.1679 31.8359 76.1739 31.1079 74.1929 31.1079C73.6679 31.1149 73.0239 31.1359 72.2749 31.1779ZM72.2749 44.5339V38.3039C73.0729 38.2829 73.6329 38.2689 73.9549 38.2689C75.5159 38.2689 76.6079 38.5139 77.2379 39.0039C77.8609 39.4939 78.1759 40.2779 78.1759 41.3489C78.1759 42.5249 77.8399 43.3649 77.1679 43.8689C76.4959 44.3729 75.4109 44.6249 73.9199 44.6249C73.4999 44.6249 72.9539 44.5969 72.2749 44.5339Z" fill="black"/>
<path fill-rule="evenodd" clip-rule="evenodd" d="M90.5666 47.1448C91.2946 46.8438 91.7986 46.4518 92.0926 45.9688C92.2256 46.3678 92.4706 46.7458 92.8346 47.0818C93.1986 47.4248 93.6186 47.5998 94.0806 47.5998C94.5006 47.5998 94.8716 47.5438 95.2006 47.4388C95.5296 47.3338 95.8236 47.0468 96.0896 46.5848C95.3546 46.1088 94.9836 44.9538 94.9836 43.1198V40.1728C94.9836 37.5058 94.4936 35.6928 93.5136 34.7338C92.5336 33.7748 90.9936 33.2988 88.8936 33.2988C87.3676 33.2988 86.0516 33.5648 84.9456 34.0968L85.6386 36.5958C86.4576 36.1968 87.4656 35.9938 88.6766 35.9938C90.7276 35.9938 91.7496 36.8058 91.7496 38.4298C91.2386 38.2968 90.7906 38.2338 90.4126 38.2338C88.2076 38.2338 86.5066 38.6818 85.3096 39.5848C84.1126 40.4878 83.5176 41.7338 83.5176 43.3298C83.5176 44.6878 83.9446 45.7448 84.7916 46.4868C85.6386 47.2288 86.8076 47.5998 88.2916 47.5998C89.0826 47.5998 89.8386 47.4528 90.5666 47.1448ZM90.5456 40.6908C90.8256 40.6908 91.2386 40.7468 91.7846 40.8588V42.1468C91.7846 44.0788 90.8186 45.0448 88.8866 45.0448C87.4516 45.0448 86.7376 44.4288 86.7376 43.1898C86.7376 41.5238 88.0046 40.6908 90.5456 40.6908Z" fill="black"/>
<path d="M106.435 36.5538C105.861 36.1758 105.231 35.9868 104.545 35.9868C103.796 35.9868 103.138 36.3228 102.557 37.0018C101.976 37.6808 101.689 38.5068 101.689 39.4868V47.3408H98.4688V33.5578H101.689V34.8178C102.592 33.8028 103.789 33.2988 105.28 33.2988C106.379 33.2988 107.219 33.4668 107.8 33.8028L106.435 36.5538Z" fill="black"/>
<path d="M117.691 36.5538C117.117 36.1758 116.487 35.9868 115.801 35.9868C115.052 35.9868 114.394 36.3228 113.813 37.0018C113.232 37.6808 112.945 38.5068 112.945 39.4868V47.3408H109.725V33.5578H112.945V34.8178C113.848 33.8028 115.045 33.2988 116.536 33.2988C117.635 33.2988 118.475 33.4668 119.056 33.8028L117.691 36.5538Z" fill="black"/>
<path fill-rule="evenodd" clip-rule="evenodd" d="M126.309 47.1448C127.037 46.8438 127.541 46.4518 127.835 45.9688C127.968 46.3678 128.213 46.7458 128.577 47.0818C128.941 47.4248 129.361 47.5998 129.823 47.5998C130.243 47.5998 130.614 47.5438 130.943 47.4388C131.272 47.3338 131.566 47.0468 131.832 46.5848C131.097 46.1088 130.726 44.9538 130.726 43.1198V40.1728C130.726 37.5058 130.236 35.6928 129.256 34.7338C128.276 33.7748 126.736 33.2988 124.636 33.2988C123.11 33.2988 121.794 33.5648 120.688 34.0968L121.381 36.5958C122.2 36.1968 123.208 35.9938 124.419 35.9938C126.47 35.9938 127.492 36.8058 127.492 38.4298C126.981 38.2968 126.533 38.2338 126.155 38.2338C123.95 38.2338 122.249 38.6818 121.052 39.5848C119.855 40.4878 119.26 41.7338 119.26 43.3298C119.26 44.6878 119.687 45.7448 120.534 46.4868C121.381 47.2288 122.55 47.5998 124.034 47.5998C124.825 47.5998 125.581 47.4528 126.309 47.1448ZM126.288 40.6908C126.568 40.6908 126.974 40.7468 127.527 40.8588V42.1468C127.527 44.0788 126.561 45.0448 124.629 45.0448C123.194 45.0448 122.48 44.4288 122.48 43.1898C122.48 41.5238 123.747 40.6908 126.288 40.6908Z" fill="black"/>
<path d="M143.072 47.3408V39.3748C143.072 38.1988 142.848 37.3378 142.393 36.7988C141.945 36.2598 141.21 35.9868 140.188 35.9868C139.719 35.9868 139.215 36.1198 138.676 36.3858C138.137 36.6518 137.724 36.9808 137.423 37.3798V47.3408H134.203V33.5578H136.52L137.115 34.8458C137.99 33.8168 139.278 33.2988 140.986 33.2988C142.624 33.2988 143.919 33.7888 144.864 34.7758C145.809 35.7628 146.285 37.1278 146.285 38.8918V47.3478H143.072V47.3408Z" fill="black"/>
<path fill-rule="evenodd" clip-rule="evenodd" d="M158.725 46.963V52.752V52.759H161.938V33.565H159.852L159.327 34.391C158.347 33.67 157.262 33.313 156.058 33.313C154.035 33.313 152.376 33.971 151.074 35.287C149.772 36.603 149.121 38.374 149.121 40.593C149.121 42.826 149.688 44.548 150.822 45.773C151.956 46.998 153.524 47.607 155.533 47.607C156.891 47.607 157.955 47.39 158.725 46.963ZM156.471 36.029C157.402 36.029 158.151 36.295 158.725 36.827H158.718V44.205C158.102 44.653 157.318 44.877 156.366 44.877C153.769 44.877 152.467 43.442 152.467 40.579C152.467 39.2 152.824 38.094 153.531 37.268C154.238 36.442 155.218 36.029 156.471 36.029Z" fill="black"/>
<path d="M174.04 47.3549V46.1999C173.585 46.5849 172.962 46.9139 172.164 47.1939C171.366 47.4669 170.631 47.6069 169.966 47.6069C166.767 47.6069 165.164 45.9059 165.164 42.5109V33.5649H168.384V42.2659C168.384 44.0369 169.175 44.9189 170.764 44.9189C171.492 44.9189 172.171 44.7299 172.801 44.3519C173.431 43.9739 173.844 43.5399 174.047 43.0359V33.5649H177.267V47.3619H174.04V47.3549Z" fill="black"/>
<path fill-rule="evenodd" clip-rule="evenodd" d="M184.577 28.7628C184.213 28.3988 183.779 28.2168 183.261 28.2168C182.743 28.2168 182.302 28.3988 181.945 28.7628C181.581 29.1268 181.399 29.5678 181.399 30.0788C181.399 30.5898 181.581 31.0308 181.945 31.3948C182.309 31.7588 182.75 31.9408 183.261 31.9408C183.772 31.9408 184.213 31.7588 184.577 31.3948C184.941 31.0308 185.123 30.5898 185.123 30.0788C185.123 29.5678 184.941 29.1268 184.577 28.7628ZM181.602 36.1968V47.3408H184.857V33.5578H179.838V36.1968H181.602Z" fill="black"/>
<path d="M189.154 28.4199L192.374 27.6499V43.1479C192.374 44.8489 192.878 45.8569 193.893 46.1859C193.396 47.1309 192.549 47.5999 191.345 47.5999C189.889 47.5999 189.154 46.5849 189.154 44.5619V28.4199H189.154Z" fill="black"/>
<path d="M196.932 28.4199L200.152 27.6499V43.1479C200.152 44.8489 200.656 45.8569 201.671 46.1859C201.174 47.1309 200.327 47.5999 199.123 47.5999C197.667 47.5999 196.932 46.5849 196.932 44.5619V28.4199H196.932Z" fill="black"/>
<path fill-rule="evenodd" clip-rule="evenodd" d="M210.293 47.1448C211.021 46.8438 211.525 46.4518 211.819 45.9688C211.945 46.3678 212.197 46.7458 212.561 47.0818C212.925 47.4248 213.345 47.5998 213.807 47.5998C214.227 47.5998 214.598 47.5438 214.927 47.4388C215.256 47.3338 215.55 47.0468 215.816 46.5848C215.081 46.1088 214.71 44.9538 214.71 43.1198V40.1728C214.71 37.5058 214.22 35.6928 213.24 34.7338C212.26 33.7748 210.72 33.2988 208.62 33.2988C207.094 33.2988 205.778 33.5648 204.672 34.0968L205.365 36.5958C206.184 36.1968 207.192 35.9938 208.403 35.9938C210.454 35.9938 211.476 36.8058 211.476 38.4298C210.965 38.2968 210.517 38.2338 210.139 38.2338C207.934 38.2338 206.233 38.6818 205.036 39.5848C203.839 40.4878 203.244 41.7338 203.244 43.3298C203.244 44.6878 203.671 45.7448 204.518 46.4868C205.365 47.2288 206.534 47.5998 208.018 47.5998C208.809 47.5998 209.565 47.4528 210.293 47.1448ZM210.272 40.6908C210.552 40.6908 210.958 40.7468 211.511 40.8588V42.1468C211.511 44.0788 210.545 45.0448 208.613 45.0448C207.178 45.0448 206.464 44.4288 206.464 43.1898C206.464 41.5238 207.731 40.6908 210.272 40.6908Z" fill="black"/>
</svg>
