<svg fill="none" height="63" viewBox="0 0 216 63" width="216" xmlns="http://www.w3.org/2000/svg"><path clip-rule="evenodd" d="m0 31.409c0-17.346 14.063-31.409 31.409-31.409 17.353 0 31.416 14.063 31.409 31.409 0 17.346-14.063 31.409-31.409 31.409s-31.409-14.063-31.409-31.409zm42.903-27.202c-3.64-1.54-7.504-2.317-11.494-2.317-3.983 0-7.854.777-11.494 2.317-1.743.742-3.437 1.659-5.012 2.723-1.561 1.057-3.031 2.268-4.368 3.605-1.337 1.33-2.548 2.807-3.605 4.368-1.064 1.575-1.981 3.262-2.723 5.012-1.54 3.64-2.317 7.504-2.317 11.494s.777 7.854 2.317 11.494c.742 1.743 1.659 3.437 2.723 5.012 1.057 1.561 2.268 3.031 3.605 4.368 1.33 1.337 2.807 2.548 4.368 3.605 1.575 1.064 3.262 1.981 5.012 2.723 3.64 1.54 7.504 2.317 11.494 2.317s7.854-.777 11.494-2.317c1.743-.742 3.437-1.659 5.012-2.723 1.561-1.057 3.031-2.268 4.368-3.605 1.337-1.33 2.548-2.807 3.605-4.368 1.064-1.575 1.981-3.262 2.723-5.012 1.54-3.64 2.317-7.504 2.317-11.494s-.777-7.854-2.317-11.494c-.742-1.743-1.659-3.437-2.723-5.012-1.057-1.561-2.268-3.031-3.605-4.368-1.33-1.337-2.807-2.548-4.368-3.605-1.575-1.064-3.262-1.981-5.012-2.723z" fill="#ff6d2d" fill-rule="evenodd"/><path clip-rule="evenodd" d="m46.9283 22.8758c.994 1.743 2.156 3.983 2.156 7.217 0 2.24-.707 4.893-1.89 8.638l-2.702 8.554-9.457-28.14c1.575-.084 2.996-.252 2.996-.252 1.407-.168 1.246-2.24-.168-2.156 0 0-4.242.336-6.979.336-2.576 0-6.895-.336-6.895-.336-1.414-.084-1.582 2.072-.168 2.156 0 0 1.337.168 2.744.252l4.081 11.172-5.726 17.178-9.534-28.357c1.575-.084 2.996-.252 2.996-.252 1.407-.168 1.239-2.24-.168-2.156 0 0-4.242.336-6.979.336-.49 0-1.071-.014-1.68697-.035 4.67597-7.10496 12.71897-11.79496 21.86797-11.79496 6.811 0 13.02 2.604 17.675 6.87396-.0373-.0023-.0739-.0054-.1104-.0085-.0731-.0062-.1462-.0125-.2256-.0125-2.569 0-4.396 2.24-4.396 4.648 0 1.9992 1.0653 3.7155 2.2807 5.6735l.0004.0007c.0952.1534.1913.3083.2879.4648zm-26.936 32.095c-8.736-4.242-14.75597-13.195-14.75597-23.555 0-3.794.812-7.399 2.268-10.654zm11.879-21.266-7.854 22.82c2.345.693 4.823 1.064 7.392 1.064 3.045 0 5.971-.525 8.694-1.484-.07-.112-.133-.231-.189-.364zm22.687-12.152c0-.966-.063-1.862-.175-2.695 2.044 3.724 3.206 8.008 3.199 12.558 0 9.653-5.229 18.088-13.013 22.624l8.001-23.114c1.491-3.731 1.988-6.72 1.988-9.373z" fill="#ff6d2d" fill-rule="evenodd"/><path d="m80.2349 26.0469h-1.064l-3.185-9.191-3.094 9.191h-1.064l-4.781-14.77h2.695l2.737 8.792 2.954-8.792h1.134l2.961 8.792 2.723-8.792h2.695z" fill="#ff6d2d"/><path clip-rule="evenodd" d="m86.6882 16.5271c-.938 1.022-1.407 2.345-1.407 3.969 0 1.68.4621 3.017 1.3581 4.032s2.1559 1.519 3.773 1.519c1.582 0 2.835-.504 3.745-1.505s1.365-2.352 1.365-4.046c0-1.708-.448-3.052-1.344-4.032s-2.156-1.47-3.773-1.47c-1.54 0-2.779.511-3.7171 1.533zm3.71 7.49c-1.687 0-2.534-1.176-2.534-3.521 0-1.092.231-1.946.6861-2.555.4549-.609 1.0709-.917 1.8479-.917 1.687 0 2.5271 1.155 2.5271 3.472 0 1.127-.224 1.995-.679 2.604-.4551.609-1.071.917-1.8481.917z" fill="#ff6d2d" fill-rule="evenodd"/><path d="m103.664 17.5141c-.441-.294-.931-.434-1.463-.434-.574 0-1.092.259-1.54.784s-.6721 1.162-.6721 1.918v6.069h-2.485v-10.654h2.485v.973c.6931-.784 1.6241-1.176 2.7721-1.176.847 0 1.498.126 1.953.385z" fill="#ff6d2d"/><path clip-rule="evenodd" d="m113.057 25.207v.637h2.492v-15.218l-2.485.595v4.27c-.665-.329-1.4-.497-2.212-.497-1.47 0-2.695.532-3.675 1.589s-1.47 2.429-1.47 4.116.427 2.996 1.281 3.941 2.023 1.414 3.507 1.414c.518 0 1.029-.077 1.519-.252s.84-.371 1.043-.595zm-1.659-8.099c.574 0 1.127.21 1.659.637h.007v5.558c-.105.147-.329.287-.679.434s-.644.217-.882.217c-2.135 0-3.206-1.113-3.206-3.325 0-1.134.266-2.002.805-2.611.532-.609 1.302-.91 2.296-.91z" fill="#ff6d2d" fill-rule="evenodd"/><g fill="#000"><path clip-rule="evenodd" d="m120.772 25.8512v-5.362c.49.049.882.07 1.169.063 3.941 0 5.908-1.673 5.908-5.012 0-1.498-.532-2.597-1.596-3.304s-2.744-1.057-5.047-1.057c-.272 0-1.154.0359-2.646.0966-.122.005-.248.0101-.378.0154v14.56zm0-7.658v-4.669c.252-.028.511-.049.791-.049 2.429 0 3.647.756 3.647 2.268 0 .889-.273 1.533-.819 1.925-.539.399-1.4.595-2.583.595-.252 0-.602-.021-1.036-.07z" fill-rule="evenodd"/><path d="m136.15 17.5141c-.441-.294-.931-.434-1.463-.434-.574 0-1.092.259-1.54.784s-.672 1.162-.672 1.918v6.069h-2.485v-10.654h2.485v.973c.7-.784 1.624-1.176 2.772-1.176.847 0 1.498.126 1.953.385z"/><path clip-rule="evenodd" d="m140.594 21.287h7.609c.14-.616.21-1.078.196-1.386 0-1.428-.462-2.597-1.4-3.521-.931-.917-2.17-1.379-3.717-1.379-1.456 0-2.702.518-3.738 1.561s-1.554 2.401-1.554 4.081c0 1.701.476 3.031 1.421 3.983s2.233 1.428 3.857 1.428c1.736 0 3.045-.357 3.92-1.064l-.966-1.897c-.588.588-1.449.882-2.583.882-.91 0-1.631-.238-2.17-.707s-.826-1.134-.875-1.981zm5.313-1.876h-5.229c.35-1.554 1.232-2.331 2.639-2.338 1.554 0 2.415.777 2.59 2.338z" fill-rule="evenodd"/><path d="m149.743 25.1648.882-1.981c.742.588 1.582.882 2.52.882.966 0 1.449-.343 1.449-1.036 0-.406-.147-.735-.434-.994s-.861-.56-1.701-.917c-1.834-.763-2.758-1.827-2.758-3.206 0-.924.35-1.638 1.057-2.156.7-.511 1.603-.77 2.695-.77 1.106 0 2.149.252 3.122.749l-.714 1.932c-.546-.462-1.302-.7-2.268-.7-.868 0-1.302.343-1.302 1.036 0 .273.14.518.427.735s.896.511 1.827.882c.938.371 1.61.812 2.016 1.337.413.525.616 1.155.616 1.897 0 .987-.364 1.764-1.099 2.331s-1.729.847-2.989.847c-.707 0-1.281-.056-1.708-.175-.42-.098-.966-.336-1.638-.693z"/><path d="m158.515 25.1648.882-1.981c.742.588 1.582.882 2.52.882.966 0 1.449-.343 1.449-1.036 0-.406-.147-.735-.434-.994s-.861-.56-1.701-.917c-1.834-.763-2.758-1.827-2.758-3.206 0-.924.35-1.638 1.057-2.156.7-.511 1.603-.77 2.695-.77 1.106 0 2.149.252 3.122.749l-.714 1.932c-.546-.462-1.302-.7-2.268-.7-.868 0-1.302.343-1.302 1.036 0 .273.14.518.427.735s.896.511 1.827.882c.938.371 1.61.812 2.016 1.337.413.525.616 1.155.616 1.897 0 .987-.364 1.764-1.099 2.331s-1.729.847-2.989.847c-.707 0-1.281-.056-1.708-.175-.42-.098-.966-.336-1.638-.693z"/><path clip-rule="evenodd" d="m74.6899 47.3409h-5.768v-18.844c2.541-.119 4.319-.182 5.341-.182 1.953 0 3.486.42 4.592 1.253 1.099.84 1.652 2.03 1.652 3.584 0 1.491-.791 2.674-2.366 3.542 2.345.819 3.514 2.499 3.514 5.047 0 1.715-.651 3.08-1.946 4.088s-2.968 1.512-5.019 1.512zm-2.415-16.163v4.515c.518.035 1.057.049 1.624.049 2.177 0 3.269-.819 3.269-2.457 0-1.449-.994-2.177-2.975-2.177-.525.007-1.169.028-1.918.07zm0 13.356v-6.23c.798-.021 1.358-.035 1.68-.035 1.561 0 2.653.245 3.283.735.623.49.938 1.274.938 2.345 0 1.176-.336 2.016-1.008 2.52s-1.757.756-3.248.756c-.42 0-.966-.028-1.645-.091z" fill-rule="evenodd"/><path clip-rule="evenodd" d="m90.5666 47.1448c.728-.301 1.232-.693 1.526-1.176.133.399.378.777.742 1.113.364.343.784.518 1.246.518.42 0 .791-.056 1.12-.161s.623-.392.889-.854c-.735-.476-1.106-1.631-1.106-3.465v-2.947c0-2.667-.49-4.48-1.47-5.439s-2.52-1.435-4.62-1.435c-1.526 0-2.842.266-3.948.798l.693 2.499c.819-.399 1.827-.602 3.038-.602 2.051 0 3.073.812 3.073 2.436-.511-.133-.959-.196-1.337-.196-2.205 0-3.906.448-5.103 1.351s-1.792 2.149-1.792 3.745c0 1.358.427 2.415 1.274 3.157s2.016 1.113 3.5 1.113c.791 0 1.547-.147 2.275-.455zm-.021-6.454c.28 0 .693.056 1.239.168v1.288c0 1.932-.966 2.898-2.898 2.898-1.435 0-2.149-.616-2.149-1.855 0-1.666 1.267-2.499 3.808-2.499z" fill-rule="evenodd"/><path d="m106.435 36.5538c-.574-.378-1.204-.567-1.89-.567-.749 0-1.407.336-1.988 1.015s-.868 1.505-.868 2.485v7.854h-3.2202v-13.783h3.2202v1.26c.903-1.015 2.1-1.519 3.591-1.519 1.099 0 1.939.168 2.52.504z"/><path d="m117.691 36.5538c-.574-.378-1.204-.567-1.89-.567-.749 0-1.407.336-1.988 1.015s-.868 1.505-.868 2.485v7.854h-3.22v-13.783h3.22v1.26c.903-1.015 2.1-1.519 3.591-1.519 1.099 0 1.939.168 2.52.504z"/><path clip-rule="evenodd" d="m126.309 47.1448c.728-.301 1.232-.693 1.526-1.176.133.399.378.777.742 1.113.364.343.784.518 1.246.518.42 0 .791-.056 1.12-.161s.623-.392.889-.854c-.735-.476-1.106-1.631-1.106-3.465v-2.947c0-2.667-.49-4.48-1.47-5.439s-2.52-1.435-4.62-1.435c-1.526 0-2.842.266-3.948.798l.693 2.499c.819-.399 1.827-.602 3.038-.602 2.051 0 3.073.812 3.073 2.436-.511-.133-.959-.196-1.337-.196-2.205 0-3.906.448-5.103 1.351s-1.792 2.149-1.792 3.745c0 1.358.427 2.415 1.274 3.157s2.016 1.113 3.5 1.113c.791 0 1.547-.147 2.275-.455zm-.021-6.454c.28 0 .686.056 1.239.168v1.288c0 1.932-.966 2.898-2.898 2.898-1.435 0-2.149-.616-2.149-1.855 0-1.666 1.267-2.499 3.808-2.499z" fill-rule="evenodd"/><path d="m143.072 47.3408v-7.966c0-1.176-.224-2.037-.679-2.576-.448-.539-1.183-.812-2.205-.812-.469 0-.973.133-1.512.399s-.952.595-1.253.994v9.961h-3.22v-13.783h2.317l.595 1.288c.875-1.029 2.163-1.547 3.871-1.547 1.638 0 2.933.49 3.878 1.477s1.421 2.352 1.421 4.116v8.456h-3.213z"/><path clip-rule="evenodd" d="m158.725 46.963v5.789.007h3.213v-19.194h-2.086l-.525.826c-.98-.721-2.065-1.078-3.269-1.078-2.023 0-3.682.658-4.984 1.974s-1.953 3.087-1.953 5.306c0 2.233.567 3.955 1.701 5.18s2.702 1.834 4.711 1.834c1.358 0 2.422-.217 3.192-.644zm-2.254-10.934c.931 0 1.68.266 2.254.798h-.007v7.378c-.616.448-1.4.672-2.352.672-2.597 0-3.899-1.435-3.899-4.298 0-1.379.357-2.485 1.064-3.311s1.687-1.239 2.94-1.239z" fill-rule="evenodd"/><path d="m174.04 47.3549v-1.155c-.455.385-1.078.714-1.876.994-.798.273-1.533.413-2.198.413-3.199 0-4.802-1.701-4.802-5.096v-8.946h3.22v8.701c0 1.771.791 2.653 2.38 2.653.728 0 1.407-.189 2.037-.567s1.043-.812 1.246-1.316v-9.471h3.22v13.797h-3.227z"/><path clip-rule="evenodd" d="m184.577 28.7628c-.364-.364-.798-.546-1.316-.546s-.959.182-1.316.546c-.364.364-.546.805-.546 1.316s.182.952.546 1.316.805.546 1.316.546.952-.182 1.316-.546.546-.805.546-1.316-.182-.952-.546-1.316zm-2.975 7.434v11.144h3.255v-13.783h-5.019v2.639z" fill-rule="evenodd"/><path d="m189.154 28.4199 3.22-.77v15.498c0 1.701.504 2.709 1.519 3.038-.497.945-1.344 1.414-2.548 1.414-1.456 0-2.191-1.015-2.191-3.038z"/><path d="m196.932 28.4199 3.22-.77v15.498c0 1.701.504 2.709 1.519 3.038-.497.945-1.344 1.414-2.548 1.414-1.456 0-2.191-1.015-2.191-3.038z"/><path clip-rule="evenodd" d="m210.293 47.1448c.728-.301 1.232-.693 1.526-1.176.126.399.378.777.742 1.113.364.343.784.518 1.246.518.42 0 .791-.056 1.12-.161s.623-.392.889-.854c-.735-.476-1.106-1.631-1.106-3.465v-2.947c0-2.667-.49-4.48-1.47-5.439s-2.52-1.435-4.62-1.435c-1.526 0-2.842.266-3.948.798l.693 2.499c.819-.399 1.827-.602 3.038-.602 2.051 0 3.073.812 3.073 2.436-.511-.133-.959-.196-1.337-.196-2.205 0-3.906.448-5.103 1.351s-1.792 2.149-1.792 3.745c0 1.358.427 2.415 1.274 3.157s2.016 1.113 3.5 1.113c.791 0 1.547-.147 2.275-.455zm-.021-6.454c.28 0 .686.056 1.239.168v1.288c0 1.932-.966 2.898-2.898 2.898-1.435 0-2.149-.616-2.149-1.855 0-1.666 1.267-2.499 3.808-2.499z" fill-rule="evenodd"/></g></svg>