<svg fill="none" viewBox="0 0 29 29" xmlns="http://www.w3.org/2000/svg"><path d="m8.28121 3.5636v2.67273m12.47279-2.67273v2.67273m-16.92734 16.03637v-13.36364c0-.70885.28159-1.38867.78283-1.8899.50123-.50124 1.18105-.78283 1.8899-.78283h16.03641c.7088 0 1.3887.28159 1.8899.78283.5012.50123.7828 1.18105.7828 1.8899v13.36364m-21.38184 0c0 .7089.28159 1.3887.78283 1.8899.50123.5013 1.18105.7829 1.8899.7829h16.03641c.7088 0 1.3887-.2816 1.8899-.7829.5012-.5012.7828-1.181.7828-1.8899m-21.38184 0v-8.9091c0-.7088.28159-1.3887.78283-1.8899.50123-.5012 1.18105-.7828 1.8899-.7828h16.03641c.7088 0 1.3887.2816 1.8899.7828s.7828 1.1811.7828 1.8899v8.9091" stroke="#ffe8cb" stroke-linecap="round" stroke-linejoin="round" stroke-width="1.78182"/></svg>