<svg fill="none" viewBox="0 0 31 32" xmlns="http://www.w3.org/2000/svg" xmlns:xlink="http://www.w3.org/1999/xlink"><clipPath id="a"><path d="m.235352.941406h30.1176v30.1176h-30.1176z"/></clipPath><mask id="b" height="32" maskUnits="userSpaceOnUse" width="31" x="0" y="0"><path d="m30.353.941406h-30.117648v30.117694h30.117648z" fill="#fff"/></mask><g clip-path="url(#a)"><g mask="url(#b)"><path clip-rule="evenodd" d="m15.2942.941406c-8.32003 0-15.058848 6.738824-15.058848 15.058794 0 6.6636 4.310588 12.2918 10.296448 14.2871.753.1318 1.0353-.32 1.0353-.7153 0-.3577-.0188-1.5435-.0188-2.8047-3.78354.6965-4.76236-.9224-5.06354-1.7694-.16941-.433-.90353-1.7694-1.54353-2.1271-.52705-.2823-1.28-.9788-.01882-.9976 1.18588-.0189 2.03294 1.0917 2.31529 1.5435 1.3553 2.2776 3.52 1.6376 4.3859 1.2424.1318-.9789.527-1.6377.96-2.0142-3.3506-.3764-6.85178-1.6753-6.85178-7.4353 0-1.6376.58353-2.9929 1.54353-4.047-.15059-.3765-.67765-1.92002.15059-3.99061 0 0 1.26118-.39529 4.14116 1.54353 1.2047-.33882 2.4847-.50823 3.7647-.50823s2.56.16941 3.7647.50823c2.88-1.95764 4.1412-1.54353 4.1412-1.54353.8282 2.07059.3012 3.61411.1506 3.99061.96 1.0541 1.5435 2.3906 1.5435 4.047 0 5.7789-3.52 7.0589-6.8706 7.4353.5459.4706 1.0165 1.3742 1.0165 2.7859 0 2.0141-.0188 3.633-.0188 4.1412 0 .3953.2823.8659 1.0353.7153 2.9894-1.0093 5.587-2.9306 7.4273-5.4935s2.8306-5.6384 2.8315-8.7936c0-8.31997-6.7388-15.058794-15.0588-15.058794z" fill="#ffc175" fill-rule="evenodd"/></g></g></svg>