<svg fill="none" viewBox="0 0 1919 385" xmlns="http://www.w3.org/2000/svg" xmlns:xlink="http://www.w3.org/1999/xlink"><linearGradient id="a" gradientUnits="userSpaceOnUse" x1="974.673" x2="974.673" y1="384.947" y2=".248239"><stop offset=".4516" stop-color="#fff" stop-opacity="0"/><stop offset="1" stop-color="#fff" stop-opacity=".99"/></linearGradient><path d="m1992.54 15.2699c-41.25-.6061-96.9-2.4245-137.07-3.9398-75.46-3.03054-149.29-5.30347-220.67 6.0612-66.5 10.607-127.31 31.3665-198.69 35.1547-67.32 3.4851-129.48-14.5468-194.89-16.0621-66.23-1.5153-123.5 15.3044-186.2 25.7599-75.732 12.7284-157.162 28.0328-237.234 23.1839-81.43-4.8489-146.845-38.6398-221.489-48.7922-138.158-18.9411-303.461 16.9712-450.034 2.879-70.5721-6.8188-123.7728-23.6385-189.4593-39.245945v384.731445h2035.7363z" fill="url(#a)" opacity=".7"/></svg>