<svg fill="none" viewBox="0 0 31 32" xmlns="http://www.w3.org/2000/svg"><path clip-rule="evenodd" d="m9.95596 2.27911c1.47204-.06776 1.94134-.08282 5.69094-.08282 3.7497 0 4.219.01631 5.6898.08282 1.4707.06651 2.4746.30118 3.3531.64126.9198.34761 1.7543.89098 2.4445 1.59372.7028.68894 1.2449 1.5222 1.5912 2.4433.3414.87843.5748 1.88235.6425 3.35061.0678 1.4745.0829 1.9438.0829 5.6922 0 3.7497-.0164 4.219-.0829 5.691-.0665 1.4682-.3011 2.4721-.6425 3.3506-.3463.9212-.8893 1.7558-1.5912 2.4458-.6902.7027-1.5247 1.2448-2.4445 1.5912-.8785.3413-1.8824.5747-3.3506.6425-1.4733.0678-1.9426.0828-5.6923.0828-3.7496 0-4.2189-.0163-5.69094-.0828-1.46824-.0665-2.47216-.3012-3.35059-.6425-.9212-.3464-1.75583-.8894-2.4458-1.5912-.70227-.6894-1.24573-1.5236-1.59247-2.4446-.34008-.8784-.57349-1.8823-.64126-3.3506-.06776-1.4745-.08282-1.9438-.08282-5.6922 0-3.7496.01631-4.219.08282-5.6897.06651-1.47076.30118-2.47468.64126-3.35311.34726-.921.89113-1.75522 1.59372-2.44455.68899-.70212 1.52279-1.24556 2.4433-1.59247.87843-.34008 1.8836-.57349 3.35184-.64126zm11.26904 2.48471c-1.4557-.06651-1.8924-.08031-5.5781-.08031-3.6856 0-4.1223.0138-5.578.08031-1.34651.06149-2.07686.28612-2.56376.47561-.64377.25098-1.10432.54839-1.58746 1.03153-.45798.44555-.81044.98796-1.03153 1.58745-.18949.4869-.41411 1.21725-.4756 2.56379-.06651 1.4557-.08032 1.8924-.08032 5.578 0 3.6857.01381 4.1224.08032 5.5781.06149 1.3465.28611 2.0768.4756 2.5637.22087.5986.5735 1.142 1.03153 1.5875.44549.458.98887.8106 1.58746 1.0315.4869.1895 1.21725.4141 2.56376.4756 1.4557.0665 1.8911.0803 5.578.0803s4.1224-.0138 5.5781-.0803c1.3465-.0615 2.0768-.2861 2.5637-.4756.6438-.251 1.1044-.5484 1.5875-1.0315.458-.4455.8107-.9889 1.0315-1.5875.1895-.4869.4141-1.2172.4756-2.5637.0665-1.4557.0803-1.8924.0803-5.5781 0-3.6856-.0138-4.1223-.0803-5.578-.0615-1.34654-.2861-2.07689-.4756-2.56379-.251-.64377-.5484-1.10432-1.0315-1.58745-.4456-.45795-.988-.81041-1.5875-1.03153-.4869-.18949-1.2172-.41412-2.5637-.47561zm-7.3412 15.49178c.9847.4099 2.0811.4652 3.102.1565 1.021-.3087 1.903-.9623 2.4956-1.8491s.8589-1.9518.7535-3.0132c-.1054-1.0613-.576-2.0532-1.3315-2.8061-.4816-.4812-1.0639-.8498-1.705-1.079s-1.325-.3134-2.0026-.2466-1.3319.283-1.9159.6331c-.5839.3501-1.083.8252-1.4613 1.3913s-.6263 1.2091-.7263 1.8825c-.1.6735-.0494 1.3608.1481 2.0123.1975.6516.537 1.2513.9941 1.7559s1.0204.9016 1.6493 1.1624zm-3.254-9.2725c.6589-.6588 1.4411-1.18147 2.3019-1.53804s1.7835-.5401 2.7152-.5401c.9318 0 1.8544.18353 2.7153.5401.8608.35657 1.643.87924 2.3018 1.53804.6589.6589 1.1815 1.441 1.5381 2.3019.3566.8608.5401 1.7834.5401 2.7152s-.1835 1.8544-.5401 2.7152c-.3566.8609-.8792 1.6431-1.5381 2.3019-1.3306 1.3306-3.1353 2.0782-5.0171 2.0782-1.8817 0-3.6864-.7476-5.0171-2.0782-1.33058-1.3306-2.07811-3.1353-2.07811-5.0171s.74753-3.6865 2.07811-5.0171zm13.686-1.02148c.1633-.15401.294-.33922.3844-.54466.0904-.20543.1387-.42692.1419-.65135.0033-.22442-.0385-.44722-.1229-.65521-.0843-.20798-.2096-.39692-.3683-.55563s-.3477-.28396-.5556-.36834c-.208-.08438-.4308-.12617-.6553-.1229-.2244.00327-.4459.05154-.6513.14195-.2054.0904-.3906.22111-.5447.38438-.2995.31752-.4635.73929-.4571 1.17575.0063.43647.1826.85327.4912 1.16193.3087.30866.7255.48486 1.1619.49126.4365.0063.8583-.1576 1.1758-.45718z" fill="#ffc175" fill-rule="evenodd"/></svg>