<svg height="800" viewBox="0 0 48 48" width="800" xmlns="http://www.w3.org/2000/svg"><path d="m0-.019h48v48h-48v-48z" fill="none"/><path d="m36.019 8a3.986 3.986 0 0 1 3.981 3.981v24.038a3.986 3.986 0 0 1 -3.981 3.981h-24.038a3.986 3.986 0 0 1 -3.981-3.981v-24.038a3.986 3.986 0 0 1 3.981-3.981zm0-4h-24.038a7.98 7.98 0 0 0 -7.981 7.981v24.038a7.98 7.98 0 0 0 7.981 7.981h24.038a7.98 7.98 0 0 0 7.981-7.981v-24.038a7.98 7.98 0 0 0 -7.981-7.981z"/><path d="m24 34c-5.514 0-10-4.486-10-10s4.486-10 10-10 10 4.486 10 10-4.486 10-10 10zm0-16c-3.309 0-6 2.691-6 6s2.691 6 6 6 6-2.691 6-6-2.691-6-6-6z"/><circle cx="35" cy="13" r="2"/></svg>