<svg fill="none" viewBox="0 0 412 1025" xmlns="http://www.w3.org/2000/svg"><g fill="#120b2f"><path d="m-160.456 392.439c-.814-.272-1.357.271-1.9.814-4.071 2.986-7.872 5.972-11.943 8.957-4.886 3.529-9.772 7.329-14.929 10.586-4.886 3.257-9.771 5.972-14.657 8.686-.814.543-1.629.814-2.443 1.086-.814.271-1.629.814-2.443 0-.543-.543-.271-1.357.814-2.714l2.443-2.443c5.429-4.615 11.129-8.958 16.558-13.572 6.514-5.429 13.028-10.857 19.543-16.557 8.143-7.057 16.286-14.115 24.7-20.901 2.172-1.628 4.343-3.257 6.243-5.428-.543-1.086-1.086-.543-1.629-.272-4.342 1.629-8.685 3.529-13.028 5.158-5.972 2.443-11.943 5.157-17.915 7.6-1.086.543-2.171.814-3.257 1.085-.271 0-.814-.271-.814-.542 0-.272 0-.815.271-1.086.543-.543 1.086-1.086 1.629-1.357 16.286-11.129 32.572-21.986 50.215-31.215 4.343-2.172 8.685-4.614 13.028-7.057.815-.543 1.629-1.086 2.443-1.629-.814-.814-1.357-.543-1.9-.271-13.028 2.985-26.057 7.057-38.272 12.757-.543.272-1.357.543-2.171.814-.272 0-.543-.271-.543-.543 0-.271-.271-.542 0-.814l.814-.814c1.086-.543 2.172-1.357 3.258-1.9 15.2-8.415 30.671-16.829 46.6858-23.615 2.7143-1.085 5.4286-2.443 8.4144-3.8.2714 0 .2714-.271.5429-.543-.5429-1.085-1.3572-.271-1.9001-.271-10.043 1.629-20.357 2.714-30.672 3.529-1.085 0-2.171.271-3.528.271-1.358 0-2.172-.271-2.172-1.086 0-1.085.814-1.357 1.357-1.628 1.086-.543 2.172-.815 3.258-1.086 11.671-4.072 23.343-8.143 35.0142-12.214 12.4859-4.343 24.9718-8.686 37.4576-12.758 1.0858-.271 2.1715-.814 3.2572-1.357.2714 0 .2714-.543.2714-1.086h.2715s0 0 .2714.272l-.2714-.272c-1.6286.272-3.2572.543-4.8858.815-4.6143.542-9.2287.814-14.1145 1.628-9.7715 1.357-19.5431 3.8-28.7717 7.057-1.6286.543-3.2572 1.358-5.4289 1.358 0-.543 0-1.086.272-1.358.543-.542 1.0854-.814 1.8997-1.357 6.5143-3.528 12.7573-6.786 19.2716-10.043 12.7573-6.514 26.329-10.857 40.172-14.114 10.3144-2.443 20.9002-4.343 31.48608-5.7 1.62859-.272 3.25716-.543 4.88576-.815.27142 0 .27144-.271.8143-.542-.8143-.272-1.35716-.543-2.17146-.543-6.24298-.815-12.48588-1.357-18.72878-1.357-1.3572 0-2.4429-.272-3.8001-.272-.2714 0-.8143-.543-.8143-.543 0-.543.2715-1.085.8143-1.085 1.0858-.543 2.4429-.815 3.8001-1.086 11.4001-2.172 23.071704-4.343 34.4719-5.972 5.4286-.814 11.1286-1.628 16.5573-2.443.8143 0 1.6286-.542 3.2572-.814-1.6286-.543-2.4429-.814-3.2572-.814-2.9858-.543-5.9715-.814-8.9573-1.357-2.1714-.272-4.3429-.815-6.7858-1.357-.2714 0-.5428-.815-.8142-1.086 0-.272.2714-.815.5428-.815 1.0858-.271 2.4429-.542 4.3429-1.085-1.9-.815-3.5286-.815-4.8857-1.086-1.62865-.271-2.98583-.543-4.61443-.543-5.1572-.543-10.04297-1.086-15.20016-1.628-.27144 0-.81429 0-1.08573 0-.81428 0-1.08568-.543-1.08568-1.358 0-.271.5428-1.085.8142-1.085 1.08577-.272 2.44293-.543 3.80009-.815.54286-.271 1.08574-.271 1.90004-.543 0 0 .27142.001.27142-.271 0 0 0-.271.27143-.271 0 .271-.27143.271-.27143.542-1.35716-.814-2.71432-.271-4.07147-.271-6.78578.543-13.57158 1.629-20.35738 3.257-1.0857.272-2.1715.272-3.2572.272-.2714 0-.8143-.272-.8143-.543 0-.543 0-1.086.2714-1.357.8143-.815 1.9001-1.357 2.7144-1.9 4.8857-2.986 9.7715-5.972 14.6573-8.686.5428-.272 1.0857-.814 2.1714-1.629-1.0857-.271-1.6286-.271-2.1714-.271-8.143.814-16.0145 2.714-23.3432 6.514-3.2572 1.629-6.2429 3.257-9.5001 4.886-.8143.543-1.9.814-2.7143 1.086-.5429.271-1.3572-1.086-1.0857-1.629.2714-.543.8143-1.086 1.0857-1.357 1.3572-1.086 2.4429-2.172 3.8-3.257 5.1572-4.343 10.3145-8.686 15.4717-13.029-.8143-1.086-1.6286-.271-2.1715-.271-15.7431 3.8-30.4004 10.314-44.2434 18.457-3.8 2.171-7.6001 4.614-11.4002 6.786-.8143.543-1.9 1.085-2.7143 1.357-.2714 0-1.0857 0-1.3571-.272-.5429-.542-.2715-1.085.2714-1.628s1.3572-1.086 1.9-1.629c11.943-10.043 24.7003-19.271 38.0005-27.686.2714-.271.5429-.543.8143-.814-.5429-1.086-1.3572-.271-1.9-.271-7.0573 1.357-13.843 2.985-20.9003 4.342-4.3429.815-8.4144 1.629-12.7573 2.172-1.9.271-4.0715.271-5.9715.271-.8143 0-1.3572-.271-2.1714-.543-.5429-.271-.5429-1.357 0-1.628.5428-.543 1.3571-.814 1.9-1.086 2.9857-1.086 5.9715-1.9 8.9572-2.986 6.5144-2.171 12.7573-4.614 18.7288-7.6.8143-.271 1.6286-.814 2.9858-1.628-1.9-.272-2.9858 0-4.0715 0-10.8573 1.085-21.7146 2.443-32.5718 3.528-6.2434.543-12.7574 1.086-19.0004.815-2.986-.272-5.971-.543-8.957-1.086-.814 0-1.629-.272-2.172-.814-.271-.272-.814-.815-.814-1.086 0-.272.543-1.086.814-1.086 1.086-.271 1.9-.543 2.986-.543 4.072-.271 8.143-.543 12.215-1.086 6.785-.542 13.571-2.442 20.0856-4.614.2714 0 .5429-.271 1.0857-.543 0 0 0-.271.2714-.542-1.6285 0-3.2571 0-4.8857 0-15.2.271-30.129 2.442-44.786 6.785-11.672 3.257-23.615 6.515-35.286 9.772-1.086.271-1.9.543-2.986.543-.272 0-.815-.272-.815-.543 0-.272 0-.815 0-1.086s.272-.271.543-.543c.543-.271.815-.543 1.358-.814 12.485-5.972 23.886-13.843 35.286-21.172 6.785-4.343 13.571-8.957 20.629-13.3.542-.271 1.085-.814 2.171-1.629-.814 0-1.357-.271-1.629-.271-6.243 1.086-12.214 3.257-17.914 6.514-8.957 5.158-18.186 10.315-27.415 15.201-5.971 3.257-12.214 6.243-18.457 9.228-2.714 1.357-5.157 2.443-7.872 3.8-.543.272-1.085.543-1.628.815-.272 0-.815 0-1.086-.272-.271-.271-.271-.814-.271-1.086.271-.542.542-1.085 1.085-1.628 1.357-1.357 2.715-2.714 4.072-4.072 6.786-7.057 12.214-14.928 16.829-23.614.271-.543.271-.815.542-1.357 0 0 0-.272 0-.543-1.357-.272-2.442.814-3.257 1.357-10.314 5.7-20.629 11.672-30.943 17.372-10.043 5.7-20.357 10.857-31.215 15.471-1.085.543-2.171.815-3.257 1.086-.271 0-1.086-.272-1.086-.543-.271-.271-.271-1.086 0-1.357.815-.814 1.629-1.629 2.443-2.443 6.515-5.157 12.758-10.043 19.272-14.929 12.757-9.771 24.7-20.629 36.1-31.757.272-.272.543-.815 1.358-1.629-1.629.543-2.715.814-3.529 1.086-8.957 3.529-17.915 7.057-27.143 10.043-8.686 2.986-17.372 5.7-26.058 8.686-.814.271-1.357.271-2.171.271-.272 0-.814-.271-.814-.814 0-.272 0-.814.271-1.086.814-.543 1.629-1.086 2.714-1.629 8.415-4.071 16.829-8.142 24.972-12.214 12.486-6.243 24.972-12.214 37.186-18.457 1.629-.815 3.257-1.357 4.615-2.715-.815-1.085-1.629-.814-2.443-.814-10.043.272-19.815.271-29.858.543-7.057 0-14.114.271-20.9.271-5.7 0-11.4-.814-17.1-2.171-2.172-.543-4.343-.814-6.515-1.086-.814-.271-1.628-.543-2.443-.814-.271 0-.271-.543-.271-1.086 0-.271.543-.814.814-.814 1.357 0 2.715 0 4.072.271 7.328 1.357 14.657 2.172 21.986 2.715 9.5.542 18.729.271 28.229-1.086 11.128-1.357 22.257-2.714 33.386-4.072 2.986-.271 5.7-.542 8.686-.814 6.785-10.857 14.928-20.629 23.071-30.129-.271-1.086-.814-.814-1.357-.543-16.286 5.7-32.3 12.758-46.415 22.801-1.357.814-2.714 1.9-4.071 2.985-.543.272-.814.815-1.357.815s-1.086 0-1.357-.272c-.272-.271-.272-1.085-.272-1.357.543-.814 1.086-1.357 1.629-2.171 3.528-3.529 7.057-7.329 10.586-10.858 8.142-8.414 16.285-16.557 24.157-24.9714.814-.8143 1.357-1.6286 2.171-2.7143-1.357-.8143-2.442-.2715-3.528 0-9.5 2.1714-18.729 4.8857-27.958 7.8715-19.543 6.5142-38.543 13.5712-57.815 21.1712-1.085.543-2.171.815-3.257 1.086-.543 0-1.086-.271-1.628-.814-.272-.272 0-1.086.271-1.357.543-.543 1.357-1.086 2.171-1.629 18.458-11.943 38.001-21.9858 58.63-29.043 7.057-2.4429 14.114-4.343 21.171-5.9716 1.086-.2714 2.443-.5428 3.529-1.3571-.814 0-1.629-.2715-2.443-.2715-5.971-.2714-11.943-.2714-17.914-.5428-6.786-.2714-13.572-1.0857-20.358-2.7143-1.628-.2715-3.528-1.0858-5.157-1.6286-.543-.2715-1.086-.8143-.814-1.6286.271-.5429.814-1.0857 1.357-1.0857 1.357-.2715 2.443-.2715 3.8-.2715 21.443.2714 42.886-.2714 64.329-1.0857 8.415-.2714 16.829-1.3572 24.972-1.9.543 0 1.357 0 1.9-.8143-1.629-.8143-3.529-.8143-5.157-1.0857-7.329-1.0858-14.929-2.4429-22.258-2.9858-.271 0-.814 0-1.085-.2715-.272-.2714-.815-.8142-.815-1.0857 0-.2714.543-.8142.815-1.0857.543-.2714 1.085-.2714 1.9-.5429 14.114-1.3571 28.229-2.7143 42.6146-3.8 8.9572-.5429 17.9145-.2714 27.1432.8143h1.6286c.2714 0 .5428-.2714.8143-.5429-.8143-.5428-1.6286-1.3571-2.4429-1.6286-3.2572-1.9-6.5144-3.8-9.7716-5.7001-1.0857-.5428-2.4429-1.3571-2.1714-2.7143 0-1.0857 1.3571-1.6286 3.5286-1.3571 5.9715.5428 12.2144 1.3571 18.1859 2.1714 3.8001.5429 7.6001 1.0858 11.4002 1.9 13.5716 2.7144 26.0574 7.8716 38.00044 14.3859 2.44289 1.3572 5.1572 2.9858 7.600087 4.343.542862.2714 1.085754.5428 2.171473 1.0857-.814296-1.3572-1.3571729-2.1714-1.900035-2.9857-5.428645-7.6001-11.128665-15.2003-17.371665-22.2575-.8143-.8143-1.6286-1.6286-2.1714-2.7143-.2715-.5429-.2715-1.3571 0-1.6286.2714-.8143 1.0857-.5428 1.6286-.5428.5428.2714 1.0857.5428 1.9.8142 9.77155 4.8858 19.0002 10.5859 27.1432 17.6431 8.9572 7.6001 17.643 15.7431 24.4288 25.5146 4.343 6.243 8.143 12.4859 11.9431 19.0003 1.0857 1.6284 1.9 3.5284 2.9857 5.4284 1.3572-2.171-1.0857-2.714-1.0857-4.3427.5429-2.1715.5428-2.1715.2714-4.0715-.5428-3.8-1.0857-7.8715-1.6286-11.6716-.2714-1.3571-.5428-2.4428-1.9-2.9857-2.9857-1.6286-5.9715-3.5286-8.6858-5.4287-1.0858-.5428-2.1715-1.0857-3.2572-1.9-.5429-.2714-.8143-1.0857-.8143-1.6286 0-.5428.8143-.8143 1.3572-.8143 1.6285 0 2.9857.2715 4.6143.2715 2.7143.2714 5.4286.8143 8.6858 1.0857-.8143-.8143-1.0857-1.3572-1.3571-1.6286-8.4144-5.4286-17.1002-11.1287-26.3289-15.2002-2.1715-.8143-4.343-1.6286-6.243-2.7143-.8143-.2714-1.6286-.8143-2.1714-1.3572-.2714-.2714-.5429-1.0857-.2714-1.3571.2714-.2715.8143-.8143 1.0857-.8143 1.0857 0 2.1714.2714 3.5286.2714 1.6286.2714 3.5286.5429 5.1572.8143.5428-1.0857-.2715-1.3572-.8143-1.6286-14.3859-8.1429-29.31464-16.0145-44.7863-22.2574-9.5001-4.0715-19.2716-8.1429-29.0432-11.4001-3.8001-1.3572-7.6001-2.4429-11.4001-3.5287-.8143-.2714-1.3572-.5428-2.1715-1.0857-.2714-.2714-.2714-.81429-.2714-1.08572s.5428-.8143.8143-.8143h2.1714c11.6716 2.44292 23.0717 4.88582 34.4719 8.41442 6.5144 1.9 13.0287 3.8 19.2717 5.9715 8.9572 2.7143 17.64302 5.7 26.0574 9.5001.8143.2714 1.6286.5429 2.4429.8143 0-1.0857-.5429-1.3572-.8143-1.6286-10.3144-8.4144-20.90026-16.8288-32.3004-23.88603-2.1715-1.35716-4.3429-2.17144-6.5144-3.25717-1.3571-.8143-2.7143-1.35717-4.0714-2.17147-.5429-.27143-.8143-1.0857-.2715-1.62856.2714-.271435.8143-.542859 1.3572-.542859.5428 0 1.0857.271424 1.3571.542859 7.0573 3.25718 14.11451 6.51434 21.17174 9.77153 16.01446 7.3287 30.67186 16.5573 43.97196 27.9575 6.7858 5.7001 12.7573 12.2144 18.7288 19.0002.8143 1.0858 1.6286 1.9001 2.4429 2.9858 1.0857-.8143.2715-1.3572 0-1.9-3.5286-10.5859-7.8715-20.6289-13.3002-30.4004-.5428-1.0858-1.0857-1.9-1.3571-2.9858 0-.2714 0-1.0857.2714-1.3571.2715-.2714 1.0858-.2714 1.3572 0 .5429.2714 1.0857.8143 1.6286 1.0857 12.4858 11.943 23.886 24.7003 33.1147 39.3576 2.9857 4.6144 5.7 9.5002 8.1429 14.6574.2714.5428.5429 1.6285 1.3572 1.6285v.5429c.2714 0 .2714-.2714.5429-.2714-.2715 0-.2715-.2715-.5429-.2715 0-.8143.5428-1.6285.2714-2.4428-.5429-4.0715-1.3572-8.143-2.1715-12.4859-.2714-1.6286-.2714-2.4429.8143-2.4429 1.0858 0 1.3572.8143 1.6287 1.6286 1.3571 3.5286 2.7143 7.0572 4.0714 10.5858 4.0719 9.7716 7.0569 19.5432 8.6859 29.8572 1.9 10.315 3.257 20.901 3.8 31.486 0 .815 0 1.9.814 2.715.815-1.629 1.357-2.986 1.9-4.343.815-1.629 1.357-3.257 2.172-4.886.543-1.086 1.085-1.9 1.9-2.986.543-.814 1.086-1.357 2.171-1.085 1.086.271 1.357 1.085 1.357 2.171v2.714c-.542 5.429-1.085 10.858-1.9 16.286-1.9 11.4-4.343 22.529-7.871 33.386-1.9 5.972-3.529 11.943-5.429 18.729 1.086-1.628 1.629-2.714 2.172-3.528 5.7-12.486 11.943-24.429 18.728-36.101.815-1.086 1.629-2.443 2.443-3.528.272-.272.815-.272 1.086-.272.271.272.543.543.543.814 0 .815-.272 1.629-.543 2.715-.543 1.357-1.086 2.985-1.357 4.343 0 .271-.271.814-.271 1.357 1.085-.814 1.628-1.629 2.171-2.715 3.8-7.057 8.143-14.114 13.3-20.628 7.329-9.229 15.472-17.643 24.429-24.972 6.786-5.429 13.572-10.857 20.357-16.286.543-.271 1.086-.543 1.629-.814.271 0 .543 0 .543.271.271.272.271.543.271.814-.271.543-.814 1.358-1.357 1.9-2.171 2.715-4.614 5.429-6.786 8.143-.271.543-.543 1.086-1.085 1.9.814-.271 1.085-.271 1.357-.271 11.128-8.414 23.343-15.4716 35.286-22.8002 8.686-5.4287 17.372-11.1288 26.057-16.5574 1.086-.5429 1.9-1.6286 3.258-1.3572.542 1.0858 0 1.9-.543 2.4429-5.972 6.2429-11.943 12.4859-19.272 17.3717-2.171 1.3571-4.343 2.7143-6.243 4.3429-.543.2714-1.086.8142-1.357 1.3571.543 0 .814-.2714 1.357-.2714 1.9-.5429 3.529-1.0857 5.429-1.6286 26.6-8.9573 54.286-13.843 81.972-17.6431 1.357-.2714 2.443-.2714 3.8-.2714.272 0 .815.5429.815.5429 0 .5428-.272 1.0857-.543 1.3571-.543.2715-1.086.5429-1.629.8143-6.786 2.4429-13.572 4.8858-20.357 7.3287-12.215 4.6143-24.429 8.9572-36.915 12.4857-3.8 1.086-7.6 2.172-11.4 3.257-.815.272-1.629.272-1.9 1.358 1.085.271 2.171.542 3.257.542 8.414.815 16.829 2.443 25.243 4.072 11.129 1.9 21.986 3.8 33.115 5.428 2.986.543 5.971 1.086 8.957 1.629.814.271 1.357.543 2.172.814.271.272.542.543.542.815 0 .543-.271 1.085-.814 1.085-.814.272-1.628.543-2.443.543-2.443.272-4.886.543-7.328.543-11.672 0-23.072 0-34.744 0-1.357 0-2.714 0-4.343 0 0 .814-.271 1.357-.271 2.172-1.086 1.085-2.443 1.085-3.8 1.357-7.329 1.628-14.929 2.171-22.258 2.171-10.585.272-21.171 1.629-31.757 3.257-.543 0-1.086.272-1.357.272 0 0-.272.271-.272.543.815.271 1.629.543 2.443.543 4.072.542 8.143 1.357 11.943 1.9 1.357.271 3.529 0 3.529 1.9s-2.172 1.9-3.529 2.171c-4.886 1.086-10.043 1.9-14.929 2.986-3.528.814-7.057 1.357-10.585 1.9-.543 0-1.086.271-2.172.543 1.086 1.085 1.9.814 2.986 1.085 3.8.272 7.6.272 11.4.543 1.629 0 2.443.543 2.443 1.086 0 1.086-.814 1.357-1.629 1.9-1.9.814-3.8 1.629-5.7 2.443-7.6 2.714-15.2 5.429-22.8 7.871-1.086.543-2.443.815-4.343 1.629 1.357.271 1.9.271 2.443.271h9.5c.814 0 1.629.272 2.172.272.271 0 .542 1.086.271 1.357-.543.271-1.357.814-1.9 1.086-2.714.814-5.7 1.9-8.414 2.714-.543.272-1.358.543-1.9 1.086 1.357 2.171 4.342 2.443 4.614 4.886-.543 1.357-1.9 1.357-2.986 1.628-3.528.814-7.057 1.357-10.314 2.172-.815.271-1.629.543-2.715 1.085.272.543.543 1.086.815 1.358.543.814 1.357 1.357 1.9 1.9 1.628 1.9 1.357 2.985-1.357 3.8-.815.271-1.629.271-2.715.542-2.443.543-4.886 1.086-7.328 1.9-.543.272-1.086.543-1.629.543 0 1.086.814 1.086 1.357 1.358.814.542 1.629.814 2.172 1.357.542.271.542 1.357 0 1.628-1.086.543-1.9 1.086-2.986 1.357-3.257 1.086-6.786 2.443-10.043 3.529-.814.271-1.629.543-2.443 1.086.543 1.085.814 1.9 1.086 2.714-.543 1.629-1.9 2.172-3.257 2.714-5.429 2.172-10.043 5.158-14.929 8.415-7.872 5.157-14.658 11.4-20.629 18.457-.543.814-1.357 1.357-1.629 2.714.815-.271 1.357-.542 1.9-.814 5.7-2.986 11.401-5.7 17.101-8.686 3.8-1.9 7.871-3.8 11.671-5.7 12.215-5.971 23.072-13.571 33.658-21.714 11.4-8.686 22.8-17.643 34.2-26.329 6.514-4.886 13.3-9.5 20.358-13.3 20.9-11.672 43.429-16.829 67.315-16.015 8.685.272 17.371.814 25.786 1.9 12.486 1.357 24.7 2.172 37.186 2.715 10.043.542 20.086 1.085 30.129 1.357 3.8.271 7.6.271 11.4.271 1.629 0 2.443.543 2.443 1.086 0 1.086-1.086 1.357-1.9 1.628-2.172.543-4.072 1.086-6.243 1.629-16.829 3.529-33.929 5.429-51.029 5.429-1.357 0-2.715 0-4.072 0-.543 0-.814.271-1.9.814 4.343 1.629 8.143 3.257 12.215 4.886 4.885 1.628 10.043 3.257 14.928 4.614 2.172.543 2.986 1.357 2.715 2.172-.815 1.357-1.9.814-2.986.814-11.672 0-23.343-1.086-35.015-3.257-4.071-.815-8.143-1.629-12.486-2.443-.543.814.272 1.086.543 1.628 4.615 3.529 9.5 5.972 14.386 8.415 8.143 4.071 16.829 7.6 25.515 10.314 1.085.272 2.171.814 3.257 1.357.543.272 1.086.815.814 1.629-.271.271-.814.814-1.086.814-1.628 0-2.985-.271-4.614-.271-7.6-1.086-14.929-2.986-22.257-5.7-8.686-2.986-17.1-6.243-25.515-10.043-2.171-1.086-4.343-1.9-7.057-3.257.543 1.085.814 1.628 1.086 1.9 2.985 3.8 5.428 7.871 7.057 12.214 2.171 5.157 4.343 10.586 6.514 15.743.543 1.086.815 2.443.815 3.8 0 1.086-1.086 1.9-2.172 1.086s-1.9-1.629-2.714-2.443c-2.715-3.257-5.158-6.514-7.872-9.772-1.9-2.171-3.528-4.614-5.428-6.785-.272-.543-.815-.815-1.358-1.358-.542 1.086 0 1.9.272 2.715 2.171 5.428 3.257 10.857 3.257 16.828 0 3.529-.543 7.058-.814 10.586-.272 1.629-.272 2.986-.543 4.615 0 .543-.272 1.357-.543 1.9-.271.814-1.629 1.085-2.171.543-.543-.543-.815-1.086-1.086-1.629-.543-1.086-1.086-1.9-1.629-2.986-5.157-10.314-11.943-19.543-19.543-28.229-.271-.271-.814-.543-1.086-1.085-.814 1.357-.814 2.443-.814 3.8 0 5.971.271 12.214.271 18.186 0 1.085 0 2.171-.271 2.985 0 .272-.543.815-1.086.815-.271 0-.814-.272-1.085-.543-.543-.814-1.086-1.629-1.629-2.715-1.086-1.628-1.9-3.528-2.986-5.157-1.9-3.257-4.071-6.514-6.243-10.314-.271 2.171.543 3.529 1.086 4.886s.814 2.714 1.357 4.071 1.086 2.986 1.629 4.343 1.086 2.714 1.357 4.071c.543 1.358 1.086 2.986 1.357 4.343-.814 1.358-1.628 1.358-2.714.815-3.257-1.629-6.515-3.257-10.043-4.615-7.872-2.985-16.015-5.971-23.886-8.957-4.615-1.628-9.229-2.986-13.843-4.343-.543-.271-.815-.271-1.357-.271 0 1.085.542 1.085.814 1.357 4.614 2.171 9.229 4.343 13.843 6.514 1.357.543 2.443 1.086 3.8 1.9.543.272.814.815 1.086 1.357-.272 1.086-1.086 1.086-1.629 1.086-1.357-.271-2.714-.543-4.071-.814-6.515-1.629-13.029-3.257-19.815-4.614-2.986-.815-6.243-1.086-9.5-1.086.814.543 1.9 1.086 2.714 1.628 5.429 1.9 10.858 3.8 16.015 5.972 1.357.543 2.986 1.086 4.071 1.629 1.086.542.815 2.171-.271 2.442-1.086.272-2.172.543-3.257.815-4.615.271-9.5.271-14.115.271-6.243 0-12.486-.543-18.729-.814-.542 0-.814 0-1.357 0 .272 1.086 1.086 1.086 1.629 1.357 2.986.814 5.971 1.629 8.957 2.443 1.086.271 1.9.543 2.986 1.086.271.271.543.814.543 1.357 0 .271-.543.814-1.086.814-.814 0-1.9 0-2.714 0-4.343-.543-8.686-1.357-13.3-1.9-9.772-1.357-19.272-1.086-29.044.271-2.714.272-5.428 1.086-8.143 1.901-10.043 4.071-19.814 8.142-29.586 12.214-1.628.814-2.986 1.629-4.614 2.714-.272.272-.543.543-1.629 1.357 1.9-.271 3.257-.542 4.343-.542 17.643-2.715 35.286-5.972 53.201-8.415 18.729-2.714 37.729-4.071 56.729-4.071 9.5 0 18.729.814 28.229 1.628 17.643 1.9 35.286 5.157 52.658 9.5 16.286 4.072 32.3 9.229 47.5 16.286 4.343 1.9 8.958 3.8 13.301 5.7.814.272 1.9.815 2.171 1.9-.543 1.086-1.357.815-2.171.815-2.443-.272-4.886-.543-7.329-.815-10.043-.542-20.357-1.357-30.4-1.9-1.086 0-1.9 0-3.258.543 4.343 1.357 8.415 2.715 12.486 4.072 7.872 2.443 15.2 6.243 22.258 10.857 7.6 4.886 14.657 10.586 21.714 16.286 4.343 3.529 8.415 7.329 12.758 10.857.814.814 1.628 1.629 2.442 2.443.272.272 0 .814 0 1.086-.271.271-.814.271-1.085.271-.543-.271-1.086-.543-1.629-.814-8.143-5.157-16.829-9.229-25.786-12.486-1.9-.814-3.8-1.357-5.7-2.171-.543-.272-1.357-.272-2.171-.543-.272.814.271 1.085.542 1.357 4.886 4.343 9.229 9.229 13.301 14.114 6.785 8.143 13.571 16.286 20.357 24.158 4.071 4.886 8.414 9.771 12.486 14.929.814.814 1.628 1.628 2.171 2.714.272.543.272 1.086.272 1.629-1.086.542-1.9.271-2.715-.272-1.357-1.086-2.714-1.9-3.8-2.986-9.771-8.143-20.086-15.2-30.129-22.8-.271-.271-.814-.543-1.357-.814-.543.814 0 1.357.272 1.628 8.143 11.672 16.286 23.072 24.429 34.472 6.514 8.957 12.214 18.458 17.643 28.229.543.814.814 1.9 1.085 2.714 0 .272-.271.815-.542.815-.272.271-.815.271-1.086 0-1.086-.815-1.9-1.629-2.715-2.443-4.071-4.614-7.871-9.229-11.943-14.115-1.085-1.357-2.171-2.442-3.528-3.528 0 .543.271.814.271 1.357 13.029 28.5 20.358 58.358 23.343 89.301.272 2.443.543 5.157.815 7.6v2.172c0 .271-.543.542-.815.814-.271 0-.814 0-1.085-.272-.543-.814-1.086-1.628-1.357-2.442-1.086-2.986-2.172-5.972-3.258-8.958-3.528-10.586-8.143-20.9-12.757-30.943-2.986-6.514-5.971-13.029-8.957-19.272-.543-1.085-1.086-1.9-1.9-3.8-.272 6.515-.272 12.215-.543 17.915-.271 5.971-.543 11.671-1.086 17.643-.543 5.7-.814 11.4-1.628 17.1-.543 5.7-.815 11.4-1.9 17.372-.815-.543-1.358-.814-1.358-1.086-.271-1.086-.271-2.171-.271-3.529 0-13.843-.814-27.686-2.171-41.529-.272-1.357 0-2.714-1.086-4.343-.272 2.986-.543 5.701-.814 8.143-.543 6.515-1.086 13.029-1.901 19.272 0 1.086 0 2.443-1.357 2.986-.814.271-1.357-.543-1.628-2.986-2.172-19.814-3.8-39.358-3.8-59.443 0-2.986 0-5.972-.815-8.958 0 1.9-.271 3.8-.271 5.7-.543 12.758-.271 25.515 0 38.001v10.314c0 .814-.271 1.629-.814 2.714-.815-.542-1.357-.814-1.629-1.085-.543-1.086-.543-2.172-.814-3.257-2.443-14.386-5.157-28.772-7.329-43.158-1.9-11.4-2.443-23.072-2.443-34.472 0-1.357 0-2.443-.543-4.343-1.357 4.072-1.628 8.143-1.9 11.672-1.357 12.486-2.443 24.7-3.528 37.186-.272 1.9-.272 3.8-1.357 5.7-.543-.543-1.358-.814-1.358-1.086-.271-.814-.543-1.9-.543-2.986-1.085-6.514-.542-13.3-.542-19.814.271-7.872.814-15.472 1.085-23.343 0-1.629 0-2.986 0-4.615-1.357.272-1.357 1.358-1.628 2.172-1.357 5.7-2.714 11.4-4.072 17.1-.814 4.072-1.628 8.143-2.443 12.215-.271 1.085-.542 2.171-1.085 3.257-.543 1.085-2.172 1.085-2.715 0-.542-1.086-1.085-2.172-1.085-3.257-.815-4.615-1.9-9.501-2.443-14.386-.543-6.786-1.086-13.572-1.086-20.086-.271-10.043 0-20.358.272-30.401 0-3.257.271-6.243.542-9.5 0-1.085.543-2.171.815-3.257.271-.814.271-1.629-.272-2.714-.271 1.357-.814 2.714-1.085 4.071-2.172 9.229-4.343 18.729-6.243 27.958-2.715 12.214-5.429 24.7-8.415 36.914-.543 2.172-.271 3.8 1.086 5.7 12.486 20.629 23.072 42.072 31.757 64.601 1.629 4.343 2.986 8.686 4.615 13.029 2.443 7.057 4.886 14.114 7.057 21.443.271.543.271 1.086.271 1.357 0 .543-.542.815-.814 1.086-.271 0-.814 0-1.086-.271-.271-.543-.814-1.086-1.085-1.629-1.629-3.257-2.986-6.786-4.615-10.043-4.071-8.686-8.414-17.372-12.486-26.057-.542-1.086-1.085-2.172-1.9-3.529-.814 1.086-.271 2.171-.271 2.986 1.629 10.586 2.714 21.171 2.986 31.757.271 8.686-.272 17.643-1.357 26.329-.815 7.6-1.9 15.2-2.715 22.8 0 .815-.271 1.629-.543 2.715-.271.814-.814 1.357-1.357 1.085-.543-.271-1.086-.814-1.086-1.357-.271-.814-.271-1.628-.271-2.714 0-5.972 0-12.214 0-18.186 0-16.014-.814-31.757-3.8-47.501-.271-1.085-.543-2.171-.814-3.257 0 0-.272 0-.543-.271-.272.814-.543 1.357-.543 2.171-1.9 12.486-4.071 24.972-7.329 36.915-2.171 8.414-4.614 16.557-7.328 24.972-2.443 8.143-5.429 16.557-7.872 24.7-1.086 3.257-2.171 6.243-3.257 9.5-.271.814-.543 1.357-1.086 1.9-.271.543-1.085.815-1.628.815-.815 0-1.086-.815-1.086-1.629 0-1.086 0-1.9.271-2.986.815-5.428 1.629-10.857 2.715-16.286 3.8-21.986 5.7-44.243 5.7-66.501 0-3.8 0-7.871 0-11.671-1.086-.272-1.086.271-1.086.814-.271.814-.543 1.357-.543 2.172-2.714 10.585-5.7 21.443-8.414 32.029-2.715 10.585-6.243 20.9-10.043 31.214-.272.815-.543 1.629-1.086 2.443-.271.272-.814.543-1.357.543-.814 0-1.086-.543-1.086-1.357 0-1.086.272-2.172.272-3.529.814-5.157 1.628-10.043 2.442-14.929 1.358-8.957 2.172-17.914 2.443-26.871.272-10.043.272-20.086.543-30.129 0-1.086 0-2.172-.543-3.529-.271.543-.542 1.086-.542 1.629-2.443 8.414-4.615 16.829-7.058 25.514-2.985 9.772-5.971 19.815-9.228 29.586-.543 1.629-1.086 2.986-1.9 4.615-.272.543-1.086.814-1.629.814s-1.086-.814-1.086-1.357c0-1.357 0-2.714 0-4.072.815-7.328 1.629-14.385 2.443-21.714.814-7.6 1.357-15.2 2.172-22.8.814-6.515 1.628-13.029 2.714-19.544 1.357-7.6 2.986-15.2 4.614-22.8-.814-.543-1.085.272-1.357.543-5.7 9.229-10.857 18.729-15.2 28.772-2.171 5.157-4.072 10.043-6.243 15.2-.543 1.086-1.086 2.443-1.629 3.529-.542 1.357-1.628 1.9-2.442 1.357-1.086-.272-1.358-1.357-1.358-2.172 0-1.357 0-2.714.272-4.071 1.086-8.415 3.528-16.286 6.514-24.429 2.714-7.329 5.972-14.657 9.5-21.715.272-.542.543-1.357.815-2.714-1.358.814-1.9 1.086-2.715 1.629-4.343 3.528-8.143 7.871-11.128 12.486-4.615 6.785-8.415 14.114-12.215 21.443-.543 1.085-1.086 2.171-1.628 3.528-.543.815-.815 1.629-1.358 2.172-.271.543-1.085.814-1.628.814-.815 0-1.357-.814-1.357-1.357-.272-1.086-.543-2.172-.272-3.529.272-3.8.543-7.328 1.357-10.857 2.172-10.857 5.7-21.172 10.315-30.943 3.257-7.057 6.786-14.115 10.314-21.172.272-.814.543-1.357.814-2.171 0-.272.272-.543.272-.543h-.272v.543c-.542-.272-.814-.272-1.357 0-1.085 1.085-1.9 1.9-2.985 2.985-11.672 12.486-21.444 26.601-29.315 41.801-1.629 2.986-3.257 5.971-4.886 8.957-.543 1.086-1.628 2.172-2.443 3.257-.814.815-2.171.272-2.443-.814-.271-1.357-.271-2.714 0-4.071.815-4.615 2.443-8.958 4.343-13.301 4.343-9.771 9.772-19.271 15.743-28.229.543-1.085 1.357-2.171 2.443-3.8-1.357.543-1.9.815-2.171 1.086-2.172 1.9-4.343 4.072-6.243 6.243-6.515 7.6-11.672 16.286-15.743 25.515-1.9 4.885-4.072 9.5-6.243 14.386-.543 1.085-1.086 2.443-1.9 3.257-.272.543-1.086.814-1.629.543-.543 0-1.086-.815-1.086-1.358 0-1.9 0-3.8 0-5.7.815-7.6 2.443-15.2 5.158-22.528 5.7-15.743 9.228-32.029 11.4-48.587.543-3.528.543-6.786.814-10.314 0-1.086 0-1.9-.543-2.986-.271.543-.543 1.357-.814 1.9-2.172 6.786-4.071 13.3-6.243 20.086-1.629 5.157-3.257 10.586-4.886 15.743-.543 1.357-1.085 2.443-1.9 3.8-.543 1.086-2.171.814-2.443-.271-.271-1.086-.543-2.172-.543-3.257.272-4.072.272-8.143.543-12.215.543-7.871 1.358-16.014 1.086-23.886 0-1.629.271-3.257-.814-5.157-1.629 4.071-2.986 7.6-4.615 11.4-2.171 5.157-4.071 10.043-6.243 15.2-.542 1.086-1.085 1.9-1.9 2.715-.542.542-1.628.271-1.9-.543-.271-.815-.271-1.629-.271-2.172.271-2.985.543-5.7.814-8.686.815-8.685 1.357-17.371 2.172-25.786 0-.542 0-1.085-.272-2.714-.814 1.629-1.085 2.443-1.628 3.257-.543.815-.815 1.9-1.086 2.715-1.086 2.442-2.171 5.157-3.529 7.6-.814 1.9-1.628 2.443-2.714 2.171-1.357-.543-1.629-1.629-1.629-2.714-.271-1.9-.271-4.072-.271-5.972 0-5.7.271-11.4.271-17.1 0-1.086 0-1.9-.271-3.257-1.629 1.9-1.629 1.628-2.443 3.8-1.086 3.529-2.171 7.057-3.257 10.586-1.086 3.257-2.171 6.786-3.257 10.043-.272.814-.543 1.357-1.086 1.9-.814 1.085-2.714 1.086-2.986-.272-.271-1.085-.543-2.443-.543-3.8.272-3.8.543-7.6.815-11.4 1.085-8.957 2.986-17.643 5.428-26.057.272-.815.543-1.629.543-2.443-.814-.543-1.085 0-1.357.543-2.443 3.257-3.8 7.057-5.157 11.128-.814 2.172-1.357 4.072-2.172 5.972-.271.814-.814 1.357-1.628 1.086-.814 0-1.357-.815-1.629-1.629-.543-1.9-.543-3.8 0-5.7.815-3.529 1.9-6.786 2.986-10.314.271-.543.271-1.086 0-1.901-.543.543-1.086 1.086-1.357 1.629-1.9 2.714-3.529 5.429-5.429 8.143-.543.814-1.085 1.9-2.443 1.629-1.357 0-1.9-1.357-2.171-2.172-.543-1.357-1.086-2.986-1.629-4.343-.814-2.171-1.9-4.343-3.528-6.514-2.443 1.629-5.158 1.629-7.872 1.9-1.357 0-2.714 0-4.071.271-1.086 0-1.9.272-2.715.543-.271 1.086.543 1.357.815 1.629 1.628 1.086 3.257 2.171 4.885 2.986 4.886 3.257 8.958 7.057 12.758 11.4 1.085 1.357 1.9 2.714 2.443 4.343.542 1.628-.543 2.714-2.172 2.714-.814 0-1.628-.271-2.443-.814-2.714-1.358-5.428-2.715-8.143-4.072-1.085-.543-2.171-.814-3.8-1.628.543 1.357.815 2.171 1.357 2.985 3.258 5.158 6.786 10.586 10.043 15.743 1.9 2.986 3.529 5.972 4.886 8.958.543 1.085.814 2.171.814 3.257.272.814-.814 1.628-1.357 1.357-1.085-.271-2.171-.814-3.257-1.086-2.443-.814-4.886-2.171-7.871-2.443v1.9c.814 2.715 1.628 5.429 2.442 8.143 1.086 3.8 2.443 7.872 3.529 11.672 2.172 7.329 2.986 14.929 2.714 22.529 0 .814-.271 1.628-.542 2.443-.272.814-1.629.814-1.9.271-.543-.543-.815-1.357-1.086-1.9-.814-1.9-1.629-3.8-2.443-5.7-1.629-3.529-3.8-6.786-5.972-10.043-1.085.814-.814 1.629-.814 2.443.543 5.429 1.086 10.857 1.9 16.286 1.357 8.686 2.714 17.372 4.072 26.057 2.443 13.3 3.257 26.601 4.343 39.901 0 .814 0 1.628-.272 2.714 0 .272-.543.272-.814.543-.272 0-.543 0-.543-.271-.271-.815-.543-1.358-.814-2.172-.272-2.171-.543-4.614-.815-6.786-.543-5.971-1.357-11.943-2.171-17.914-1.086-7.6-2.714-14.657-6.243-21.443-1.086-2.172-2.172-4.072-3.529-5.972-.271-.543-1.085-1.086-1.9-1.9v6.515c0 14.114-.271 27.957 0 42.071 0 7.872.543 16.015.543 23.886 0 2.172-.271 4.615-.271 6.786 0 .543 0 1.086-.272 1.357-.271.272-.543.543-.814.543s-.814-.271-.814-.543c-.272-1.085-.543-2.171-.543-3.257-.543-5.971-.814-11.943-1.357-17.914-.815-9.229-1.9-18.458-3.8-27.686-.272-1.357-.815-2.715-1.086-4.343-1.086 1.085-1.086 2.171-1.086 2.986-.271 5.428-.271 10.585-.543 16.014-.814 15.2-1.9 30.4-2.714 45.601 0 1.628-.543 3.528-1.086 5.157 0 .271-.814.814-1.085.814-.272 0-1.086-.543-1.086-.814-.272-1.357-.272-2.715-.543-4.072-.271-5.157-.543-10.043-1.086-15.2 0-.814-.271-1.357-.814-2.171 0 .543-.272 1.085-.272 1.628-1.628 13.843-3.257 27.686-6.7853 41.529-2.4429 9.229-5.9715 18.186-10.043 26.872-.5429.814-1.0857 1.9-1.6286 2.443-.2714.271-.8143.271-1.3572.271-.2714 0-.5428-.542-.5428-.814 0-1.086.2714-2.171.2714-3.257 1.6286-11.4 1.6286-22.8.2714-34.201 0-.542-.2714-.814-.5428-1.628-1.0857 1.086-1.3572 2.171-1.9 3.257-1.6286 4.614-3.2572 9.229-5.1572 13.843-6.5144 16.286-14.1145 31.758-24.1575 46.144-.8143 1.357-1.9 2.442-2.7143 3.528-.2714.272-.8143.543-1.3572.814-.5428.272-1.6285-.271-1.6285-1.085 0-.815.2714-1.629.2714-2.172.8143-2.443 1.3572-4.886 2.1714-7.328 2.7144-8.143 4.8858-16.558 5.9715-25.244.5429-3.8.8143-7.328.5429-11.128 0-1.086-.2714-1.9-.5429-2.715-1.0857-.271-1.3571.543-1.3571 1.086-2.1715 5.7-4.0715 11.129-6.5144 16.829-4.8857 12.486-10.3144 24.7-17.1002 36.1-5.4286 9.5-10.5859 19.272-15.7431 28.772-2.1714 3.529-4.3428 7.057-6.78575 10.586-.8143 1.086-1.6286 1.9-2.71433 2.714-.27142.272-.81427 0-1.08569 0-.27145-.271-.54288-.543-.54288-.814.27143-1.086.81427-2.443 1.35715-3.529 2.17145-5.157 4.8858-10.043 6.7858-15.2 1.6286-4.071 3.2572-8.414 4.3429-12.486 1.9-5.7 3.2572-11.671 5.1572-17.643.8143-2.985 2.1715-5.971 2.9858-8.957.2714-.543.2714-1.086.5428-2.443-.8143.814-1.0857 1.086-1.0857 1.357-5.4286 8.686-10.8573 17.643-16.2859 26.329-1.08572 1.9-2.17145 4.072-3.25717 5.972-.27145.543-.81433 1.085-1.08575 1.357-.27146.271-.8143 0-1.08573 0-.27142 0-.54288-.543-.27145-.543.27145-1.086.54291-2.443 1.08575-3.529 1.6286-4.071 3.5286-7.871 5.1572-11.943 2.98575-7.328 5.97145-14.657 9.22865-21.714 4.0715-9.772 8.9573-19.272 14.3859-28.229.2715-.543.5429-1.086 1.3572-2.443-1.0857.814-1.6286 1.086-2.1715 1.357-6.2429 5.7-12.4858 11.672-18.7288 17.372-2.4429 2.443-4.88575 5.157-7.32862 7.871-.8143.815-1.35718 1.358-2.17148 2.172-.27142.271-1.08573 0-1.35715-.272-.27142 0-.54285-.814-.27142-1.085.54284-1.086.81427-2.172 1.62857-2.986 3.2572-4.886 6.51437-10.043 10.3144-14.657 9.7716-13.029 20.086-25.786 30.129-38.544 4.3429-5.428 8.6858-11.128 12.4858-16.829 2.1715-3.257 4.0715-6.785 5.9715-10.043.2715-.542.2715-.814.5429-1.628-1.3571 0-1.9 1.086-2.4429 1.628-5.4286 5.701-10.8573 11.401-16.5573 17.101-4.0715 4.343-8.4144 8.414-13.3002 11.943-1.6286 1.357-3.2572 2.443-4.8858 3.528-.5428.272-1.0857.815-1.6286.815-.5428 0-1.0857 0-1.3571-.272-.2714-.271-.2715-1.086-.2715-1.357.2715-.543.5429-1.086 1.0858-1.629 1.0857-1.357 2.1714-2.714 3.5286-4.071 7.0572-7.872 12.7573-16.557 17.6431-25.786 2.9857-5.429 5.7-11.129 8.4144-16.557.2714-.543.5428-1.086.8143-2.443-1.0858.543-1.6286.814-1.9001 1.357-4.6143 4.071-9.5001 8.143-14.1144 12.214-8.4144 7.329-16.5574 15.2-24.4289 23.072-3.2572 3.257-6.7858 6.514-10.31442 9.772-.54285.542-1.35718.814-1.90003 1.085-.542876.272-1.357146-.543-1.0857229-1.085.2714539-.543.5428769-1.086.8143009-1.629 5.157222-8.414 10.314372-16.829 16.557372-24.7 10.5858-13.572 20.0859-27.958 28.5003-42.887.5429-1.085 1.0858-2.171 1.6286-3.257 0 0 0-.271-.2714-.543-.8143 1.086-1.9 1.9-2.7143 2.986-3.8001 4.343-7.3287 8.957-11.1287 13.029-3.5286 4.071-7.3287 7.871-10.8573 11.671-.8143.815-1.6286 1.629-2.7143 2.172-.2715.271-1.0858.271-1.3572 0-.5429-.272-.8143-1.086-.5429-1.629.5429-1.085 1.0858-1.9 1.6286-2.985 3.5286-5.701 6.7858-11.401 10.5859-16.829 5.9715-8.958 11.1287-18.186 16.0145-27.686 2.9857-5.7 5.9715-11.672 9.5001-17.101.2714-.542.5429-1.357.8143-2.171.2714-.271.5428-.271.5428-.543 0 0-.2714 0-.2714-.271 0 .271-.2714.543-.2714.814-1.0857-.271-1.3572.543-1.9 1.086-4.0715 4.614-8.143 8.957-12.2145 13.571-3.2572 3.8-5.9715 7.872-9.2287 11.672-2.7143 3.257-5.4286 6.243-8.4144 9.229-2.1714 2.171-4.8857 4.071-7.6001 5.7-.5428.271-1.3571.543-2.1714.814-.5429 0-1.0857-.271-1.3572-.543-.2714-.271-.2714-1.086 0-1.357.2715-.543.5429-1.086 1.0857-1.629 1.0858-1.357 2.1715-2.714 3.5287-4.071 6.5143-7.057 11.6715-14.929 16.2859-23.343 5.7001-10.586 12.4859-20.358 19.8145-29.858.8143-1.086 1.6286-2.171 2.4429-3.257 0-.271.2714-.543.2714-.814-.5428-.543-.8143 0-1.0857.271-.5428.272-.8143.543-1.0857 1.086-8.6858 7.329-17.6431 14.114-27.1432 20.629-4.0715 2.714-8.4144 5.428-13.0288 7.328-1.0857.543-2.4428.815-3.5285 1.086-.8144.271-1.35723-.814-1.0858-1.629.5429-.542.8143-1.357 1.3572-1.628 2.1714-2.172 4.6143-4.072 6.7858-5.972 5.1572-4.343 10.043-8.957 14.3859-14.114 4.6143-5.429 9.2287-10.857 13.843-16.286.5429-.543 1.3572-1.086 1.0857-2.443-1.0857.814-2.1714 1.629-2.9857 2.172-4.8858 3.528-10.043 6.785-15.7431 9.228-1.6286.543-3.2572 1.086-4.6143 1.357-.2715 0-1.0858-.271-1.3572-.542-.2714-.272-.2714-1.086 0-1.358.5429-.814 1.0857-1.357 1.6286-1.9 3.5286-3.257 6.7858-6.514 10.3144-9.771 6.5144-5.972 12.7573-12.486 18.7288-19 5.4287-6.243 10.8573-11.943 16.2859-18.186 2.4429-2.715 4.6144-5.7 7.0573-8.415.5429-.814 1.3572-1.628 1.3572-2.985-1.3572 1.085-2.1715 1.628-3.2573 2.442-7.3286 5.7-14.9287 11.672-22.5288 17.101-6.7858 4.885-13.5716 9.5-21.1717 13.028-2.1715 1.086-4.3429 1.9-6.7858 2.986-.5429.272-1.3572.272-1.9.272-.2714 0-.8143-.272-.8143-.543-.2714-.272-.2714-.815 0-1.086.5428-.814 1.3571-1.629 2.1714-2.171 3.2572-2.715 6.5144-5.158 9.7716-7.872 5.9715-4.886 11.6716-9.772 17.3717-14.929 2.9857-2.714 5.7-5.971 8.6858-9.228.2714-.272.5428-.815.8143-1.358-1.0858-.271-1.6286.272-2.1715.543-4.8858 2.715-10.043 5.7-14.9288 8.415-3.5286 1.9-7.0572 3.257-11.1287 4.343-1.0857.271-1.9.271-2.9857.542-.8143 0-1.3572-1.085-.8143-1.628.2714-.272.5429-.543.8143-.815.5429-.542 1.3571-1.085 2.1714-1.628 10.5859-7.329 20.086-16.015 29.8576-24.429 1.6286-1.357 3.2571-2.986 4.8857-4.614-1.0857-.543-1.6286.271-2.1714.543-3.5286 2.171-7.3287 4.342-10.8573 6.243-1.6286.814-3.2572 1.357-4.8858 2.171-.5428.271-1.0857 0-1.3571 0-.2715 0-.5429-.271-.8143-.543-.5429-1.628 0-2.986.2714-4.614.8143-2.443 1.3571-4.886 2.1714-7.329.2715-.814.5429-1.628.8143-2.986-.8143.272-1.0857.543-1.3571.815-5.9715 6.514-11.943 13.028-16.2859 21.171-2.4429 4.886-5.1573 9.772-7.6001 14.386-.5429 1.086-1.0858 1.9-1.9001 2.986-.2714.271-.8142.271-1.0857.271-.2714 0-.8143-.542-.8143-.814 0-.814 0-1.9 0-2.714.8143-4.343 1.6286-8.415 2.1715-12.758 0-.542 0-1.085.2714-1.357-.8143-.543-1.0857-.271-1.3572.272-10.0429 11.128-19.0002 23.071-24.97168 36.643-1.35717 2.986-2.44289 6.243-3.52861 9.229-.27144.814-.54288 1.357-.54288 2.171-.27142.543-.54286 1.086-1.35716 1.086-.54286 0-1.08567-.814-.81429-1.9 0-.814.27143-1.629.54286-2.172 1.08573-7.328 2.17147-14.928 3.52863-22.257 0-.271 0-.543 0-.814-.8143-.272-1.08572.543-1.35716.814-7.87151 11.129-14.92881 22.529-20.62881 35.286-2.4429 5.972-4.8858 11.672-5.7001 18.186-.2714 1.629-.8143 2.443-1.6286 2.172-1.0857-.543-.8143-1.358-.8143-2.443 1.0857-8.958 2.1715-17.915 3.8001-26.872.5428-2.714 1.0857-5.429 1.6285-8.143-1.0857-.271-1.3571.543-1.9 1.086-8.6858 9.771-15.4716 20.357-21.9859 31.486-2.1715 4.071-4.6144 7.871-7.0573 11.671-1.6286 2.443-3.5286 4.886-5.4286 7.329-.5429.543-1.3572 1.357-1.9001 1.629-.2714.271-1.0857.271-1.3571 0-.2714-.272-.5429-.815-.5429-1.358.2715-1.085.5429-2.171 1.0858-3.257 2.9857-7.871 6.2429-15.743 9.2286-23.886.2715-.543.2715-1.085.5429-1.9-1.9 1.086-2.4429 2.715-3.2572 4.072-8.4144 13.571-17.3716 26.6-27.1432 39.086-4.8857 6.514-10.0429 13.029-15.7429 18.729-2.986 3.257-6.514 6.243-9.772 9.228-.814.543-1.628 1.086-2.443 1.629-.542.271-1.628-.543-1.357-1.357.272-.814.543-1.629 1.086-2.443 1.9-3.257 4.071-6.786 6.243-10.043 11.943-19.543 24.1574-39.358 35.0147-59.444 2.9857-5.428 5.7-10.857 8.6858-16.557-1.9.543-2.4429 1.9-2.9858 2.714-6.7858 9.5-13.5716 18.729-20.0859 28.229-8.9568 13.029-17.9148 26.058-26.0578 39.358-1.085 1.629-2.171 3.529-3.257 5.157-.271.543-.814 1.357-1.357 1.9-.271.272-1.086.543-1.357.272-.272-.272-.814-.815-.543-1.086.271-1.086.543-1.9.814-2.986 2.172-6.514 4.615-13.3 6.786-19.814.543-1.9 1.086-3.801 1.357-5.429 0-.543 0-1.086 0-2.714-1.086 1.628-1.9 2.714-2.443 3.8-9.771 16.014-19.814 32.029-30.672 47.5-2.442 3.257-4.885 6.515-7.6 9.5-1.357 1.629-2.442 2.172-2.985 1.358-1.086-1.086-.272-2.172 0-3.258.814-2.714 1.9-5.157 2.985-7.871 1.9-5.429 5.972-20.358 7.058-26.601-1.086 0-1.358.815-1.9 1.629-7.058 10.314-13.572 20.629-19.544 31.486-7.057 12.486-14.114 24.972-21.443 37.458-.542 1.086-1.357 2.171-2.171 2.986-.272.271-.814.271-1.086.271-.271 0-.814-.543-.814-.814 0-1.086 0-1.9.271-2.986 1.357-4.614 2.715-8.957 4.343-13.572 1.357-4.343 2.986-8.686 4.343-13.028 3.529-11.129 8.143-21.986 13.3-32.572 3.257-6.515 6.243-13.029 9.5-19.543.272-.543.543-1.086.272-1.9-.814.542-1.357 1.357-2.172 1.9-4.614 5.157-8.957 10.314-13.3 15.743-7.6 9.228-15.2 18.729-22.8 28.229-.543.814-1.086 1.357-1.629 1.9-.271.271-1.085.271-1.628.271-.543-1.628.271-2.714.814-3.8 3.257-5.429 6.243-11.129 9.5-16.557 1.629-2.986 3.529-5.972 5.157-8.958 5.429-9.5 11.943-18.185 18.729-26.6 2.715-3.257 5.157-6.514 7.6-10.043 2.172-3.528 2.443-4.614 2.986-5.157 0-.272.271-.272.543-.272l-.272-.271c-.271.271-.271.271-.271.543zm221.76-112.916c.2714 0 .8143.272 1.0857 0 .8143-.814 1.6285-1.9 2.4429-2.986 5.4286-7.057 10.3144-14.657 14.3858-22.257.5429-1.086 1.0858-1.9 1.9001-2.986 0-.543.2714-1.085.2714-1.628h-.2714v1.628c-.5429 0-1.0858 0-1.3572.272-.8143 1.085-1.9 2.443-2.7143 3.8-5.1572 8.143-10.3144 16.286-15.743 24.157 0 .543-.8143.815 0 1.9 0-.814 0-1.357 0-1.9zm27.686-48.586c0 .271 0 .271-.2714.543h.5428c-.2714-.272-.2714-.272-.2714-.543 0-1.086.2714-2.443.2714-3.8-.5428-15.2-2.4428-30.129-5.7-44.786-.8143-3.8-2.4429-7.6-3.5287-11.129-.2714-1.086-.8143-2.172-1.0857-3.257 0-.543.2714-1.357.8143-1.629.5429-.543 1.3572 0 1.6286.272 1.3572 1.357 2.4429 2.714 3.8 4.342-.5428-3.528-6.2429-18.728-10.0429-26.057-2.7144-5.7-4.8858-8.957-7.3287-11.4.2715 1.086.5429 1.9.5429 2.443 3.5286 11.943 6.2429 24.429 8.4144 36.643 2.1715 12.757 4.6143 25.515 7.0572 38.272 1.0857 5.971 2.7143 12.214 4.0715 18.186 0 .814 0 1.628 1.0857 1.9zm155.531 45.6c.271-.271.271-.271.542-.542v-.272c-.271.272-.271.543-.542.814.814 5.972 1.9 11.672 2.714 17.644v1.9c-.272 1.628-1.629 2.171-2.714 1.357-1.086-.815-1.901-1.9-2.715-2.986-5.428-7.057-10.043-14.386-14.386-21.986-1.628-2.986-3.528-6.243-5.157-9.229-.271-.271-.271-1.085-1.357-.271 1.357 3.528 2.986 7.057 4.343 10.586.543 1.085.814 2.171 1.086 3.257 0 .271 0 1.086-.272 1.357-.543.543-1.086.543-1.628.272-.815-.815-1.9-1.358-2.715-2.172-3.257-3.529-6.514-7.057-9.771-10.857-.543-.543-.815-1.629-2.172-1.629.272.814.543 1.357 1.086 2.172 1.357 2.443 2.986 4.885 4.343 7.6.543 1.085 1.086 2.171 1.357 2.985 0 .272 0 1.086-.271 1.358-.272.271-1.086.271-1.358 0-.814-.543-1.9-1.086-2.442-1.629-1.9-1.629-3.801-3.529-5.429-5.157-5.972-6.786-11.943-13.3-18.186-20.086-.543-.543-.543-1.357-1.9-1.086.814 1.357 1.629 2.443 2.171 3.529.543.814 1.086 1.628.272 2.443-.543.543-1.357.814-2.714 0-1.358-.543-2.443-1.358-3.529-2.172-3.257-2.171-6.514-4.343-9.772-6.514-.542-.272-.814-1.086-1.628-.272.814 1.9 1.9 3.529 2.986 5.158.542.814 1.085 1.628 1.628 2.714.272.543 0 1.357-.271 1.629-.272.271-1.086.271-1.629 0-.814-.272-1.629-.815-2.171-1.358-1.358-1.085-2.715-1.9-4.072-2.985-3.257-2.715-6.514-5.158-9.771-7.872-.272-.271-.815-1.086-1.629-.543 1.357 4.072 4.886 6.786 6.514 10.858 8.686 3.8 17.101 7.871 25.244 12.485 15.471 8.415 29.857 18.458 43.7 29.315 18.186 14.386 35.286 30.4 50.215 48.315 5.971 7.329 11.672 14.929 17.1 22.8.543.814 1.086 1.357 1.9 2.443.272-.814.272-1.086.272-1.629-.543-9.771-.815-19.814-1.358-29.586-.271-5.157-.542-10.314-1.085-15.471 0-.815 0-1.629-.815-1.9.272-.543.272-.815.543-1.357h-.271c0 .542 0 .814-.272 1.357 0 2.443.001 5.157-.271 7.6 0 .814-.271 1.9-.543 2.714 0 .272-.543.814-1.086.814-.271 0-1.085-.271-1.357-.542-.543-1.086-1.357-2.443-1.628-3.8-2.443-7.872-4.343-15.743-4.886-23.886 0-1.629-.272-3.258-.543-4.886 0-.543-.271-.815-.543-1.357 0-.272 0-.543 0-.543v.543c-.271 1.357-.271 2.714-.543 4.071-.271 7.872-.271 15.743-.543 23.615 0 1.628 0 2.985-.271 4.614-.271 1.357-1.9 1.9-2.986.814-.814-1.085-1.628-2.171-2.171-3.528-1.086-2.986-1.9-5.972-2.443-9.229-.814-4.614-1.357-9.5-2.172-14.386 0-.543-.271-1.086-.542-1.9-.543.814-.543 1.9-.543 2.714 0 5.701-.272 11.401-.272 17.101 0 1.085-.271 1.9-.543 2.985-.271.815-1.628 1.086-2.171.272-.543-1.086-1.086-2.172-1.357-3.257-1.086-4.343-2.172-8.958-3.257-13.301-1.9-9.771-3.8-19.543-5.972-29.043-.271-.814-.543-1.9-.814-2.714-.543.543-.543 1.357-.543 1.9.271 5.7.271 11.672.543 17.372 0 1.9 0 3.528-.272 5.428 0 .543-.814 1.357-1.357 1.629-.814.543-1.9 0-2.171-.815-.814-1.357-1.629-2.442-2.443-3.8-2.986-5.428-5.429-11.128-7.6-17.1-.543-1.357-1.086-2.714-1.629-3.8 0-1.085-.543-1.086-1.085-1.086zm-225.8319-138.158c-.2714-.272-.5428-.543-.8143-.543-.5428 0-1.3571-.272-1.9-.272-17.10021-1.628-33.929-1.628-51.0292.543-10.043 1.086-19.8145 3.257-29.5861 5.429-1.0857.271-1.9.271-2.9857.543-.8143 0-1.3572-1.086-.8143-1.629.5428-.814 1.3571-1.628 2.1714-2.171 4.6144-3.8 9.5001-7.329 14.1145-11.129 6.2429-4.886 12.4859-9.5 18.7288-14.386.5429-.543 1.0857-1.086 1.6286-1.629-1.6286-.542-2.4429 0-3.5286.272-16.2859 3.8-31.4861 10.043-46.1435 18.186-3.2571 1.628-6.2429 3.528-9.5001 5.157-.8143.543-1.9.814-2.7143 1.086-.2714 0-1.0857-.272-1.3571-.543-.2715-.272-.2715-1.086 0-1.357.5428-.815 1.0857-1.357 1.9-1.9 3.5286-3.257 6.7858-6.515 10.3144-9.772 4.6143-4.343 8.9572-8.957 13.5716-13.571.2714-.272 1.0857-.815.8143-1.629-3.2572.271-13.5716 2.986-21.1717 5.7-12.4858 4.343-24.1578 10.586-35.5578 17.372-.271.271-.814.543-1.357 1.357 1.357.271 2.443.543 3.257.543 7.329 1.085 14.929 2.443 21.986 4.614 8.686 2.714 17.3719 5.7 25.7862 9.229 16.0145 6.514 31.7576 13.843 46.6864 22.529 14.9287 8.685 29.586028 17.643 44.5148 26.6 16.0145 9.771 32.3004 19.543 48.5863 28.5 1.3572.815 2.7143 1.357 3.8001 2.172-.5429-1.086-1.3572-2.172-2.1715-2.715-2.7143-2.171-5.4286-4.343-8.1429-6.514-1.3572-1.086-3.2572-1.9-2.7144-3.8.5429-1.9 2.4429-1.629 3.8001-1.9 1.0857-.271 2.1714-.543 3.8-1.086-1.3571-.814-2.4429-1.357-3.2572-1.9-2.9857-1.628-5.9715-3.257-8.9572-4.886-1.0858-.542-2.4429-1.085-2.4429-2.714.2714-1.9 1.9-1.9 3.2572-2.171 2.9857-.543 6.2429-1.086 9.2287-1.9.5428 0 1.3571-.543 2.4428-.815-1.0857-.542-1.9-1.085-2.4428-1.085-2.1715-.815-4.0715-1.358-6.243-2.172-5.9715-2.171-12.2144-3.528-18.7288-3.8-1.3571 0-2.7143-.271-4.0715-.543-1.0857-.271-1.9-.543-2.4429-1.628-.2714-.815.2715-1.629 1.6286-2.443.5429-.272 1.0858-.543 1.6286-.815 4.6144-1.9 9.2287-3.8 13.5716-5.7 1.0857-.542 2.4429-.814 3.5286-1.357.5429-.271.8144-.814 1.6287-1.357-2.4429-1.086-4.6144-2.171-7.0573-2.986-5.1572-1.9-10.3144-3.8-15.7431-4.614-8.4144-1.357-16.8287-1.9-25.51455-1.629-3.257185 0-6.24293 0-9.50012 0-1.35715 0-2.44289-.814-2.17146-1.628 0-1.086.8143-1.629 1.62858-1.9 2.71433-1.357 5.42864-2.443 8.4144-3.529 8.14295-2.986 16.01445-5.7 24.15745-8.414.8143-.272 1.9-.272 2.9857-1.357-.8143-.272-1.3571-.272-1.9-.543-1.3571 0-2.4429-.272-3.8-.272-17.10022-.814-34.2004-.271-51.0292 4.343-.5429 0-1.0857 0-1.3572 0-.2714 0-.5429-.271-.5429-.543 0-.271.0001-.542.2715-.814.8143-.543 1.6286-.814 2.4429-1.086 13.3001-4.343 26.6003-8.414 40.4433-11.4 1.3572-.271 2.9858-.814 4.3429-1.085.5429 0 1.0858-.272 1.6286-.543zm-122.1441-35.829c-.272-.272-.272-.272-.543-.272-.272 0-.814 0-1.086.272-12.757 4.885-25.243 10.585-36.915 17.643-4.885 2.985-9.5 6.514-13.843 10.314-.271.272-.542.814-1.085 1.629.814 0 1.357.271 1.9.271 5.7 0 11.4 0 17.1.272 2.171 0 3.529-.543 5.157-1.9 9.5-8.958 19-17.644 28.229-26.601.271-.814.543-1.086 1.086-1.628zm153.0874-17.9149c-.8143.2714-.8143.8143-.5429 1.3572 1.0857 3.5286 2.1715 7.3286 3.2572 10.8572.5429 1.6286 1.6286 2.4429 2.9857 2.9858 3.8001 1.0857 7.6002 2.4427 11.1288 3.7997 2.1714.815 4.6143 1.629 6.7857 2.443.2715 0 .8143.543 1.3572-.271-.2714-.272-.2714-.543-.5429-.814-7.8715-7.0577-16.0144-14.1149-24.4288-20.3579zm28.7717 51.5719c.2715-.271.2715-.271.5429-.543-1.9-2.985-3.8-5.971-5.9715-8.957-4.0715-5.971-8.4144-11.672-13.5716-16.829-.5428-.543-.8143-1.357-2.1714-1.085 1.3571 3.8 3.2572 7.328 4.6143 10.857 1.6286 3.528 2.9858 7.329 4.6144 11.129 1.3571-1.086 2.4429-1.086 3.5286-.272 1.6286 1.357 3.5286 2.443 5.4286 3.8 1.0858.814 1.9 1.357 2.9857 1.9zm55.9149 108.844c0-.542 0-.814-.271-.814-.272-.271-.543-.543-.815-.543-7.328-3.528-14.928-5.428-23.071-6.243-4.072-.543-8.143-.543-12.2148 0-.5428 0-1.0857.272-2.4428.815 13.8426 1.628 26.3286 4.071 38.8146 6.785zm3.257-4.885c1.357 2.442 2.986 4.071 4.615 6.243.271.542 1.357.814 1.9 1.085 2.714.815 5.428 1.629 8.143 2.443.271 0 .814.543 1.357 0-3.529-3.257-13.3-8.957-16.015-9.771z"/><path d="m-18.2414 950.234c-.8143.271-.5429.814-.8143 1.357-.5429 3.529-1.0857 7.329-1.6286 10.857-.8143 4.615-1.3572 8.957-2.1715 13.572-.8143 4.071-2.1714 8.143-3.2572 12.486-.2714.542-.5428 1.357-.5428 1.9-.2714.543-.5429 1.357-1.3572 1.357-.5428 0-.8143-.543-.8143-1.9 0-.815 0-1.629 0-2.443.5429-5.157 1.0857-10.586 1.6286-15.743.5429-6.243 1.3572-12.757 1.6286-19 .5429-8.143 1.0857-16.015 2.1715-24.158.2714-2.171.5428-4.071.5428-6.243-.8143-.271-.8143.272-1.0857.815-1.3572 3.257-2.7143 6.514-4.0715 9.771-1.9 4.343-3.8 8.957-5.4286 13.3-.2714.815-.8143 1.629-1.0857 2.172 0 .271-.5429.271-.8143.271-.2715 0-.5429-.271-.5429-.543 0-.543 0-1.085.2714-1.628 2.7143-14.386 5.7001-28.772 10.3144-42.887 1.0858-3.528 2.1715-7.057 3.2572-10.585.2714-.815.2714-1.358.5429-2.172-.8143 0-.8143.543-1.0857.815-5.4287 8.414-10.043 17.371-13.5716 26.871-.2715.543-.5429 1.086-.8143 1.629 0 0-.2715 0-.5429 0s-.2714-.272-.5429-.272c0-.271 0-.542 0-.814.2715-.814.5429-1.9.8143-2.714 3.5287-12.486 7.3287-24.972 12.2145-36.915.8143-2.171 1.6286-4.343 2.4429-6.514 0-.272 0-.272 0-.543-.8143-.272-.8143.543-1.0858.814-4.6143 6.243-9.5001 12.215-14.3859 17.915-.5428.542-1.0857 1.357-1.6286 1.9-.8143.814-1.3571 1.085-1.6285.542-.5429-.542-.2715-1.085 0-1.628.2714-.814.8143-1.629 1.0857-2.443 4.0715-8.143 8.1429-16.557 12.2144-24.7 4.3429-8.958 8.6858-17.643 13.3002-26.601.2714-.814.8143-1.628 1.0857-2.443 0-.271-.2714-.542-.5429-.542 0 0 0 0 .2715-.272h.2714-.2714c-.8143 1.086-1.3572 1.9-2.1715 2.986-2.1714 2.714-4.3429 5.429-6.5143 8.143-4.6144 5.971-8.4144 12.214-11.6716 19-.5429 1.086-1.0858 2.443-2.1715 3.529-.2714-.272-.5428-.543-.5428-.815 0-.542.2714-1.085.2714-1.628 1.6286-5.157 3.2572-10.315 4.8858-15.472 3.2572-10.043 8.1429-19.543 13.843-28.772 4.0715-6.785 8.95724-13.3 13.84303-19.543.81429-1.085 1.35716-1.9 2.17146-2.985 0 0 0-.272 0-.815-.54286.272-1.08573.543-1.35716.815-3.80005 2.714-7.32863 5.7-10.58583 8.957-.5429.543-1.3572 1.357-2.1715 1.9-.2714 0-.8143.271-.8143 0-.2714-.272-.2714-.814-.2714-1.086.5429-.814.8143-1.628 1.3572-2.443 4.8857-7.328 9.77151-14.386 15.200157-21.443 2.442883-3.257 5.157183-6.786 7.600083-10.043.27142-.543.54286-1.086 1.35715-2.171-1.08573.543-1.62857.814-2.17144 1.357-1.90002 1.357-3.52862 2.714-5.428646 4.071-1.357147 1.086-2.714314 1.9-4.342894 2.715-.27144 0-.8143 0-1.08574-.272-.27144 0-.27144-.543 0-.814.54286-.814.81428-1.629 1.62859-2.714-1.35717.542-2.17145 1.357-2.98575 1.9-.81429.543-1.90003 1.357-2.71431 1.9-2.9858 2.443-5.9715 4.885-8.9573 7.057-.2714.271-.5428.271-.5428.543-.5429.271-1.0857.271-1.3572 0-.2714-.272-.2714-.815 0-1.086.5429-.814 1.0857-1.629 1.3572-2.443.2714-.271.5428-.814.8143-1.357v-.271s0 0 0-.272v.543c-1.0858.271-1.6286 1.357-2.1715 2.171-3.2572 4.072-6.2429 8.143-9.2287 12.486-.5428.815-1.0857 1.357-1.6286 1.9-.2714.272-.5428.272-.8143 0-.2714-.271-.5428-.543-.5428-.814 0-.814.2714-1.629.5428-2.443 1.0858-4.071 2.1715-8.143 3.2572-12.486.2715-.543.2715-1.085.2715-2.171-.5429.543-1.0858.814-1.3572 1.086-3.8001 4.885-7.0572 9.771-8.9573 15.743-.8143 2.442-1.6286 5.157-2.4429 7.6-.2714.814-.5428 1.357-1.0857 1.9-.2714.543-1.3571.271-1.3571-.272s-.2715-.814-.2715-1.357c0-1.357.2715-2.443.2715-3.8.5428-4.886.8143-10.043 1.3571-14.929-1.0857 0-1.0857.543-1.3571 1.086-6.243 10.314-10.5859 21.443-13.8431 33.115-.8143 3.257-1.6286 6.514-2.4428 9.771-.2715.815-.2715 1.357-.8143 2.172 0 .271-.5429.543-.8143.543-.5429 0-.8143-.543-.8143-1.086s0-1.357.2714-1.9c1.0857-11.672 2.9857-23.072 5.7001-34.472 0-.271 0-.543 0-.814-.8143-.272-.8143.543-1.0858.814-2.9857 4.343-5.7 8.957-8.6858 13.3-1.9 2.715-3.8 5.429-5.7001 7.872-.8143 1.085-1.9 2.171-2.9857 3.257-.2715.271-1.0857.543-1.3572.814-.5428.272-1.0857-.543-.8143-.814 0-.543.2715-1.086.5429-1.629 1.0857-2.171 2.1715-4.343 3.2572-6.243 2.1714-4.614 4.3429-8.957 5.9715-13.843.2714-.543.2714-1.357.5429-2.443-1.0858.815-1.6286 1.629-2.1715 2.172-5.1572 6.243-10.3144 12.757-15.4716 19-2.9858 3.529-6.243 7.329-9.7716 10.315-1.6286 1.357-3.5286 2.714-5.4286 4.342-.5429.272-1.0858.543-1.6283.815-.272 0-.815 0-1.086-.272-.271-.271-.271-.814-.271-1.085.271-.543.814-1.358 1.357-1.9 1.8997-2.443 4.0712-4.615 5.9712-7.058 3.2572-4.071 5.9715-8.414 8.1429-13.028 0-.272.2715-.543.2715-.815 0 0 0 0-.2715-.271-.8143.814-1.6285 1.9-2.4428 2.714-7.8716 8.143-14.6573 17.1-20.3573 27.143-4.614 7.872-9.229 15.743-13.572 23.615-.271.543-.814 1.357-1.357 1.9 0 .271-.543.271-.814 0-.272 0-.543-.271-.543-.543 0-.271 0-.271 0-.543 0-.271.271-.814.271-1.085 3.529-9.772 5.429-19.815 7.6-29.858 1.358-5.971 2.715-11.943 3.801-17.914 0-.543.271-1.086.271-1.9-.543.271-.814.542-1.086.814-2.714 3.8-4.886 8.143-6.243 12.757-2.171 7.6-4.343 14.929-6.514 22.529-1.629 4.886-3.257 9.772-4.886 14.657-.814 2.172-1.357 4.072-2.171 6.243-.272.543-.272.815-.543 1.357 0 .272-.543.272-.814.272-.272 0-.543-.272-.815-.543-.271-.543-.271-.814-.271-1.357 0-1.357 0-2.715 0-4.343 0-7.329-1.357-14.386-3.529-21.172 0-.271-.271-.814-.543-1.086 0 0-.271 0-.271-.271-.814.543-.814 1.629-1.086 2.443-2.443 8.414-4.886 17.1-7.328 25.514-2.443 8.415-5.158 16.558-8.415 24.429-.271.815-.814 1.629-1.086 2.172-.271.271-.814.271-1.085.271-.272 0-.543-.543-.815-.814 0-.814 0-1.629 0-2.443.815-5.971 1.358-11.943 2.172-18.186 1.628-11.943 2.171-23.886 2.443-35.829 0-.271 0-.543-.272-1.628-.543 1.085-1.085 1.9-1.357 2.442-2.986 6.515-5.971 13.301-8.957 19.543-2.986 6.243-6.243 12.215-9.229 18.186-.271.543-.543 1.086-1.086 1.358-.271.271-.542.271-.814 0-.271 0-.543-.543-.543-.543 0-.815.272-1.357.543-2.172 2.172-6.514 4.614-13.028 6.786-19.543 3.257-9.771 6.786-19.543 10.043-29.314.543-1.358.814-2.443 1.086-3.8-.815-.272-1.358.542-1.629.814-5.157 5.428-10.314 10.586-15.472 16.014-3.528 3.8-7.328 7.6-11.128 11.129-2.986 2.986-6.515 5.429-10.043 7.871-1.357.815-2.715 1.901-4.072 2.715-.543.271-1.085.543-1.9.814-.271 0-.543-.271-.814-.271 0-.272-.271-.543 0-.815.814-.814 1.629-1.357 2.443-1.9 4.614-3.257 8.957-6.514 13.029-10.043 5.428-4.614 10.043-9.771 14.385-15.2 5.158-6.514 10.315-13.029 15.472-19.814 1.357-1.629 2.714-3.257 4.072-4.886-2.172-9.5-2.986-18.729-3.529-28.229-.814-.271-.814 0-1.086.271-5.7 11.672-10.314 23.615-12.757 36.372-.272 1.086-.272 2.443-.543 3.529 0 .271 0 .814-.271 1.086-.272.271-.543.543-.815.543-.271 0-.814-.272-.814-.543-.271-.543-.271-1.357-.271-1.9 0-3.8 0-7.6 0-11.401 0-8.685 0-17.371-.272-25.786 0-.814-.271-1.628-.271-2.714-1.086.272-1.357 1.357-1.9 1.9-3.8 6.243-7.329 12.486-10.586 18.729-7.057 13.572-13.3 27.415-19.543 41.529-.272.814-.543 1.629-1.086 2.172-.271.271-.814.542-1.357.271-.272 0-.543-.543-.543-.814 0-.543 0-1.358.271-1.9 3.529-16.015 8.686-31.487 16.015-46.144 2.443-4.886 5.157-9.771 8.143-14.386.543-.814.814-1.628 1.086-2.714-.543.271-1.086.543-1.358 1.086-3.257 2.985-6.514 5.971-9.771 9.228-3.8 3.529-7.872 6.515-12.215 9.229-1.085.814-2.442 1.357-3.528 1.9-.543.271-1.086 0-1.086-.271-.271-.272-.271-1.086 0-1.358.543-.814 1.357-1.357 1.9-2.171 11.672-11.129 22.8-22.8 33.658-34.472 4.343-4.614 8.143-9.5 12.214-14.114.272-.272.814-.543.543-1.357-1.357.542-2.171 1.357-3.257 2.171-4.615 3.257-9.229 6.514-13.3 10.043-.272.271-.543.271-.815.543-.271 0-.814 0-1.085-.272-.272-.271-.272-.814-.272-1.085 0-.543.543-.815.815-1.086 6.785-8.143 13.571-16.286 20.628-24.429 4.343-5.157 9.5-9.771 14.658-13.843.271-.271.543-.543.814-.814 0 0 0-.272.271-.814-.814 0-1.628.271-2.171.271-2.714.814-5.429 1.357-8.143 2.171-.814.272-1.9.543-2.714-.271-.543-.543-.272-1.629 1.085-2.714 3.529-2.715 7.058-5.7 10.858-8.415 2.171-1.628 4.614-3.257 7.057-4.886 8.414-5.7 17.914-9.5 27.686-12.214 2.171-.543 4.343-1.086 6.243-1.629.543 0 .814-.271 1.628-.542-1.085-.272-1.9-.543-2.442-.543-7.058-1.357-13.843-2.172-20.901-2.715-.814 0-1.628 0-2.443-.271-.271 0-.814-.543-1.085-.814-.272-.543.271-.815.543-1.086.542-.272.814-.272 1.357-.543 7.6-2.443 15.471-4.343 23.614-4.886 8.9576-.814 17.6434-.814 26.3292.543 5.4287 1.086 10.8573 2.443 16.2859 3.8 1.3572.272 2.9858.814 4.343 1.357-.5429-1.9-1.9001-1.085-2.7144-1.628-.8143-1.357-.8143-1.357-1.9-2.172-2.4429-1.9-4.6143-3.528-7.0572-5.428-.8143-.543-1.6286-.815-2.7143-.815-2.4429.543-4.8858 1.086-7.6001 1.9-.8143.272-1.9.543-2.7143.543-.2715 0-1.0858-.271-1.0858-.543-.2714-.271 0-1.085.2715-1.357.8142-.814 1.6285-1.357 2.7143-2.171 1.6286-1.357 3.2571-2.443 5.1572-4.072-.8143 0-1.0858-.271-1.6286 0-7.3287 1.629-14.9288 2.986-21.9864 5.972-1.628.543-3.257 1.357-4.885 1.9-.543.271-1.358.271-1.9.543-.272 0-.815-.272-.815-.543 0-.272 0-.814.272-1.086.543-.543 1.357-1.086 1.9-1.629 1.085-.814 2.171-1.628 3.257-2.171-.271-.814-.814-.543-1.086-.543-11.943 3.257-23.886 7.057-35.557 11.672-7.329 2.985-14.386 5.971-21.444 9.228-2.714 1.358-5.157 2.715-7.871 4.072-.543.271-1.086.543-1.629.543-.271 0-.542-.272-.542-.543s0-.543 0-.814c.271-.543.814-.815 1.357-1.086 7.328-4.886 14.928-9.5 22.8-13.843 4.343-2.443 8.957-4.615 13.3-7.057 6.243-3.258 12.486-6.243 19-8.686.543-.272 1.086-.543 1.629-.815-.543-.542-.814-.542-1.357-.271-10.043.814-19.815 2.172-29.586 4.343-1.629.271-3.529 1.086-5.157 1.629-1.086.271-2.172.814-3.258.814-.543 0-1.085-.272-1.085-.814 0-.272.271-.815.271-1.086.271-.272.543-.272 1.086-.543 5.428-1.9 10.857-4.071 16.286-5.971 12.214-4.615 24.971-7.329 38.0001-8.415 6.5144-.543 13.3002-.271 19.8146.272.8143 0 1.9 0 2.7143.271.2714-.814-.5429-.814-1.0857-1.086-7.3287-3.8-14.9288-6.786-23.0718-8.957-.8145-.271-1.6285-.543-2.4425-.814-.272 0-.543-.543-.543-.815 0-.271.543-.542.814-.814.543-.271.814-.271 1.357-.271 12.7576-.272 25.5149.543 38.2722 3.257 4.0714.814 8.1429 2.171 11.943 3.528.5428.272 1.0857.543 1.6286.272l.2714.271v-.271c-.2714 0-.2714 0-.5429 0-.2714-.543-.8143-1.086-1.0857-1.629-2.4429-1.9-5.1572-3.8-7.6001-5.428-1.0857-.815-1.3571-1.358-.8143-1.629.5429-.543 1.0857-.271 1.9 0 2.7144 1.086 5.1572 2.443 7.8716 3.529 7.3286 2.985 14.1144 6.785 20.3574 11.4 6.5143 4.614 12.7573 9.228 18.4573 14.657.5429.543.81432 1.086 1.90004 1.086-.54286-1.086-.8143-2.172-1.35716-3.529-.54288-1.357-1.08568-2.443-1.35718-3.8-.2714-.814-.5428-1.628-.5428-2.443 0-.543 0-1.357.5428-1.9.8143-.271 1.3572 0 1.90006.543s1.08574.814 1.35716 1.357c2.44289 3.258 5.1572 6.243 7.6000838 9.772 4.8857762 7.057 9.5001262 14.114 13.3001962 21.714 2.1714 4.072 4.3429 8.143 7.0572 12.758-.2714-1.357-.5429-2.172-.8143-2.986-3.5286-9.5-6.5143-19.272-8.9573-29.043-.2714-1.086-.5428-2.172-.5428-2.986 0-.271.2714-.543.5428-.543.2715 0 .5429 0 .8144.272.2714.542.8142 1.085 1.0857 1.628.5428 1.086 1.0857 2.172 1.6286 2.986 0 .271.2714.543.5428.814.2715-1.086 0-1.628-.2714-2.443-1.6286-5.971-2.9857-11.671-3.8001-17.914-1.08567-8.686-1.08567-17.372-.2714-26.058.5429-6.514 1.3572-12.757 2.1715-19.271 0-.543.2714-.815.2714-1.357 0 0 .2715-.272.5429-.272s.5428.272.5428.272c0 .542.2715 1.085.2715 1.628.2714 2.714.5428 5.157.8143 7.872 0 .543.2714.814.2714 1.628.2714-.543.5429-.543.5429-.814 1.3571-10.314 4.3429-20.357 6.7858-30.672 1.6286-7.6 3.5286-14.929 5.1572-22.529.2714-.814.2714-1.9 1.0857-2.443.8143.272 1.0857 1.086 1.0857 1.629 0 6.514.2715 13.029-1.0857 19.272-.2714 1.9-.8143 3.8-1.0857 5.7 0 .543-.2715.814 0 1.357.2714-.272.2714-.543.5428-.814.5429-1.358 1.3572-2.443 1.9001-3.8 9.5001-18.729 21.4431-35.83 34.2004-52.387.5429-.814 1.3571-1.357 1.9-2.171.2714-.272.5429-.272.8143 0 .2714.271.2714.543.2714 1.085 0 .543-.2714.815-.5428 1.358-2.4429 4.885-4.6144 9.771-7.0573 14.657-4.0714 8.686-8.1429 17.643-13.0287 26.057-1.3571 2.443-2.9857 5.158-4.3429 7.601-.2714.542-.8143.814-.2715 1.628.8143-.543 1.3572-.814 2.1715-1.357 4.8858-4.072 10.3144-7.6 15.4716-11.129 6.7858-4.614 13.5716-9.771 20.3574-14.386 1.9001-1.357 3.8001-2.714 5.7001-3.8.5429-.271 1.0857-.543 1.6286-.814.2714 0 .5429 0 .8143.271.2714.272.2714.815.2714 1.086-.2714.543-.5428 1.086-1.0857 1.629-1.0857 1.357-2.4429 2.714-3.5286 4.071-6.2429 5.972-12.2144 12.215-18.4574 18.186-.8143.814-1.3571 1.357-2.4429 2.172.2715.542.5429.814 1.0858 1.357 0 1.085-.8143 1.9-1.3572 2.714-3.2572 4.614-6.7858 8.957-10.5859 13.029-5.7 5.7-10.5858 11.943-15.2001 18.457-.2715.272-.2715.543-.5429 1.086v.543c.5429-.272 1.0857-.543 1.6286-.814 2.4429-1.629 4.8858-3.529 7.3287-5.158.8143-.543 1.9-1.9 2.9857-.814s-.2714 2.171-.8143 2.986c-2.1714 3.257-4.3429 6.243-6.5143 9.5-1.6286 2.171-2.9858 4.343-4.6144 6.514-.2714.272-.5429.815-.8143 1.357 1.0857 0 1.6286-.542 1.9-1.085 2.1715-1.9 4.0715-3.8 6.243-5.7.8143-.815 1.6286-1.086 1.9-.815.5429.543.2714 1.357 0 1.9-.5429 1.357-1.0857 2.986-1.6286 4.343-2.7143 5.429-5.1572 10.857-7.8715 16.015-.5429.814-.8143 1.628-1.6286 3.257.8143-.543 1.0857-.814 1.3571-1.086 1.6286-1.628 3.2572-3.257 5.1573-5.157.2714-.272.8142-.543 1.3571-1.086.2715-.271.8143.272.8143.543-.2715.543-.2714 1.086-.5429 1.629-1.0857 1.9-1.9 3.8-2.9857 5.7-.2714.543-.2715 1.085-.5429 1.628 1.9.543 3.5286-.814 5.1572 0 .2715 1.086-.2714 1.629-.8143 2.443-1.3572 2.172-2.9857 4.343-4.3429 6.786-.2714.543-.5428 1.086-.8143 1.9.5429.272.8143.272 1.0857.272h1.9001c1.9.271 2.1714 1.085 1.3571 2.714-.2714.543-.8143 1.086-1.0857 1.628-1.0857 1.629-1.9 3.258-2.9857 4.886-.2715.272-.2715.814-.5429 1.086.5428.543 1.0857.271 1.3571 0 .5429-.272 1.3572-.271 1.9001-.543.5428 0 1.0857.543.8142.814-.2714.815-.5428 1.629-.8142 2.443-1.0857 2.443-2.4429 4.886-3.5286 7.057-.2715.543-.5429 1.086-.8143 1.901.8143.271 1.3571.542 2.1714.814.5429 1.086 0 2.171-.2714 3.257-1.6286 4.071-2.7143 8.143-3.5286 12.214-1.6286 6.786-1.6286 13.843-1.3572 20.629 0 .814 0 1.357.5429 2.443.2714-.543.5428-1.086.5428-1.357 1.6286-4.614 2.9858-8.957 4.6144-13.572 1.0857-2.985 2.1714-5.971 3.2572-9.228 3.2572-9.5 5.1572-19.272 6.5143-29.044 1.3572-10.585 2.9858-21.171 4.3429-32.029.8143-5.971 2.1715-11.942 3.8001-17.914 5.1572-17.1 14.1144-31.758 27.4146-43.972 4.6144-4.343 9.7716-8.686 14.6574-12.486 7.3289-5.7 14.3859-11.943 21.1719-18.186 5.428-5.157 11.128-10.043 16.829-14.929 2.171-1.9 4.071-3.8 6.242-5.971.815-.814 1.629-1.086 1.9-.543.543.543 0 1.357-.271 1.9-.814 1.357-1.629 2.714-2.443 4.072-7.057 10.857-15.2 20.628-24.429 29.586-.814.814-1.628 1.357-2.171 2.171-.272.272-.272.543-.543 1.357 3.257-1.357 6.243-2.443 8.957-3.8 3.529-1.628 7.057-3.528 10.315-5.428 1.357-.815 2.443-.815 2.443-.272.271 1.086-.543 1.357-1.086 2.172-6.243 6.243-13.029 11.671-20.086 16.557-2.715 1.629-5.157 3.529-7.872 5.157.272.543.815.543 1.086.543 4.071-.543 8.143-1.9 12.214-3.257 6.515-2.172 12.758-4.886 19.001-7.872.814-.271 1.628-.543 2.443-.814.542-.271 1.085 0 1.085.543 0 .271 0 .814-.271 1.086-.814.814-1.629 1.628-2.714 2.171-4.615 3.529-9.501 6.243-14.658 8.686-6.243 2.986-12.486 5.7-18.729 8.143-1.628.543-3.257 1.086-5.428 1.9.814.271 1.357.271 1.628.543 3.529.543 6.786 1.357 10.043 2.714 4.072 1.629 7.872 3.257 11.943 4.886.815.271 1.629.814 2.443 1.628.543.543.272 1.629-.543 1.629-.814 0-1.9.271-2.714 0-2.986-.271-6.243-.814-9.229-1.086-2.171-.271-4.343-.543-6.514-.814-.543 0-.814 0-1.357 0 .271.814 1.086 1.086 1.628 1.086 4.072 1.9 7.601 4.071 10.586 7.328 1.9 1.9 3.529 4.072 5.158 6.243.814.815 1.357 1.9 2.171 2.715.271.271.543.814.814 1.085.272.543-.271 1.358-1.085 1.358-.543 0-.815-.001-1.358-.272-.814-.271-1.628-.543-2.443-.814-8.142-2.715-16.557-4.072-25.2427-4.615-.2714 0-.8143 0-1.0857 0 .2714 1.086.8143 1.901 1.6286 2.443 3.2568 3.258 6.5148 6.515 9.7718 9.5.543.543 1.085 1.086 1.628 1.629.272.271 0 .814 0 1.086 0 .271-.543.271-.814.271-.814 0-1.357-.271-2.171-.543-1.358-.271-2.986-.814-4.343-1.085-2.715-.815-5.429-1.358-8.6862-2.172 1.0858 1.357 2.1715 1.629 2.9858 1.9.8143.543 1.9.814 2.7144 1.357 1.086.543 2.171.815 2.986 1.358.814.542 1.9.814 2.714 1.357 1.086.543 1.9 1.085 2.986 1.357.271 1.086-.272 1.628-1.086 1.9-2.714.814-5.157 1.628-7.8715 2.986-5.7001 2.442-11.6716 5.157-17.3717 7.871-3.2572 1.629-6.5143 3.257-9.7715 4.886-.2715.271-.5429.271-.8143.543.5428.543.8143.271 1.0857.271 3.5286-1.357 7.0572-2.443 10.8573-3.8 1.0857-.271 1.9-.814 2.9857-.814h1.0858c.2714.814 0 1.086-.2715 1.357-.8143.543-1.6286 1.086-2.7143 1.629-4.3429 2.714-8.6858 5.157-12.7573 7.871-1.9 1.357-3.8 2.714-5.7001 4.343.8143-.271 1.6286-.271 2.1715-.814 3.8-1.629 7.8715-3.529 11.6716-5.429 1.0857-.543 2.1714-.814 3.2572-1.357.8143-.271 1.6286.543 1.0857 1.357-.2714.814-.8143 1.629-1.3572 2.172-2.4429 2.442-4.8858 5.157-7.3286 7.6-3.2572 3.257-6.7858 6.243-10.3145 9.5-.2714.271-.5428.543-.8143.814.8143.543 1.0858 0 1.6286-.271 1.9001-1.086 4.0715-2.172 5.9715-3.258.5429-.271 1.3572-.814 2.1715-1.085.2714 0 .8143 0 1.0857.271.2715.272 0 .814 0 1.086-.2714.543-.8143 1.086-1.3571 1.357-2.7144 1.9-5.4287 4.072-7.8716 5.972-5.7 4.342-10.8572 9.5-15.2002 15.2-1.3571 1.628-2.4428 3.528-3.2571 5.428-3.2572 7.329-6.243 14.658-9.2287 21.986-.5429 1.086-.8143 2.443-1.0857 3.8v1.629c.8143-1.086 1.3571-1.9 1.9-2.714 7.8715-10.858 15.7431-21.715 23.6146-32.301 8.4143-11.4 17.9145-21.986 27.9575-31.757 4.8857-4.886 10.3143-9.5 15.7433-13.843 10.314-8.415 21.443-15.743 32.843-22.529 10.857-6.514 21.986-11.943 33.658-16.286 3.257-1.357 6.785-2.714 10.043-3.8.814-.272 1.357-.543 2.171 0 .271.814-.271 1.357-.814 1.628-1.357 1.086-2.986 2.172-4.343 3.258-5.7 4.885-11.4 10.043-17.1 14.928-.543.543-1.086 1.086-1.629 1.9 3.257-1.628 5.971-2.985 8.686-4.342 5.428-2.986 11.4-4.615 17.371-5.972 6.515-1.357 13.301-2.171 20.086-2.714 4.072-.272 8.415-.543 12.486-.815h2.443c.272 0 .543.272.543.543 0 .272-.271.543-.271.543-.543.272-.815.272-1.358.272-7.057 1.357-13.571 4.071-20.086 6.785-1.357.543-2.714 1.086-4.071 1.9-.543.272-.814.543-1.357.815.271.543.814.543 1.086.543 4.885-.272 9.771 0 14.385.542 7.872.815 15.743 1.358 23.615 2.172 4.886.543 9.772.814 14.386 1.357.814 0 1.629 0 2.443.271.271 0 .814.543 1.086.815-.272.814-1.086 1.086-1.629 1.086-1.086.271-2.443.271-3.8.542-9.5.815-18.729 2.443-27.958 3.8-.271 0-.814.272-1.085.272.271.814.543.543 1.085.814 10.315 1.9 20.629 3.8 31.215 5.429 8.143 1.357 16.286 3.528 24.158 5.7.814.271 1.357.543 1.9 1.086.271 0 .271.542.271.814 0 .271-.271.543-.543.543-.814 0-1.9.271-2.714.271-4.615-.271-8.957-.814-13.572-1.086-1.086 0-2.443-.271-3.8 0 .272.272.543.272.814.543 21.715 8.143 41.258 20.358 59.444 35.015 1.357 1.086 2.986 2.443 4.343 3.529.543.271.814.814 1.086 1.357v.814c0 .272-.543.543-.815.272-.542 0-1.357-.272-1.9-.543-2.171-1.086-4.342-1.9-6.514-2.986-7.6-3.8-15.2-6.786-23.072-9.772-4.885-1.9-10.043-3.8-14.928-5.428-.815-.272-1.629-.543-2.986-.815 3.257 3.529 6.243 6.515 8.957 9.772 2.986 3.257 5.7 6.514 8.686 9.772 2.714 3.257 5.429 6.514 8.143 9.771s5.428 6.514 8.143 10.314c-.815 0-1.086.272-1.357.272-.815-.543-1.358-1.086-1.9-1.629-7.329-7.328-14.929-14.386-23.072-20.9-.814-.543-1.357-1.628-2.986-1.628 1.357 1.628 2.714 3.257 3.8 4.885 2.986 3.8 6.243 7.6 9.229 11.129.543.543 1.357 1.086.814 2.171-.271.543-1.086.272-2.443-.814-11.4-9.229-22.8-19-33.114-29.315-1.629-1.628-2.986-3.257-5.158-4.342.815 1.085 1.9 2.171 2.715 3.257 6.514 7.057 13.3 13.571 20.086 20.357 1.9 1.9 3.528 3.529 5.428 5.429.543.543.543 1.086 1.086 1.9-.543 0-1.086.271-1.357.271-.814-.271-1.357-.814-2.172-1.357-8.957-6.243-17.914-12.757-26.6-19-7.057-5.157-13.3-10.857-19.543-17.1-.543-.543-1.357-1.357-2.443-1.9 1.357 2.985 3.257 5.157 5.157 7.328 5.972 7.329 11.672 14.386 17.643 21.715.815 1.086 1.9 2.171 2.172 3.8-.543 0-1.086.271-1.357.271-.543-.271-1.358-.814-1.9-1.357-4.072-2.986-7.329-6.514-10.586-10.314-3.8-4.343-7.872-8.686-11.672-12.758-.814-.814-1.628-1.628-2.443-2.442-.543.814 0 1.357.272 1.9 2.171 3.8 4.614 7.6 6.786 11.128 1.628 2.715 3.528 5.158 5.157 7.872.543.814.814 1.628 1.085 2.171.272.815-.542 1.9-1.357 1.629-.814-.272-1.628-.543-2.171-1.086-2.986-1.9-5.972-4.071-8.957-6.243-3.8-3.257-7.6-6.514-11.129-10.043-5.429-5.428-10.586-10.857-16.015-16.286-1.628-1.628-3.257-3.528-4.614-5.428-.543-.543-.814-1.358-1.357-2.172-.272-.543-.814-1.086-1.629-1.357.543.814 1.086 1.9 1.629 2.714 3.8 5.972 7.6 12.215 11.4 18.186 4.886 7.872 10.043 16.015 14.929 23.886.814 1.357 1.9 2.172 3.528 2.443 17.372 4.343 34.472 10.315 50.758 17.643 2.986 1.357 6.243 2.986 9.229 4.615 4.886 2.443 10.043 5.157 14.929 7.6.271.271.814.271.814.543.271.271.271.814.271 1.085 0 .272-.542.272-.814.272-.543 0-.814-.272-1.357-.272-2.714-1.085-5.157-1.9-7.6-2.985-6.786-2.443-13.572-4.886-20.358-7.329-.814-.272-1.9-.543-2.714-.814 0 1.085.814 1.357 1.357 1.628 6.515 4.615 12.486 9.772 18.458 15.2 4.614 4.615 8.957 9.5 13.028 14.658 3.529 4.343 7.058 8.957 10.586 13.571.272.543.815 1.086 1.086 1.629s.271 1.086-.271 1.357c-.272.271-.815 0-1.358 0-.542-.271-1.085-.814-1.357-1.357-3.257-3.257-6.243-6.515-9.5-9.772-8.414-8.414-17.1-16.286-26.872-23.071-.814-.543-1.357-.815-2.171-1.358 0 0-.272 0-.272.272.272.543.543 1.086.815 1.357 5.7 7.6 10.857 15.472 15.471 23.615 3.258 5.7 6.243 11.4 9.229 17.1s5.971 11.4 8.686 17.371c1.086 2.172 2.171 4.343 3.257 6.786.271.543.543 1.086.543 1.629s0 1.086-.272 1.357c-.542.543-1.085 0-1.628-.271-.543-.543-1.086-1.086-1.357-1.629-2.443-3.257-4.886-6.514-7.057-10.043-9.501-13.572-20.086-26.329-31.758-38.272-2.172-2.171-4.072-4.071-6.243-6.243-.814.272-.271.815-.271 1.086.271.543.542 1.086.814 1.357 4.071 7.057 8.414 14.386 12.486 21.443 4.071 7.057 7.6 14.386 11.128 21.715.272.543.543 1.086.815 1.9 0 .271 0 .814-.272 1.086-.271.271-.814.271-1.357-.272s-1.086-1.357-1.628-1.9c-2.172-2.986-4.343-6.243-6.515-9.229-3.8-5.428-8.143-10.585-12.757-15.471-5.157-5.429-10.315-10.857-15.472-16.286-.543-.543-1.085-1.086-2.171-1.357.271.271.271.814.543 1.085 3.257 5.7 6.514 11.401 9.5 17.101 3.528 6.785 7.057 13.571 10.586 20.357.543 1.086 1.085 2.172 1.357 3.529 0 .271 0 1.085-.543 1.085-.271.272-1.086 0-1.357 0-.815-.542-1.629-1.357-2.172-2.171-3.528-4.343-6.785-8.414-10.043-12.757-3.528-4.343-7.328-8.686-10.857-13.301-2.986-3.8-5.971-7.871-8.957-11.943-3.257-4.885-6.243-9.771-9.5-14.657-.543.272-.543.543-.272 1.086 1.9 7.871 4.072 15.743 7.058 23.072 1.628 3.8 3.257 7.6 4.614 11.4.271.814.814 1.9 1.086 2.714.271 1.086 0 1.9-.543 1.9-.815.271-1.357 0-1.9-.543-.815-.814-1.357-1.628-2.172-2.443-3.8-5.157-6.786-10.586-9.228-16.286-2.443-5.428-4.615-10.857-6.243-16.557-.272-.543-.543-1.086-.815-1.9-.271 1.086-.543 1.629-.543 2.171-.542 4.072-.271 8.415.543 12.486 1.086 5.972 2.986 11.943 4.886 17.915.272.814.543 1.9.814 2.714.272.543.272 1.357.543 1.9 0 .543-.271.814-.543 1.357-.542.543-1.085.272-1.628 0-.815-.543-1.357-1.085-1.9-1.628-1.629-2.172-3.529-4.072-5.157-6.515-4.615-6.785-8.143-14.114-10.858-21.986-1.9-5.428-3.8-11.128-5.7-16.557-.271-.543-.543-1.086-.543-1.629 0-.271 0-.271-.271-.542v.271l.271.271c-.542 0-.542.272-.542.815v3.257c.542 12.757 2.714 25.243 6.514 37.458.814 2.442 1.628 4.885 2.171 7.328.272 1.086.272 2.172.272 2.986s-1.086 1.357-1.629.814c-.814-.543-1.628-1.357-2.171-2.171-1.9-2.986-3.529-6.243-4.615-9.5-2.985-7.6-4.885-15.472-6.514-23.343-.271-.815-.543-1.901-.814-3.258-.272 1.086-.543 1.358-.543 1.9 0 2.172-.272 4.343 0 6.515.543 7.6 2.171 14.928 5.157 21.714 1.357 3.529 2.986 7.329 4.343 10.858.271.814.543 1.9.814 2.714 0 .271-.271 1.086-.543 1.086-.271.271-1.085 0-1.357 0-1.086-1.086-2.171-1.9-2.986-2.986-3.528-4.615-6.785-9.5-9.228-14.657-5.157-11.401-11.943-21.715-19.543-31.758-1.629-2.172-3.258-4.071-4.886-5.971-.543-.543-1.086-1.086-1.9-1.358.271.543.271 1.086.543 1.358 2.443 4.614 4.886 9.228 7.328 13.843 1.9 3.528 3.8 7.328 5.7 10.857.543.814.815 1.9 1.086 2.986.272.814-.814 1.628-1.357 1.085-.814-.543-1.357-.814-1.9-1.628-2.171-2.172-4.071-4.615-5.971-6.786-3.801-4.614-7.601-9.229-11.943-13.3-.815-.815-1.629-1.9-3.258-2.443 1.357 2.986 2.443 5.7 3.529 8.414 1.629 3.8 3.257 7.6 4.614 11.4.272.815.543 1.629.543 2.443 0 .543-.814 1.086-1.357.815-.543-.272-1.086-.543-1.357-1.086-1.357-1.629-2.714-3.529-4.072-5.157-4.071-4.886-8.414-9.772-12.486-14.658-.271-.271-.814-.543-1.628-1.357.543 1.357.814 1.9.814 2.443.272.814.543 1.357.814 2.171.815 1.9 1.629 3.801 2.172 5.972.543 1.357.271 2.171-.272 2.443-.814.543-1.628 0-2.442-.543-1.086-1.086-2.172-1.9-3.258-2.986-2.985-2.985-5.971-6.243-8.685-9.228-.543-.543-1.086-1.086-1.629-1.629 0 1.9 0 1.9.814 3.257 1.357 2.443 2.443 4.886 3.8 7.329 1.086 2.443 2.443 4.614 3.529 7.057.271.543.543 1.086.543 1.629.271 1.085-.814 1.9-1.9 1.357-.814-.543-1.629-1.086-2.172-1.629-1.9-2.171-3.8-4.343-5.428-6.514-4.072-5.157-7.6-10.857-10.858-16.829-.271-.543-.542-1.086-1.085-1.629-.543.272-.543.543-.543 1.086.543 2.986 1.628 5.7 2.986 8.686.814 1.357 1.357 2.986 1.9 4.343.271.543.271 1.086-.272 1.629-.543.271-1.086.271-1.628 0-1.358-.815-2.172-1.629-2.986-2.986-1.357-2.172-2.714-4.615-3.8-7.057-.272-.272-.272-.815-.814-1.086 0 .543 0 1.086.271 1.628.543 2.443 1.086 4.886 1.357 7.329.272.814.272 1.629-.271 2.172-.815.542-1.629.271-2.443 0-1.0859-.543-2.1717-1.086-2.986-1.358-1.6286-.814-3.2571-1.357-5.1572-1.628-.2714 2.171-1.9 3.528-3.2572 5.157-.8143.814-1.3571 1.357-2.1714 2.171-.5429.543-.8143 1.358-1.0857 1.9.2714.815.8142.543 1.3571.272 1.3572-.272 2.7143-.543 4.0715-.814 4.3429-.815 8.4144-1.086 12.7569-.543 1.086.271 2.443.543 3.529 1.085 1.086.543 1.086 1.9.271 2.443-.542.543-1.085.815-1.628.815-2.172.814-4.343 1.357-6.5145 2.171-.8143.272-1.6286.543-2.7143 1.086 1.0857.543 1.6286.814 2.1714.814 4.6144 1.086 8.9574 1.9 13.5714 3.257 2.443.543 4.886 1.357 7.329 2.172.814.271 1.628.814 2.171 1.357.543.271.543 1.086 0 1.357-.814.543-1.628.814-2.171 1.086-1.9.814-3.8 1.357-5.429 2.714.543.272.815.814 1.086 1.086 1.9 1.086 3.529 2.171 5.429 2.986 2.714 1.357 5.428 2.714 8.143 4.343 5.157 2.714 9.5 6.242 13.3 10.585.543.543.814 1.086 1.085 1.629.272.543-.271 1.357-.814 1.086-.543 0-1.086-.272-1.628-.543-1.358-.543-2.715-1.086-4.343-1.629-2.715-1.086-5.7-1.628-8.415-2.171-.271 1.085.543 1.357.815 1.628 3.257 2.715 6.242 5.158 9.5 7.6 5.157 4.072 10.586 7.872 15.743 11.672 8.143 5.7 15.743 12.214 23.343 18.729.543.543.814 1.086 1.086 1.628 0 .272 0 .543-.272.815 0 0-.271.271-.543.271-.543-.271-1.085-.271-1.628-.814-1.357-1.086-2.715-2.172-4.072-3.257-3.528-2.715-6.786-5.7-10.586-8.415-4.343-3.528-9.228-6.243-14.657-8.143-1.629-.543-3.257-1.085-4.886-1.357-.543 0-1.085 0-1.9 0 1.357 1.357 2.443 2.443 3.529 3.529 7.329 7.328 14.657 14.929 21.986 22.257 4.343 4.343 8.686 8.143 13.029 12.486 1.357 1.086 2.443 2.443 3.528 3.8.272.272.543.543.543.814 0 .272 0 .543-.271.815-.272.271-.543.271-.815.271-.814-.543-1.357-1.086-2.171-1.629-3.257-2.985-6.786-5.971-10.043-8.685-5.157-4.615-10.586-8.958-16.557-12.758-.815-.542-1.629-1.085-2.986-1.628 0 1.086.543 1.628 1.086 2.171 2.714 2.986 5.428 5.972 8.143 8.958 7.6 8.414 14.928 17.1 22.528 25.786.815 1.085 1.629 2.171 2.172 3.257.271.271 0 .814-.272 1.085-.271.272-.814.272-1.085 0-.815-.542-1.629-1.357-2.443-1.9-2.715-2.442-5.7-5.157-8.415-7.6-.542-.271-.814-.542-1.628-.814.271.272.543.543.543 1.086 6.514 8.143 12.757 16.557 18.186 25.514 3.528 6.243 6.243 12.758 8.685 19.544.272.814.543 1.357.543 2.171 0 .271-.271.543-.543.814-.271 0-.542 0-.814 0-.543-.543-1.086-1.357-1.628-1.9-5.158-6.786-11.129-13.028-17.915-18.186-.271-.271-.543-.271-1.086-.543 0 1.086.272 1.9.815 2.715 1.628 3.257 3.257 6.786 4.614 10.043 5.157 11.943 9.229 24.429 11.671 37.186.272 1.086.272 2.171.543 3.257 0 .271 0 .814-.271 1.086-.271.543-1.086.814-1.357.271-.272-.543-.815-.814-1.086-1.357-.814-1.629-1.9-3.257-2.714-5.157-2.986-5.7-5.972-11.4-10.043-16.558-1.629-2.171-3.529-4.342-5.7-5.971-.543-.543-1.086-.814-1.629-1.357-.814.543-.271.814-.271 1.357 1.9 4.072 3.528 8.143 5.428 12.215 3.8 9.228 7.329 18.457 10.043 28.228 2.172 7.872 4.615 15.743 6.786 23.615.814 2.986 1.357 6.243 1.9 9.229.272.814 0 1.9 0 2.714 0 .271-.271.543-.543.543-.271 0-.543 0-.814-.272-.543-.814-.814-1.628-1.357-2.443-1.357-3.8-2.715-7.871-4.343-11.671-1.357-2.986-2.714-5.972-4.343-8.957-2.172-4.072-4.343-7.872-6.514-11.943-1.086-2.172-2.172-4.343-3.258-6.515-.271-.543-.542-.814-1.085-1.628v1.357c1.628 7.6 3.528 14.929 5.157 22.529.271 1.628.814 3.257 1.357 4.886 0 .542.271.814 0 1.357 0 .271-.271.271-.543.543h-.543c-.543-.815-1.085-1.629-1.357-2.443-1.086-2.986-2.443-5.972-3.528-8.958-2.172-5.428-4.343-10.857-6.515-16.286-2.986-7.328-5.428-14.928-7.057-22.528 0-.543-.271-.815-.543-1.9-.271 1.085-.271 1.357-.271 1.9-.272 6.243-.543 12.757-.815 19 0 2.714 0 5.428.272 7.871v2.172c0 .271-.543.543-.815.543-.271 0-.542-.272-.814-.272-.271-.814-.543-1.628-.814-2.443-.814-4.343-1.9-8.685-2.443-13.3-1.629-11.943-2.986-24.157-4.343-36.1-.543-5.158-1.357-10.315-2.171-15.472-.543-2.986-1.358-5.7-2.172-8.686 0-.271-.271-.543-.543-1.085-.543.814-.543 1.628-.543 2.171 0 5.971.272 11.672.272 17.643 0 4.343 0 8.957-.814 13.3-.272 1.629-.543 2.986-.815 4.615 0 .543-.271.814-.543 1.357-.271.271-.542.543-.814.543-.271 0-.814-.272-.814-.543-.272-.543-.272-.814-.272-1.357-.271-1.357-.271-2.715-.271-4.072-.271-7.871-1.9-15.471-4.343-22.8-1.357-4.343-2.714-8.957-4.343-13.3-.271-.543-.271-.815-.814-1.629-.272.814-.272 1.357-.272 1.629-.271 4.614-.542 9.228-1.085 13.843-.815 8.414-.815 16.557-.815 24.972 0 3.528-.271 7.057-.271 10.585 0 .543-.271 1.086-.271 1.629-.272.271-1.086.543-1.086 0-.272-.543-.272-.814-.543-1.357-1.629-7.329-3.257-14.386-4.343-21.715-1.629-12.757-4.071-25.243-7.329-37.729-.271-.814-.543-1.9-.814-2.714 0 0-.271 0-.271-.272v2.986c.271 4.343.814 8.415 1.085 12.757.272 4.072.272 7.872.272 11.944 0 .814 0 1.628-.272 2.442 0 .272-.543.543-.814.815-.543.271-.814-.272-1.086-.543-.271-.814-.542-1.629-.814-2.443-1.086-4.886-2.171-9.5-3.257-14.386-1.629-7.872-3.529-15.472-6.243-23.072-1.629-4.614-2.9858-9.228-4.0715-13.843 0-.543-.5429-1.085-.5429-1.628 0-.272 0-.543 0-.543h-.2714c0 .271.2714.271.2714.543-.5429.271-.5429 1.085-.5429 1.628.2715 4.615.2715 9.229.8143 13.572.2715 3.8.8143 7.329 1.3572 11.129.2714 2.985.5429 6.243.5429 9.5 0 2.443-.2715 4.614-1.0858 7.057-.2714.543-.2714 1.086-.8143 1.629-.2714.271-.5428.542-.8143.542-.2714 0-.5428-.271-.8143-.542-.2714-.543-.2714-.815-.2714-1.358 0-1.357-.2714-2.714-.2714-4.071-.2715-7.057-1.6286-14.115-3.5286-20.9-2.4429-8.686-4.0715-17.372-5.1573-26.329 0-1.086-.2714-2.172-.5428-2.986 0-.271-.2714-.271-.2714-.543-.5429 0-.2715.543-.5429.814v1.086c-.8143 8.414-1.9 16.829-3.5286 24.972-.8143 3.528-1.6286 7.329-2.9858 10.586-.2714.814-.8143 1.628-1.3571 2.443-.2715.543-1.3572.271-1.3572-.272s-.2714-1.086-.2714-1.628c0-2.172.2714-4.615.5428-6.786.5429-5.157.5429-10.043.2715-15.2-.2715-5.429-.8143-10.586-1.0858-16.015 0-.543.2715-1.357-.5428-1.9-.2715 1.086-.2715 1.9-.5429 2.714-.8143 4.615-1.6286 8.958-3.5286 13.301-.5429 1.085-1.0857 2.171-1.9 3.257-.2715.271-.8143.271-1.0858.271-.2714 0-.5428-.543-.8143-.814-.2714-.543-.2714-1.357-.2714-1.9 0-3.529.2714-7.057.2714-10.586.2715-6.514.2715-13.3 0-19.815-.2714-5.971-.5428-12.214-.8143-18.186-.2714-2.714-.5428-5.428-.8143-8.142 0-.815 0-1.629-.8143-2.443-.2714 1.085-.2714 2.171-.2714 2.985-.8143 7.058-1.9 13.844-2.9857 20.901-.8143 5.971-2.4429 12.214-4.3429 17.914-.5429 1.629-1.3572 3.257-1.9001 4.886-.2714.543-.5428.814-.8143 1.086-.2714.271-.5428.271-.8143.271-.2714 0-.5428-.271-.5428-.543 0-.814 0-1.628 0-2.171.2714-2.986.8143-6.243 1.0857-9.229.5429-5.7 1.0857-11.4 1.3572-17.1.2714-2.986 0-6.243-.2715-9.5 0-.272-.2714-.815-.2714-1.357-.8143.271-.5429.814-.8143 1.357-1.0857 4.071-2.1715 8.143-3.5286 12.214-.8143 2.715-2.1715 5.429-3.5286 8.143-.2714.543-.8143 1.357-1.3572 1.9-.2714.272-1.3571 0-1.3571-.543 0-.271 0-.542 0-.814 0-.543 0-1.357.2714-1.9 1.6286-9.5 2.1715-19 2.9858-28.5 0-1.629 0-3.257.2714-5.158-.8143.272-.8143.815-.8143 1.358-.8143 2.985-1.6286 5.971-2.4429 8.957-.2714 1.357-1.0857 2.443-1.6286 3.8-.2715.271-.5428.543-.8143.814 0 0-.2714 0-.8143.272-1.0857-.543-1.6286-1.629-2.1715-2.715-.8143-1.628-1.6285-3.257-2.7143-5.157-.2714-.543-.5428-1.086-1.0857-1.9-.2714.543-.5429.814-.2714 1.086.2714 6.786.5428 13.3 2.4429 19.814 1.3571 3.8 2.4429 7.872 3.5286 11.672.2714.814.5428 1.629.5428 2.443 0 .271-.2714.543-.2714.543-.2714 0-.5429 0-.8143 0-.5429-.543-1.0857-.815-1.3572-1.357-1.9-2.715-3.8-5.429-5.4286-7.872-.2714-.271-.5429-.543-.5429-.814-.8142 0-.5428.543-.5428.814.5429 11.129 2.1714 21.986 5.9715 32.572.8143 2.443 1.9 4.614 2.9857 6.786.2715.543.5429 1.085.8143 1.628.2715.543.2715.814 0 1.357-.2714.272-.8143 0-1.3571-.543-.2715-.542-.5429-.814-1.0858-1.357-3.2571-4.614-6.5143-8.957-9.7715-13.571 0-.272-.2714-.272-.5429-.272-.5428.272-.2714.815-.2714 1.086 1.6286 10.043 3.8001 19.815 7.6001 29.586 1.6286 4.343 3.8001 8.686 6.5144 12.757.8143 1.086.8143 1.901.2714 1.901-.8143.271-1.0857-.272-1.6286-.815-4.0715-5.157-8.4144-10.586-11.943-16.286-1.0857-1.628-2.1715-3.528-3.2572-5.157-.8143.543-.5429 1.086-.5429 1.629.5429 9.5 2.4429 19 4.8858 28.229.8143 3.257 1.9 6.514 2.4429 10.043.5429 2.171.5429 4.614.8143 6.785 0 .543 0 1.358-.2714 1.9 0 .272-.5429.543-.8143.815-.2715 0-.8143-.272-1.0858-.272-.5428-.814-.8142-1.628-1.0857-2.171-2.4429-5.972-5.1572-11.672-7.6001-17.643-.2714-.543-.5428-.815-.8143-1.357-.2714 1.628.2715 2.714.5429 3.8 2.7143 11.671 4.6143 23.343 6.2429 35.014.8143 5.972 1.3572 11.943 1.6286 18.186 0 3.257-.2714 6.515-.2714 10.043 0 .815-.2714 1.357-.5429 2.172-.2714.543-1.0857.543-1.3571 0-.2715-.543-.5429-1.086-.8143-1.9-.8143-2.986-1.3572-5.7-1.9001-8.686-3.8-16.829-7.8715-33.386-12.4858-49.944-1.3572-4.343-2.7143-8.686-4.0715-13.3-.8143 1.357-.27145 2.172-.27145 2.986 1.35715 8.414 2.71435 17.1 4.07145 25.514 1.9001 11.672 4.0715 23.072 6.7858 34.744.2715 1.357.8143 2.986 1.0858 4.343 0 .543.2714 1.085.2714 1.628 0 .272-.2714.815-.5429.815-.2714 0-.8143 0-1.0857-.272-.5429-.543-.8143-1.357-1.0857-1.9-2.1715-4.614-4.6144-9.5-6.7858-14.114-.5429-1.357-1.3572-2.443-2.1715-3.8-.2714-.272-.54284-.543-1.35714-1.357.27144 1.628.54287 2.442.81429 3.257 3.25715 13.571 6.24295 27.414 8.68585 41.257.5428 2.986.8143 5.972 1.0857 8.958.2714 1.628-.2714 2.442-.8143 2.442-1.0857 0-1.3571-1.085-1.6286-1.628-.8143-1.9-1.6286-3.8-2.4429-5.7-1.9-3.8-7.60006-14.115-10.31439-17.915-.54286.543-.27142 1.086-.27142 1.9 1.62859 8.958 3.80005 17.915 5.97151 26.872 2.7143 10.313 5.7001 20.633 8.4144 30.943.2714.81.2714 1.9.5428 2.71 0 .28-.2714.55-.5428.55s-.5429 0-.8143 0c-.5429-.55-1.0857-1.09-1.3572-1.9-1.6286-2.99-3.2571-6.25-4.8857-9.5-1.62864-2.99-2.9858-6.25-4.6144-9.23-3.80005-7.873-7.05722-16.016-10.04297-24.159-1.6286-5.157-3.52862-10.314-5.15721-15.471-.27144-.543-.27144-.815-.8143-1.358 0 .815-.27144 1.358 0 2.172.27142 5.157.54286 10.314 1.08572 15.472.8143 8.957 1.90003 17.914 2.71433 26.874 0 .54.27142 1.35.27142 1.9 0 .27-.54284.81-.81428 1.08-1.08573-.54-1.35715-1.63-1.62859-2.44-1.08572-4.61-2.44292-9.229-3.52862-13.843-.5429-2.443-1.3572-4.886-1.9-7.329-2.1715-7.871-3.2572-15.743-4.0715-23.886-.2714-2.985-.8143-6.242-1.0857-9.228.5428-2.714.2714-3.257 0-3.8v-.272h-.2715c.2715 0 .2715.272.2715.272zm58.6293-176.431c.2714-.271.5429-.271.5429-.543 0-.814-.0001-1.9-.2715-2.714-.8143-6.515-2.1715-13.029-4.0715-19.543-.2714-.815-.2714-1.629-.5428-2.443-.2715-.272-.5429-.543-.5429-1.086 0 0 0 0-.2714.272.2714.271.5428.542.8143.814-.2715.271-.5429.543-.5429.814 0 1.086.2714 2.172.5429 3.257 1.3571 7.058 2.9857 14.115 4.3429 21.172.2714.271 0 .814 1.0857 1.086-.5429-.543-.8143-.815-1.0857-1.086zm-11.1287-40.443c0 .271.2714.271.2714.542l.2714-.271c-.2714 0-.2714 0-.5428-.271-.5429-.543-1.0858-1.358-1.9001-2.172-8.1429-7.6-17.1002-14.657-26.600296-20.9-2.442884-1.629-5.157214-2.714-7.871524-4.072-.8143-.271-1.6286-.542-2.17146-1.085-.27144-.272-.54286-.815-.54286-1.086 0-.543.54286-.814 1.08574-.543 1.35714 0 2.71431.272 4.34289.272-2.17144-1.629-13.30019-6.515-19.00019-8.686-4.3429-1.629-7.3287-2.172-10.043-2.172.8143.543 1.0857.815 1.6286 1.086 8.1429 4.614 16.2859 9.5 23.88597 14.929 7.8715338 5.7 15.74307 11.129 23.88603 16.557 3.8 2.714 7.8715 4.886 11.6716 7.329.5428.543 1.0857 1.086 1.6286.543zm106.6728-57.544c0-.271 0-.271 0-.543 0 0 0 0-.272 0 0 .272.272.272.272.543 3.529 2.714 7.057 5.157 10.857 7.872.272.271.814.542 1.086 1.085.814.815.271 1.9-.814 2.172-1.086 0-2.172 0-2.986-.272-6.514-.814-12.757-2.443-19.272-4.343-2.443-.814-5.157-1.357-7.6-2.171-.271 0-.814-.271-.814.543 2.443 1.086 5.157 2.171 7.871 3.257.815.271 1.629.543 2.443 1.086.272.271.543.543.543.814 0 .543-.271.814-.814 1.086-.814 0-1.629.271-2.443.271-3.529-.271-7.329-.543-10.857-.543-.543 0-1.358-.543-1.9.272.542.271 1.085.543 1.628.543 2.172.543 4.343 1.085 6.243 1.628.814.272 1.629.543 2.443.815.271.271.543.542.543.814 0 .271-.272.814-.814.814-.815.272-1.358.272-2.172.543-1.9 0-3.8.271-5.7 0-6.786-.271-13.5715-.814-20.0859-1.086-.5429 0-1.0857-.271-1.6286.272 1.0858.271 2.1715.543 2.9858.814.5428.271 1.3571.271 1.3571 1.086 0 .543-.2714 1.085-1.3571 1.357-1.0858.271-1.9.543-2.9858.814-2.9857.543-5.7 1.086-8.6858 1.629-.2714 0-1.0857 0-1.0857.814 1.3571.543 2.9857.814 4.3429 1.086.8143.271 1.6286.271 2.1714.543.2715.271.8143.543.8143 1.085 0 .272-.5428.815-.8143 1.086-.5428.272-1.3571.272-1.9.543-1.0857.271-2.4429.271-3.5286.543-2.9857.271-6.2429.543-9.2287 1.086-.2714 0-1.0857-.272-1.0857.542 2.7143 1.358 6.2429.815 8.9572 2.443 6.5144-2.443 13.0288-4.885 19.8145-6.786 12.757-3.528 25.515-5.971 38.543-7.328 17.372-1.9 34.744-2.443 52.115-.814 7.058.814 14.115 1.9 21.172 3.257.814 0 1.357.271 2.443.271-.272-.543-.543-.814-.543-.814-5.429-4.886-10.857-10.043-16.286-14.929-2.986-2.714-5.7-5.157-8.686-7.871-.543-.272-.814-.815-1.357-.543-.271-.272-.271-.543-.543-.815 0 0 0 0-.271 0 .271.272.543.543.543.815 1.357 1.357 2.714 2.714 3.8 4.071.543.543.814 1.086 1.085 1.629.272.271 0 .814 0 1.086-.271.271-.814.542-1.085.271-1.086-.272-1.9-.543-2.986-1.086-5.429-2.714-10.586-5.971-15.2-10.043-.814-.814-1.9-1.628-2.714-2.443-.272-.271-.543-.271-1.086-.271.543.814 1.357 1.629 1.9 2.443 4.071 4.343 8.143 8.414 12.214 12.757.815.814 1.629 1.629 2.172 2.714.543.815 0 2.172-1.086 1.9-1.086 0-2.171-.271-2.986-.814-2.171-1.086-4.071-2.171-6.243-3.528-2.985-2.172-5.7-4.343-8.686-6.515-.271-.271-.814-.543-1.357-.543.272.815.543 1.357 1.086 1.9 2.986 2.986 5.972 6.243 8.686 9.229.543.543 1.086 1.086 1.357 1.9.271.543-.271 1.357-1.086 1.357-.814-.271-1.628-.543-2.443-1.085-2.985-1.629-5.971-3.529-8.685-5.429-6.243-4.072-12.215-8.143-18.458-12.486-.543-.271-1.086-.814-1.9-1.086 0 .543.272 1.086.814 1.357 3.258 2.986 6.243 5.972 9.501 8.958.814.814 1.9 1.9 2.714 2.985.271.272.271 1.086.271 1.629-.271.814-1.085.814-1.628.814-1.086-.271-2.172-.543-3.257-.814-4.343-1.357-8.686-2.986-13.029-5.157-.814-.543-1.9-.815-2.986-1.086-.814-.543-1.086 0-1.357 0zm-192.4453 45.601c-.2715 0-.5429 0-.8143 0-.2715.271-.8143.543-1.0858.814-10.0429 8.143-18.7288 17.1-26.8717 27.143-4.6144 5.972-8.6858 12.215-12.7573 18.457-.5429.543-.8143 1.358-1.3572 1.901-.2714.542-1.3574.271-1.3574-.543 0-.815 0-1.629 0-2.172.543-4.343 1.086-8.957 1.6288-13.3.8143-5.971 1.6286-11.671 2.4429-17.372 0-.542 0-1.085 0-1.9-1.0857.543-1.3571 1.357-1.6286 2.172-6.5141 10.586-11.4001 21.986-14.9291 33.657-.814 2.443-1.628 5.158-2.443 7.6-.271.815-.542 1.358-1.085 1.901-.272.271-.815.271-1.086.271s-.543-.543-.543-.814c0-.543 0-1.358 0-1.9 0-3.529.272-7.058.272-10.586 0-4.615 0-9.5 0-14.115 0-.543.271-1.085-.272-1.357-1.628 1.9-5.7 8.686-8.414 14.115-4.343 8.957-7.329 18.457-9.772 27.957v1.357c.815-.543 1.357-1.085 2.172-1.357 4.614-3.257 9.228-6.514 14.114-9.229 5.972-3.257 12.215-6.243 18.458-8.685 11.9425-4.886 24.157-9.501 36.6428-12.486 12.4859-3.257 24.9718-6.243 37.7291-9.229 13.5716-3.257 27.4146038-6.514 40.7148-10.314 1.0857-.272 2.1714-.543 3.2571-1.086-.8142-.272-1.6285-.543-2.7143-.272-2.4428.272-5.15716.543-7.60005.815-1.08573 0-2.71434.814-3.52862-.543-.8143-1.086.54286-2.172 1.08572-2.986s.8143-1.357 1.35717-2.443c-1.08573.272-1.90003.543-2.71433.815-2.4428862.814-4.88576 1.628-7.32864 2.171-.8143.271-1.90003.814-2.71433-.271-.8143-1.086 0-1.9.54286-2.715 1.35717-1.9 2.71431-3.8 4.07148-5.971.27143-.543.54287-.815.8143-1.9-.81429.271-1.35717.543-1.90003.814-1.35716.814-2.98575 1.357-4.34291 2.172-4.34292 1.9-8.41442 4.614-11.94302 7.871-.8143.814-1.6286 1.357-2.4429 1.9-.5429.543-1.3571.814-2.1714.271-.5429-.271-.8143-1.085-.2715-2.171 0-.543.2715-.814.5429-1.357 1.3572-3.529 2.7143-6.786 4.3429-10.315.2714-.814.8143-1.628 1.0857-2.714.2715-.271 0-.814.2715-1.628-1.9.814-3.8001 1.357-5.4287 1.9-3.8 1.628-7.3286 3.528-10.8572 5.971-5.1573 3.8-10.043 7.872-14.3859 12.486-1.6286 1.629-3.2572 3.257-5.1573 4.886-.8142.814-1.6285.814-1.9.271-.5428-.543-.2714-1.357 0-1.9.8143-2.171 1.6286-4.343 2.7144-6.243 2.7143-5.7 5.7-11.4 8.4143-17.1.2715-.543.8143-1.357.8143-2.172-.5428.272-.8143.543-1.0857.815-.8143.543-1.3572 1.357-2.1714 1.9-9.5002 8.686-18.4574 17.914-24.7004 29.043-.2714.271-.5428.543-.8142.814 0 0-.2715 0-.5429 0-.2715 0-.2714-.271-.2714-.542.2714-.543.2714-1.358.5428-1.901 4.8858-9.228 9.7716-18.457 15.4716-27.143.5429-1.085 1.3572-1.9 1.9001-2.986-.2715 0-.2715-.271 0-.542zm-83.6007 45.057c-.272 0-.272 0-.543 0-.272.272-.272.543-.543.815-4.072 9.228-7.872 19-10.315 28.771-1.085 4.072-1.628 8.415-1.9 12.758 0 .271 0 .814.272 1.357.543-.543.814-.543 1.086-.814 2.985-2.986 5.971-5.972 9.228-8.958 1.086-1.085 1.629-2.171 1.629-3.528.271-9.772.814-19.272 1.086-29.044 0-.542 0-.814 0-1.357zm71.9291-90.115c-.2714.543 0 .814.2714 1.086 2.4429 1.357 4.8858 2.714 7.6001 4.071 1.0857.543 2.1715.543 3.2572 0 2.7143-1.357 5.1572-2.714 7.8715-3.8 1.6286-.814 3.2572-1.628 4.8858-2.443.2714-.271.8143-.271.5429-.814-.2715 0-.5429-.272-.8143-.272-7.8716.543-16.0145 1.086-23.6146 2.172zm42.3434 12.486c0-.272 0-.272 0-.543-2.7143-.543-5.1572-1.086-7.8716-1.629-5.4286-1.085-10.5858-1.9-16.0144-1.9-.5429 0-1.0858-.271-1.6286.543 2.7143 1.086 5.4286 2.172 8.1429 3.257 2.7143 1.086 5.4287 2.172 8.4144 3.529 0-1.357.8143-1.9 1.6286-1.9 1.6286-.271 3.2572-.543 4.8858-.814.8143-.272 1.6286-.272 2.4429-.543zm86.8582 28.229c-.2714-.272-.5429-.272-.5429-.272-.2714 0-.5428 0-.8143 0-5.7 1.9-10.8572 5.158-15.4716 8.686-2.4429 1.9-4.6143 4.072-6.5143 6.515-.2715.271-.2715.814-.8143 1.628 8.1429-6.243 16.0144-11.4 24.1574-16.557zm-1.0857-4.072c1.9.543 3.8.543 5.7.815.5429 0 1.0858-.272 1.6286-.543 1.9001-1.086 3.5287-1.9 5.4287-2.986.2714-.271.8143-.272.5428-.814-2.9857.271-11.4001 2.443-13.3001 3.528z"/></g></svg>