<svg fill="none" height="800" viewBox="0 0 24 24" width="800" xmlns="http://www.w3.org/2000/svg"><path clip-rule="evenodd" d="m6 2c-2.20914 0-4 1.79086-4 4v12c0 2.2091 1.79086 4 4 4h12c2.2091 0 4-1.7909 4-4v-12c0-2.20914-1.7909-4-4-4zm-2 4c0-1.10457.89543-2 2-2h12c1.1046 0 2 .89543 2 2v12c0 1.1046-.8954 2-2 2h-12c-1.10457 0-2-.8954-2-2zm5 5c0-.5523-.44772-1-1-1s-1 .4477-1 1v6c0 .5523.44772 1 1 1s1-.4477 1-1zm.5-3.5c0 .82843-.67157 1.5-1.5 1.5s-1.5-.67157-1.5-1.5.67157-1.5 1.5-1.5 1.5.67157 1.5 1.5zm2.5 2.5c.3395 0 .6395.1692.8203.4279.5126-.2777 1.0833-.4279 1.6797-.4279 2.1594 0 3.5 1.9258 3.5 3.5714v.0076.0075.0076.0076.0076.0077.0076.0077.0077.0077.0078.0077.0078.0078.0078.0078.0078.0079.0079.0078.008.0079.0079.008.0079.008.008.0081.008.0081.008.0081.0081.0081.0082.0081.0082.0081.0082.0082.0083.0082.0082.0083.0083.0082.0083.0084.0083.0083.0084.0084.0083.0084.0084.0084.0085.0084.0085.0084.0085.0085.0085.0085.0085.0085.0086.0085.0086.0086.0086.0085.0087.0086.0086.0086.0087.0086.0087.0086.0087.0087.0087.0087.0087.0087.0088.0087.0088.0087.0088.0087.0088.0088.0088.0088.0088.0088.0088.0088.0088.0089.0088.0089.0088.0089.0088.0089.0089.0089.0088.0089.0089.0089.0089.0089.0089.0089.009.0089.0089.0089.009.0089.0089.009.0089.009.0089.0089.009.009.0089.009.0089.009.009.0089.009.0089.009.009.0089.009.009.0089.009.009.009.0089.009.009.0089.009.009.0089.009.0089.009.0089.009.009.0089.009.0089.0089.009.0089.009.0089.0089.0089.009.0089.0089.0089.0089.0089.0089.0089.0089.0089.0089.0088.0089.0089.0088.0089.0088.0089.0088.0089.0088.0088.0088.0088.0088.0088.0088.0088.0088.0087.0088.0087.0088.0087.0087.0087.0087.0087.0087.0087.0087.0087.0086.0087.0086.0086.0087.0086.0086.0085.0086.0086.0086.0085.0085.0086.0085.0085.0085.0085.0084.0085.0084.0085.0084.0084.0084.0084.0084.0083.0084.0083.0083.0083.0083.0083.0083.0082.0083.0082.0082.0082.0082.0082.0081.0082.0081.0081.0081.0081.008.0081.008.008.008.008.008.0079.0079.008.0079.0078.0079.0079.0078.0078.0078.0078.0077.0078.0077.0077.0077.0077.0076.0077.0076.0076.0075.0076.0075.0075.0075.0075.0075.0074.0074.0074.0074.0073.0074.0073.0073.0072.0073.0072.0072.0072.0072.0071.0071.0071.0071.007.007.007.007.007.0069.0069.0069.0069.0068.0068.0068.0068.0067.0067.0067.0067.0067.0066.0066.0065.0066.0065.0065.0064.0065.0064.0064.0063.0064.0063.0063.0062.0062.0062.0062.0062.0061.0061.006.0061.006.0059.006.0059.0059.0059.0058.0058.0058.0057.0057.0057.0057.0056.0056.0056.0055.0055.0055.0054.0055.0053.0054.0053.0053.0053.0052.0052.0052.0051.0051.0051.005.005.005.0049.0049.0049.0048.0048.0048.0047.0047.0047.0046.0046.0046.0045.0045.0045.0044.0044.0044.0043.0043.0042.0042.0042.0042.0041.004.0041.004.0039.004.0039.0038.0038.0038.0037.0037.0037.0036.0036.0036.0035.0035.0034.0034.0034.0033.0033.0032.0032.0032.0031.0031.003.003.003.0029.0029.0029.0028.0027.0027.0027.0027.0026.0025.0025.0025.0024.0024.0024.0023.0023.0022.0021.0022.0021.002.002.002.0019.0019.0018.0018.0018.0017.0016.0016.0016.0015.0015.0014.0014.0014.0013.0012.0012.0012.0011.0011.001.001.0009.0009.0008.0008.0008.0007.0006.0006.0006.0005.0004.0004.0004.0003.0003.0002.0002.0001.0001c0 .5523-.4477 1-1 1s-1-.4477-1-1v-.0001-.0001-.0002-.0002-.0003-.0003-.0004-.0004-.0004-.0005-.0006-.0006-.0006-.0007-.0008-.0008-.0008-.0009-.0009-.001-.001-.0011-.0011-.0012-.0012-.0012-.0013-.0014-.0014-.0014-.0015-.0015-.0016-.0016-.0016-.0017-.0018-.0018-.0018-.0019-.0019-.002-.002-.002-.0021-.0022-.0021-.0022-.0023-.0023-.0024-.0024-.0024-.0025-.0025-.0025-.0026-.0027-.0027-.0027-.0027-.0028-.0029-.0029-.0029-.003-.003-.003-.0031-.0031-.0032-.0032-.0032-.0033-.0033-.0034-.0034-.0034-.0035-.0035-.0036-.0036-.0036-.0037-.0037-.0037-.0038-.0038-.0038-.0039-.004-.0039-.004-.0041-.004-.0041-.0042-.0042-.0042-.0042-.0043-.0043-.0044-.0044-.0044-.0045-.0045-.0045-.0046-.0046-.0046-.0047-.0047-.0047-.0048-.0048-.0048-.0049-.0049-.0049-.005-.005-.005-.0051-.0051-.0051-.0052-.0052-.0052-.0053-.0053-.0053-.0054-.0053-.0055-.0054-.0055-.0055-.0055-.0056-.0056-.0056-.0057-.0057-.0057-.0057-.0058-.0058-.0058-.0059-.0059-.0059-.006-.0059-.006-.0061-.006-.0061-.0061-.0062-.0062-.0062-.0062-.0062-.0063-.0063-.0064-.0063-.0064-.0064-.0065-.0064-.0065-.0065-.0066-.0065-.0066-.0066-.0067-.0067-.0067-.0067-.0067-.0068-.0068-.0068-.0068-.0069-.0069-.0069-.0069-.007-.007-.007-.007-.007-.0071-.0071-.0071-.0071-.0072-.0072-.0072-.0072-.0073-.0072-.0073-.0073-.0074-.0073-.0074-.0074-.0074-.0074-.0075-.0075-.0075-.0075-.0075-.0076-.0075-.0076-.0076-.0077-.0076-.0077-.0077-.0077-.0077-.0078-.0077-.0078-.0078-.0078-.0078-.0079-.0079-.0078-.0079-.008-.0079-.0079-.008-.008-.008-.008-.008-.0081-.008-.0081-.0081-.0081-.0081-.0082-.0081-.0082-.0082-.0082-.0082-.0082-.0083-.0082-.0083-.0083-.0083-.0083-.0083-.0083-.0084-.0083-.0084-.0084-.0084-.0084-.0084-.0085-.0084-.0085-.0084-.0085-.0085-.0085-.0085-.0086-.0085-.0085-.0086-.0086-.0086-.0085-.0086-.0086-.0087-.0086-.0086-.0087-.0086-.0087-.0087-.0087-.0087-.0087-.0087-.0087-.0087-.0087-.0088-.0087-.0088-.0087-.0088-.0088-.0088-.0088-.0088-.0088-.0088-.0088-.0088-.0089-.0088-.0089-.0088-.0089-.0088-.0089-.0089-.0088-.0089-.0089-.0089-.0089-.0089-.0089-.0089-.0089-.0089-.0089-.009-.0089-.0089-.0089-.009-.0089-.009-.0089-.0089-.009-.0089-.009-.009-.0089-.009-.0089-.009-.0089-.009-.009-.0089-.009-.009-.0089-.009-.009-.009-.0089-.009-.009-.0089-.009-.009-.0089-.009-.0089-.009-.009-.0089-.009-.0089-.009-.009-.0089-.0089-.009-.0089-.009-.0089-.0089-.009-.0089-.0089-.0089-.009-.0089-.0089-.0089-.0089-.0089-.0089-.0089-.0088-.0089-.0089-.0089-.0088-.0089-.0088-.0089-.0088-.0089-.0088-.0088-.0088-.0088-.0088-.0088-.0088-.0088-.0088-.0087-.0088-.0087-.0088-.0087-.0088-.0087-.0087-.0087-.0087-.0087-.0087-.0086-.0087-.0086-.0087-.0086-.0086-.0086-.0087-.0085-.0086-.0086-.0086-.0085-.0086-.0085-.0085-.0085-.0085-.0085-.0085-.0084-.0085-.0084-.0085-.0084-.0084-.0084-.0083-.0084-.0084-.0083-.0083-.0084-.0083-.0082-.0083-.0083-.0082-.0082-.0083-.0082-.0082-.0081-.0082-.0081-.0082-.0081-.0081-.0081-.008-.0081-.008-.0081-.008-.008-.0079-.008-.0079-.0079-.008-.0078-.0079-.0079-.0078-.0078-.0078-.0078-.0078-.0077-.0078-.0077-.0077-.0077-.0076-.0077-.0076-.0076-.0076-.0075-.0076c0-.7682-.6594-1.5714-1.5-1.5714-.5241 0-1.1026.2849-1.5.9631v.0027.0103.0103.0103.0104.0103.0104.0104.0105.0104.0104.0105.0105.0105.0105.0105.0106.0106.0105.0106.0106.0106.0107.0106.0107.0107.0106.0108.0107.0107.0107.0108.0108.0107.0108.0108.0108.0109.0108.0109.0108.0109.0109.0109.0109.0109.0109.011.0109.011.0109.011.011.011.011.011.011.0111.011.011.0111.0111.011.0111.0111.0111.0111.0111.0111.0111.0112.0111.0111.0112.0111.0112.0112.0111.0112.0112.0112.0111.0112.0112.0112.0113.0112.0112.0112.0112.0112.0113.0112.0112.0113.0112.0113.0112.0113.0112.0112.0113.0113.0112.0113.0112.0113.0112.0113.0113.0112.0113.0112.0113.0113.0112.0113.0112.0113.0112.0113.0112.0113.0112.0113.0112.0113.0112.0113.0112.0112.0112.0113.0112.0112.0112.0112.0112.0112.0112.0112.0112.0112.0112.0111.0112.0112.0111.0112.0111.0112.0111.0111.0111.0111.0112.0111.011.0111.0111.0111.011.0111.011.0111.011.011.011.011.011.011.011.0109.011.0109.011.0109.0109.0109.0109.0109.0108.0109.0108.0109.0108.0108.0108.0108.0108.0107.0108.0107.0107.0107.0107.0107.0107.0107.0106.0106.0106.0106.0106.0106.0106.0105.0105.0105.0105.0105.0105.0104.0104.0105.0104.0103.0104.0104.0103.0103.0103.0103.0102.0103.0102.0102.0102.0102.0101.0102.0101.0101.01.0101.01.01.01.01.01.0099.0099.0099.0099.0098.0099.0098.0098.0097.0098.0097.0097.0097.0096.0097.0096.0096.0095.0096.0095.0095.0095.0094.0094.0094.0094.0094.0093.0093.0092.0093.0092.0092.0092.0091.0092.0091.009.0091.009.009.0089.009.0089.0089.0088.0088.0088.0088.0087.0087.0087.0087.0086.0086.0086.0085.0085.0085.0085.0084.0084.0083.0083.0083.0083.0083.0082.0081.0082.0081.0081.008.008.008.008.0079.0079.0078.0078.0078.0078.0077.0077.0076.0077.0076.0075.0075.0075.0075.0074.0073.0074.0073.0073.0072.0072.0072.0071.0071.007.0071.0069.007.0069.0069.0068.0068.0067.0068.0067.0066.0066.0066.0065.0065.0064.0064.0064.0064.0062.0063.0062.0062.0061.0061.0061.006.0059.006.0059.0058.0058.0058.0057.0057.0056.0056.0056.0055.0054.0055.0053.0054.0053.0052.0052.0052.0051.0051.005.005.0049.0049.0049.0048.0048.0047.0046.0047.0045.0046.0045.0044.0044.0043.0043.0043.0042.0041.0042.004.004.004.0039.0039.0038.0038.0037.0037.0036.0036.0035.0035.0034.0034.0033.0033.0032.0032.0031.0031.003.003.0029.0029.0028.0027.0028.0026.0026.0026.0025.0024.0024.0024.0023.0022.0022.0021.0021.002.002.0019.0019.0018.0017.0017.0016.0016.0016.0014.0014.0014.0013.0013.0012.0011.0011.001.001.0009.0008.0008.0007.0007.0006.0006.0005.0004.0004.0004.0002.0002.0002.0001c0 .5523-.4477 1-1 1s-1-.4477-1-1v-.0001-.0002-.0002-.0002-.0004-.0004-.0004-.0005-.0006-.0006-.0007-.0007-.0008-.0008-.0009-.001-.001-.0011-.0011-.0012-.0013-.0013-.0014-.0014-.0014-.0016-.0016-.0016-.0017-.0017-.0018-.0019-.0019-.002-.002-.0021-.0021-.0022-.0022-.0023-.0024-.0024-.0024-.0025-.0026-.0026-.0026-.0028-.0027-.0028-.0029-.0029-.003-.003-.0031-.0031-.0032-.0032-.0033-.0033-.0034-.0034-.0035-.0035-.0036-.0036-.0037-.0037-.0038-.0038-.0039-.0039-.004-.004-.004-.0042-.0041-.0042-.0043-.0043-.0043-.0044-.0044-.0045-.0046-.0045-.0047-.0046-.0047-.0048-.0048-.0049-.0049-.0049-.005-.005-.0051-.0051-.0052-.0052-.0052-.0053-.0054-.0053-.0055-.0054-.0055-.0056-.0056-.0056-.0057-.0057-.0058-.0058-.0058-.0059-.006-.0059-.006-.0061-.0061-.0061-.0062-.0062-.0063-.0062-.0064-.0064-.0064-.0064-.0065-.0065-.0066-.0066-.0066-.0067-.0068-.0067-.0068-.0068-.0069-.0069-.007-.0069-.0071-.007-.0071-.0071-.0072-.0072-.0072-.0073-.0073-.0074-.0073-.0074-.0075-.0075-.0075-.0075-.0076-.0077-.0076-.0077-.0077-.0078-.0078-.0078-.0078-.0079-.0079-.008-.008-.008-.008-.0081-.0081-.0082-.0081-.0082-.0083-.0083-.0083-.0083-.0083-.0084-.0084-.0085-.0085-.0085-.0085-.0086-.0086-.0086-.0087-.0087-.0087-.0087-.0088-.0088-.0088-.0088-.0089-.0089-.009-.0089-.009-.009-.0091-.009-.0091-.0092-.0091-.0092-.0092-.0092-.0093-.0092-.0093-.0093-.0094-.0094-.0094-.0094-.0094-.0095-.0095-.0095-.0096-.0095-.0096-.0096-.0097-.0096-.0097-.0097-.0097-.0098-.0097-.0098-.0098-.0099-.0098-.0099-.0099-.0099-.0099-.01-.01-.01-.01-.01-.0101-.01-.0101-.0101-.0102-.0101-.0102-.0102-.0102-.0102-.0103-.0102-.0103-.0103-.0103-.0103-.0104-.0104-.0103-.0104-.0105-.0104-.0104-.0105-.0105-.0105-.0105-.0105-.0105-.0106-.0106-.0106-.0106-.0106-.0106-.0106-.0107-.0107-.0107-.0107-.0107-.0107-.0107-.0108-.0107-.0108-.0108-.0108-.0108-.0108-.0109-.0108-.0109-.0108-.0109-.0109-.0109-.0109-.0109-.011-.0109-.011-.0109-.011-.011-.011-.011-.011-.011-.011-.0111-.011-.0111-.011-.0111-.0111-.0111-.011-.0111-.0112-.0111-.0111-.0111-.0111-.0112-.0111-.0112-.0111-.0112-.0112-.0111-.0112-.0112-.0112-.0112-.0112-.0112-.0112-.0112-.0112-.0112-.0112-.0113-.0112-.0112-.0112-.0113-.0112-.0113-.0112-.0113-.0112-.0113-.0112-.0113-.0112-.0113-.0112-.0113-.0112-.0113-.0113-.0112-.0113-.0112-.0113-.0113-.0112-.0113-.0112-.0113-.0112-.0113-.0113-.0112-.0112-.0113-.0112-.0113-.0112-.0113-.0112-.0112-.0113-.0112-.0112-.0112-.0112-.0112-.0113-.0112-.0112-.0112-.0111-.0112-.0112-.0112-.0111-.0112-.0112-.0111-.0112-.0111-.0111-.0112-.0111-.0111-.0111-.0111-.0111-.0111-.0111-.011-.0111-.0111-.011-.011-.0111-.011-.011-.011-.011-.011-.011-.0109-.011-.0109-.011-.0109-.0109-.0109-.0109-.0109-.0109-.0108-.0109-.0108-.0109-.0108-.0108-.0108-.0107-.0108-.0108-.0107-.0107-.0107-.0108-.0106-.0107-.0107-.0106-.0107-.0106-.0106-.0106-.0105-.0106-.0106-.0105-.0105-.0105-.0105-.0105-.0104-.0104-.0105-.0104-.0104-.0103-.0104-.0103-.0103-.0103-.0103-.0103-.0103-.0102-.0102-.0102-.0102-.0101-.0102-.0101-.0101-.0101-.01-.0101-.01-.01-.01-.01-.0099-.0099-.0099-.0099-.0099-.0098-.0098-.0039-.004-.0039-.004-.0039-.004-.004-.004-.004-.004-.004-.004-.004-.004-.0041-.004-.0041-.0041-.004-.0041-.0041-.0041-.0041-.0041-.0041-.0041-.0041-.0042-.0041-.0042-.0041-.0042-.0042-.0041-.0042-.0042-.0042-.0042-.0042-.0042-.0042-.0043-.0042-.0042-.0043-.0042-.0043-.0042-.0043-.0043-.0042-.0043-.0043-.0043-.0043-.0043-.0043-.0043-.0043-.0044-.0043-.0043-.0043-.0044-.0043-.0044-.0043-.0044-.0044-.0043-.0044-.0044-.0043-.0044-.0044-.0044-.0044-.0044-.0044-.0044-.0044-.0044-.0044-.0045-.0044-.0044-.0044-.0045-.0044-.0044-.0045-.0044-.0045-.0044-.0045-.0044-.0045-.0044-.0045-.0045-.0044-.0045-.0045-.0044-.0045-.0045-.0045-.0044-.0045-.0045-.0045-.0045-.0045-.0044-.0045-.0045-.0045-.0045-.0045-.0045-.0045-.0045-.0045-.0045-.0045-.0045-.0045-.0045-.0045-.0045-.0045-.0045-.0045-.0045-.0045-.0045-.0045-.0045-.0045-.0045-.0045-.0046-.0045-.0045-.0045-.0045-.0045-.0045-.0045-.0045-.0045-.0044-.0045-.0045-.0045-.0045-.0045-.0045-.0045-.0045-.0045-.0044-.0045-.0045-.0045-.0044-.0045-.0045-.0045-.0044-.0045-.0045-.0044-.0045-.0044-.0045-.0044-.0045-.0044-.0045-.0044-.0044-.0045-.0044-.0044-.0045-.0044-.0044-.0044-.0044-.0044-.0044-.0044-.0044-.0044-.0044-.0044-.0044-.0043-.0044-.0044-.0044-.0043-.0044-.0043-.0044-.0043-.0044-.0043-.0043-.0043-.0044-.0043-.0043-.0043-.0043-.0043-.0043-.0043-.0042-.0043-.0043-.0042-.0043-.0043-.0042-.0042-.0043-.0042-.0042-.0042-.0042-.0043-.0042-.0041-.0042-.0042-.0042-.0041-.0042-.0042-.0041-.0041-.0042-.0041-.0041-.0041-.0041-.0041-.0041-.0041-.0041-.004-.0041-.0041-.004-.004-.0041-.004-.004-.004-.004-.004-.004-.004-.0039-.004-.0039-.004-.0039-.0039-.004-.0039-.0039-.0038-.0039-.0039-.0039-.0038-.0039-.0038-.0038-.0038-.0038-.0038-.0038-.0038-.0038-.0037-.0038-.0037-.0037-.0038-.0037-.0037-.0037-.0036-.0037-.0037-.0036-.0037-.0036-.0036-.0036-.0036-.0036-.0036-.0035-.0036-.0035-.0036-.0035-.0035-.0035-.0035-.0034-.0035-.0034-.0035-.0034-.0034-.0034-.0034-.0034-.0034-.0033-.0034-.0033-.0033-.0033-.0033-.0033-.0033-.0032-.0033-.0032-.0032-.0032-.0032-.0032-.0032-.0031-.0032-.0031-.0031-.0031-.0031-.0031-.003-.0031-.003-.003-.003-.003-.003-.003-.0029-.003-.0029-.0029-.0029-.0029-.0028-.0029-.0028-.0029-.0028-.0028-.0027-.0028-.0027-.0028-.0027-.0027-.0027-.0027-.0026-.0027-.0026-.0026-.0026-.0026-.0025-.0026-.0025-.0025-.0025-.0025-.0025-.0024-.0025-.0024-.0024-.0024-.0024-.0023-.0024-.0023-.0023-.0023-.0022-.0023-.0022-.0023-.0022-.0022-.0021-.0022-.0021-.0021-.0021-.0021-.0021-.002-.0021-.002-.002-.0019-.002-.0019-.002-.0019-.0018-.0019-.0019-.0018-.0018-.0018-.0018-.0017-.0018-.0017-.0017-.0017-.0016-.0017-.0016-.0016-.0016-.0016-.0015-.0015-.0015-.0015-.0015-.0015-.0014-.0014-.0014-.0014-.0013-.0013-.0014-.0012-.0013-.0013-.0012-.0012-.0012-.0012-.0011-.0011-.0011-.0011-.0011-.001-.0011-.001-.0009-.001-.0009-.0009-.0009-.0009-.0009-.0008-.0008-.0008-.0008-.0007-.0007-.0007-.0007-.0007-.0006-.0006-.0006-.0006-.0005-.0005-.0005-.0005-.0005-.0004-.0004-.0004-.0003-.0004-.0003-.0003-.0003-.0002-.0002-.0002-.0002-.0002-.0001-.0001-.0001-.0001c0-.5523.4477-1 1-1z" fill-rule="evenodd"/></svg>