<svg fill="none" viewBox="0 0 31 32" xmlns="http://www.w3.org/2000/svg"><path clip-rule="evenodd" d="m1.72559 4.5028c0-.61172.243-1.19839.67556-1.63095.43255-.43255 1.01922-.67556 1.63095-.67556h22.9923c.3032-.00049.6034.05881.8836.17452.2802.1157.5349.28554.7493.49979.2145.21424.3846.46869.5007.74876.116.28008.1756.58029.1754.88344v22.9923c.0004.3032-.0591.6035-.1749.8837-.1159.2802-.2858.5349-.5002.7493-.2143.2145-.4689.3846-.749.5006-.2802.116-.5804.1756-.8836.1754h-22.9936c-.303 0-.60304-.0597-.88296-.1757-.27992-.1159-.53424-.286-.74844-.5003-.21419-.2143-.38406-.4687-.4999-.7487s-.17538-.58-.17521-.883zm10.92771 8.2196h3.7383v1.8773c.5396-1.0792 1.92-2.0505 3.9944-2.0505 3.9768 0 4.9192 2.1497 4.9192 6.0938v7.3061h-4.0245v-6.4076c0-2.2462-.5396-3.5137-1.9099-3.5137-1.9012 0-2.6918 1.3666-2.6918 3.5137v6.4076h-4.0257zm-6.90199 13.0548h4.02573v-13.228h-4.02573zm4.60169-17.54232c.0076.34469-.0537.68742-.1804 1.00808-.1266.32066-.31606.6128-.55715.85924-.2411.2465-.52899.4423-.84678.576-.3178.1337-.6591.2025-1.00387.2025s-.68607-.0688-1.00386-.2025c-.3178-.1337-.60569-.3295-.84678-.576-.24109-.24644-.43053-.53858-.55719-.85924s-.18799-.66339-.1804-1.00808c.0149-.67657.29413-1.32042.77789-1.79365.48377-.47323 1.1336-.73822 1.81034-.73822s1.32658.26499 1.81034.73822.76296 1.11708.77786 1.79365z" fill="#ffc175" fill-rule="evenodd"/></svg>