<svg fill="none" viewBox="0 0 1919 809" xmlns="http://www.w3.org/2000/svg" xmlns:xlink="http://www.w3.org/1999/xlink"><mask id="a" height="781" maskUnits="userSpaceOnUse" width="2037" x="-44" y="28"><path d="m1992.54 28.7714h-2035.7373v779.4546h2035.7373z" fill="#fff"/></mask><mask id="b" height="781" maskUnits="userSpaceOnUse" width="2037" x="-44" y="28"><path d="m1992.54 28.7714h-2035.7373v779.4546h2035.7373z" fill="#fff"/></mask><mask id="c" height="781" maskUnits="userSpaceOnUse" width="2037" x="-44" y="28"><path d="m1992.54 28.7714h-2035.7373v779.4546h2035.7373z" fill="#fff"/></mask><mask id="d" height="781" maskUnits="userSpaceOnUse" width="2037" x="-44" y="28"><path d="m1992.54 28.7714h-2035.7373v779.4546h2035.7373z" fill="#fff"/></mask><mask id="e" height="781" maskUnits="userSpaceOnUse" width="2037" x="-44" y="28"><path d="m1992.54 28.7714h-2035.7373v779.4546h2035.7373z" fill="#fff"/></mask><mask id="f" height="781" maskUnits="userSpaceOnUse" width="2037" x="-44" y="28"><path d="m1992.54 28.7714h-2035.7373v779.4546h2035.7373z" fill="#fff"/></mask><mask id="g" height="781" maskUnits="userSpaceOnUse" width="2037" x="-44" y="28"><path d="m1992.54 28.7714h-2035.7373v779.4546h2035.7373z" fill="#fff"/></mask><mask id="h" height="781" maskUnits="userSpaceOnUse" width="2037" x="-44" y="28"><path d="m1992.54 28.7714h-2035.7373v779.4546h2035.7373z" fill="#fff"/></mask><g opacity=".5"><g mask="url(#a)"><path d="m-245.143 141.245v-112.4733l1976.293 21.1194z" fill="#00c3db" opacity=".45"/></g><g mask="url(#b)"><path d="m2333.19 101.464v-49.6066l-865.32 28.9778z" fill="#00c3db" opacity=".45"/></g><g mask="url(#c)"><path d="m832.442 106.864 736.398-7.8584 959.51 33.8894z" fill="#00c3db" opacity=".45"/></g><g mask="url(#d)"><path d="m385.394 161.381 639.496-23.084 832.48 37.328z" fill="#00c3db" opacity=".55"/></g><g mask="url(#e)"><path d="m927.172 367.668 639.768-49.607 832.48 43.713z" fill="#41def4" opacity=".3"/></g><g mask="url(#f)"><path d="m-245.143 387.312v-67.778l1361.773 15.225z" fill="#00c3db" opacity=".3"/></g><g mask="url(#g)"><path d="m-178.642 522.378 639.494-24.557 832.478 36.345z" fill="#41def4" opacity=".2"/></g><g mask="url(#h)"><path d="m2333.19 477.193h-2578.333v-60.412l2578.333-48.132z" fill="#41def4" opacity=".2"/></g><g fill="#41def4"><path d="m-245.143 647.131h2578.333v-60.903l-2578.333-48.132z" opacity=".2"/><path d="m2333.19 296.448h-2578.333v-60.903l2578.333-48.133z" opacity=".3"/><path d="m-245.143 139.28h2578.333v-60.9027l-2578.333-48.1326z" opacity=".3"/></g><g fill="#1eb8f9"><path d="m2704.51 248.314-314.86-28.977-999.96 30.942z"/><path d="m2234.93 6.67068-175.07-6.385035-557.52 4.420315z"/></g></g></svg>