<svg fill="none" viewBox="0 0 402 1077" xmlns="http://www.w3.org/2000/svg"><g fill="#120b2f"><path d="m260.024 589.498c-1.085 0-1.357 1.086-1.9 1.9-2.714 5.157-5.7 10.586-8.414 15.743-3.529 6.515-6.786 13.029-10.586 19.272-3.528 5.972-7.6 11.4-11.4 17.1-.543.815-1.357 1.629-1.9 2.443-.814.814-1.357 1.629-2.714 1.357-.815-.271-1.086-1.357-.543-3.257.543-1.357 1.085-2.714 1.628-3.8 3.529-7.871 7.329-15.472 10.858-23.343 4.343-9.229 8.685-18.729 12.757-27.958 5.157-11.943 10.314-23.886 16.014-35.557 1.358-2.986 2.986-5.972 4.072-9.229-1.086-.814-1.629 0-2.172.543-3.8 4.072-7.871 8.143-11.671 12.486-5.157 5.7-10.315 11.672-15.472 17.643-.814 1.086-1.9 1.9-2.986 2.714-.271.272-1.085 0-1.357-.271-.271-.272-.543-.814-.271-1.086.271-.814.814-1.628 1.086-2.443 11.943-20.629 24.157-40.986 38.543-59.986 3.528-4.886 7.057-9.5 10.586-14.386.543-.814 1.086-1.9 1.9-2.986-1.086-.543-1.629.272-2.172.543-12.757 10.043-24.7 21.172-35.014 33.929-.543.814-1.358 1.357-1.9 1.9-.272 0-.543 0-.815-.271-.271-.272-.543-.543-.543-.815 0-.543.272-.814.272-1.357.814-1.357 1.629-2.443 2.714-3.8 12.215-17.1 24.429-34.2 38.543-49.943 2.443-2.715 4.615-5.7 7.058-8.415.271-.271.271-.543.271-.814-1.086-.814-1.628.271-2.171.814-10.315 7.057-20.9 13.3-31.486 19.815-1.086.814-2.443 1.357-3.529 2.171-1.357.814-2.443.814-2.986 0-.543-1.086.272-1.628.815-2.443.814-1.085 1.9-1.9 2.985-2.985 10.586-10.586 21.172-20.901 31.758-31.487 11.4-11.128 22.8-22.257 34.2-33.386 1.086-1.085 1.9-1.9 2.715-2.985.271-.272-.272-.815-.272-1.086l.272-.272h.271c-.271 0-.271 0-.543 0-1.629 1.086-3.257 2.172-4.886 3.258-4.885 2.985-9.771 5.971-14.386 8.957-10.043 6.514-19.271 14.114-27.686 22.8-1.357 1.357-2.714 3.257-5.157 4.072-.271-.543-.543-1.358-.543-1.629.272-.814.815-1.629 1.358-2.443 5.157-7.057 10.314-14.114 15.743-20.9 10.585-13.843 23.071-25.515 36.372-36.372 10.042-8.143 20.628-15.472 31.486-22.529 1.628-1.086 3.257-2.171 4.885-3.257.272-.272.272-.543.543-1.086-1.086.272-1.9.272-2.714.543-7.057 2.172-14.115 4.886-20.9 8.143-1.358.543-2.715 1.086-4.343 1.629-.272 0-1.086-.272-1.086-.272 0-.543 0-1.357.271-1.628 1.086-1.086 2.172-2.172 3.529-2.986 11.4-8.415 22.8-16.829 34.472-24.429 5.7-3.8 11.129-7.6 16.829-11.129.814-.543 1.628-1.357 2.985-2.714-2.171.543-2.985.543-4.071.814-3.529 1.086-7.057 2.443-10.586 3.257-2.714.815-5.429 1.358-8.143 1.9-.271 0-1.086-.542-1.357-.814-.272-.271 0-1.086.271-1.357 1.086-1.086 2.172-1.9 4.072-3.529-2.443.272-4.072 1.086-5.7 1.358-1.9.542-3.529 1.085-5.157 1.628-5.7 2.172-11.672 4.072-17.372 6.243-.543.271-.814.271-1.357.543-.815.271-1.629 0-1.9-.814-.272-.543 0-1.358.271-1.629 1.086-1.086 2.443-1.9 3.529-2.986.543-.543 1.086-1.085 1.628-1.357l.272-.271v-.272c0 .272 0 .543-.272.815-1.9-.272-3.257 1.085-4.614 1.9-7.057 4.342-13.843 8.957-20.629 13.843-1.086.814-2.171 1.628-3.528 2.171-.272.272-1.086 0-1.358-.271-.271-.543-.814-1.086-.542-1.629.542-1.357 1.357-2.443 2.171-3.529 3.8-5.7 7.6-11.4 11.4-17.1.543-.814.814-1.628 1.629-2.986-1.357.543-1.9.543-2.443.815-8.414 5.157-16.015 11.4-21.986 19.271-2.714 3.529-5.157 6.786-7.872 10.315-.814.814-1.628 1.9-2.714 2.443-.543.543-2.171-.272-1.9-1.357 0-.815.271-1.629.543-2.172.814-1.9 1.628-3.528 2.443-5.428 3.257-7.329 6.514-14.929 10.043-22.258-1.357-.814-1.9.543-2.443.814-14.929 12.486-27.686 26.872-38.543 42.887-2.986 4.343-5.972 8.957-8.958 13.3-.814 1.085-1.357 1.9-2.171 2.986-.272.271-1.086.542-1.629.271-.814-.271-1.086-1.086-.543-1.9.272-1.086.815-1.9 1.358-2.986 7.871-17.1 16.828-33.657 27.143-49.672.271-.271.271-.814.543-1.357-1.086-.814-1.629.271-2.172.814-6.786 5.157-13.571 10.586-20.357 15.743-4.072 3.258-8.415 6.243-12.758 8.958-1.9 1.357-4.343 2.443-6.514 3.528-.814.272-1.629.272-2.714.272-.815 0-1.357-1.086-1.086-1.9.543-.815 1.086-1.629 1.629-2.172 2.714-2.714 5.7-5.157 8.414-7.871 5.972-5.7 11.4-11.401 16.557-17.915.543-.814 1.086-1.628 2.172-3.257-2.172.814-3.257 1.357-4.343 2.171-11.129 7.058-22.529 13.843-33.658 20.629-6.514 4.072-13.3 7.872-20.357 10.586-3.529 1.357-7.057 2.443-10.314 3.529-.815.271-1.9.271-2.715.271-.543 0-1.086-.543-1.357-1.086s0-1.357.271-1.628c.815-.815 1.901-1.357 2.986-2.172 4.343-2.443 8.415-4.885 12.758-7.328 7.057-4.343 13.3-9.772 19.543-15.472.271-.271.543-.814.814-1.086 0 0 0-.271 0-.543-1.9.815-3.529 1.9-5.429 2.715-16.557 8.143-31.486 18.457-45.329 30.4-11.129 9.772-22.257 19.272-33.386 28.772-.814.814-1.9 1.629-2.986 2.171-.271.272-.814 0-1.357-.271-.271-.271-.543-.814-.543-1.086 0-.271 0-.543.272-.814.271-.543.542-1.086 1.085-1.629 10.586-13.028 18.729-27.143 27.415-41.529 5.157-8.414 10.315-16.829 15.472-24.971.543-.815.814-1.629 1.628-2.986-1.085.271-1.628.271-1.9.543-6.243 4.614-11.671 9.771-16.014 16.285-7.057 10.315-14.386 20.629-21.986 30.672-4.886 6.786-10.315 13.029-15.2 19.543-2.172 2.715-4.343 5.429-6.515 8.143-.543.543-.814 1.358-1.628 1.629-.272.271-.815.271-1.358.271-.271-.271-.814-.542-.814-1.085 0-.815 0-1.629.272-2.172.814-2.171 1.628-4.343 2.171-6.514 3.8-11.129 5.7-22.529 6.243-34.201 0-.542 0-1.085 0-1.9 0 0-.271-.271-.271-.542-1.629.542-2.172 2.171-2.986 3.257-8.143 11.671-16.558 23.343-24.701 35.014-8.1425 11.401-16.5569 22.529-25.7856 32.844-.8143 1.086-1.8999 1.9-2.9857 2.986-.2714.271-1.3572.271-1.6287 0-.2714-.272-.8141-1.086-.5427-1.629.2714-1.357.8143-2.714 1.3572-3.8 4.3429-8.686 8.6858-17.643 13.0287-26.329 8.9572-17.1 16.0148-35.015 22.7998-53.201.272-.543.272-1.085.543-2.714-1.628 1.357-2.443 2.171-3.257 2.986-8.1429 8.414-16.0144 16.828-24.4288 25.243-7.8716 7.871-16.0145 15.2-23.886 22.8-.5429.543-1.3571 1.086-2.1714 1.629-.2715.271-1.0858 0-1.3572-.272-.2714-.271-.5428-.814-.2714-1.357.5429-1.086 1.3571-2.171 1.8999-2.986 7.0573-8.685 14.1145-17.371 20.9003-26.328 10.3144-13.029 20.6289-26.329 30.9436-39.358 1.357-1.629 2.714-3.257 3.8-5.429-1.357-.814-2.172 0-2.986.543-10.5859 5.429-21.4431 10.586-32.0289 16.015-7.6001 3.8-15.2003 7.6-22.8004 11.128-6.2429 2.986-12.7573 4.886-19.5431 6.515-2.4429.543-4.8858 1.357-7.6001 2.171-1.0857.272-2.1715.272-3.2572.272-.2714 0-.8143-.543-.8143-.815 0-.271.0001-1.085.2716-1.085 1.6286-.543 2.9856-1.358 4.6142-1.9 8.6858-2.443 17.1003-5.158 25.2433-8.415 10.5858-4.071 20.6287-9.5 30.1289-15.743 11.4001-7.329 22.8-14.657 34.2-21.714 2.986-1.9 5.972-3.529 8.958-5.429 1.9-15.472 5.7-30.4 9.5-44.786-.814-.815-1.357-.272-1.629 0-14.929 14.657-28.5 30.4-38.8146 48.857-1.0857 1.629-1.9 3.529-2.7143 5.158-.2715.542-.5429 1.085-.8143 1.628-.5429.272-1.0858.543-1.6287.543-.5428-.271-.8142-.814-.8142-1.357 0-1.086.2714-2.172.8142-2.986 1.9-5.7 4.0715-11.671 5.9716-17.372 4.6143-13.3 8.9573-26.328 13.5713-39.629.543-1.357.543-2.714.815-4.071-1.901 0-2.715 1.086-3.8 1.9-8.9577 7.329-17.915 14.929-26.3294 23.072-17.9145 17.1-35.0146 34.743-51.8434 52.929-.8143 1.086-1.9001 2.171-2.9858 2.714-.5429.272-1.3572.272-2.1715 0-.2714-.271-.5428-1.086-.2713-1.628.2714-1.086.8143-1.9 1.3571-2.986 13.8431-22.529 29.8575-43.429 48.8578-61.887 6.2429-6.243 13.0286-11.943 20.0858-17.371 1.0858-.815 2.1716-1.9 2.9859-3.529-.8143.272-1.9.543-2.7143.814-6.5144 2.986-13.3003 5.7-19.8147 8.686-7.6001 3.257-15.4715 5.7-23.6144 7.6-2.1715.543-4.3431.543-6.2431.815-.8143 0-1.6285-.272-1.6285-1.086 0-.543.2714-1.629.8142-1.9 1.3572-.814 2.7143-1.629 4.0715-2.172 23.6146-10.585 46.6864-22.528 69.4871-34.743 8.957-4.886 17.643-10.043 26.328-14.929.543-.271 1.358-.542 1.629-1.9-2.171 0-4.071.815-6.243 1.358-8.686 2.442-17.372 4.885-25.786 8.414-.543.271-.814.271-1.357.271-.543-.271-1.357-.543-1.357-.814-.272-.543 0-1.357.271-1.629.543-.542 1.086-1.085 1.629-1.357 14.657-8.686 29.314-17.643 44.243-26.329 9.5-5.428 19.543-9.771 29.858-13.028.543-.272 1.085-.543 1.628-.815.272 0 .272-.542.815-.814-1.358-.271-2.443-.543-3.529-.543-4.614-.271-9.229-.814-13.843-1.086-1.629 0-3.257-.271-3.8-1.9-.543-1.085.543-2.442 2.986-3.528 7.057-2.443 13.843-4.886 20.9-7.057 4.343-1.358 8.957-2.715 13.3-3.8 16.015-4.072 32.3-4.886 48.858-3.8 3.528.271 7.057.542 10.586.814h2.985c-1.628-1.086-2.442-1.9-3.528-2.443-9.772-5.7-19.815-10.857-30.401-15.472-1.357-.543-2.443-1.085-3.8-1.9-.543-.271-1.085-1.085-1.085-1.9 0-.814.814-1.357 1.628-1.357.815 0 1.629-.271 2.172 0 13.028.272 26.057 1.629 38.543 4.886 13.843 3.528 27.415 7.871 39.901 14.929 7.871 4.343 15.471 9.5 22.8 14.657 1.9 1.357 4.071 2.714 6.243 4.343.271-2.986-2.443-2.443-3.529-4.072-.543-2.714-.543-2.714-1.628-4.343-2.715-4.071-5.429-7.871-7.872-11.943-.814-1.357-1.9-2.171-3.529-2.442-4.071-.272-8.143-.815-12.214-1.358-1.629-.271-2.986 0-4.614-.542-.543 0-1.358-.815-1.629-1.358 0-.542.543-1.357 1.086-1.628 1.628-.814 3.528-1.357 5.157-1.9 3.257-1.086 6.243-2.172 10.043-3.257-1.357-.543-1.629-.815-2.172-.815-12.214-1.628-24.428-3.257-36.643-2.714-2.714 0-5.428.271-8.143.271-1.086 0-2.171 0-3.257-.271-.543 0-1.086-.814-1.086-1.357s.543-1.086.815-1.357c1.357-.543 2.442-1.086 3.8-1.357 2.171-.543 4.071-1.086 6.242-1.629 0-1.357-.814-1.357-1.628-1.357-20.086-1.357-40.172-2.172-60.258-1.086-12.486.543-25.243 1.086-37.729 2.443-4.614.543-9.5 1.357-14.114 1.9-.815 0-1.9.271-2.715 0-.271 0-.814-.543-.814-1.086 0-.271.271-1.085.543-1.085.814-.543 1.628-.815 2.443-1.086 13.843-3.257 27.686-6.515 41.8-8.686 8.143-1.357 16.015-2.443 24.158-3.529 11.128-1.628 22.257-2.985 33.386-3.257 1.085 0 2.171-.271 2.986-.543-.272-1.085-1.086-1.085-1.9-1.357-15.744-3.8-31.215-7.3286-47.23-9.2286-2.985-.2714-5.7-.2714-8.685-.2714-1.9 0-3.529 0-5.429-.2714-.814 0-1.357-.8143-1.086-1.6286.272-.5429.543-1.0857 1.086-1.3572.543-.2714 1.086-.2714 1.9-.2714 9.229-.2715 18.729-.2714 27.957-.5429 21.172-.2714 41.801 2.1715 62.43 7.6001 10.314 2.7144 20.357 6.7854 30.129 11.1284 1.357.543 2.714 1.086 4.343 1.9.814-1.357-.543-1.628-.815-2.171-9.228-9.5-19.271-18.4575-30.129-26.0576-1.085-.8143-2.171-1.6286-3.257-2.7143-.271-.2714-.543-1.3572-.271-1.6286.271-.5429 1.086-.8143 1.357-.8143.814 0 1.629.2715 2.171.5429 19.815 6.5144 38.815 14.3859 56.458 25.5149 5.7 3.528 11.4 7.328 16.558 11.671.542.543 1.357 1.357 2.442 1.086 0 .271.272.543.272.814 0-.271.271-.271.271-.543-.271 0-.542 0-.814-.271-.271-1.086-.543-2.171-1.086-2.986-2.714-4.071-5.7-8.414-8.686-12.486-1.085-1.628-1.357-2.714-.542-3.2568 1.357-.8143 1.9.2714 2.714 1.0858 3.257 3.257 6.514 6.243 10.043 9.5 9.5 8.414 17.643 17.915 24.972 28.229 7.328 10.314 14.386 20.9 20.357 32.3.543.815.814 1.9 2.171 2.443 0-2.171.001-4.071-.271-5.971 0-2.172-.271-4.343 0-6.515 0-1.357.272-2.714.543-4.071.271-1.086.543-2.172 1.9-2.443s1.9.543 2.443 1.629c.543.814 1.086 1.9 1.357 2.985 2.171 6.243 4.343 12.486 6.243 18.729 3.8 13.3 7.057 26.6 8.957 40.444 1.086 7.328 2.443 14.928 3.8 23.343.272-2.443.543-3.8.543-5.158-.271-16.285.272-32.843 1.629-49.129 0-1.628.542-3.257.814-4.886 0-.271.814-.814 1.086-.814.271 0 .814.272 1.086.814.271 1.086.542 2.172.814 2.986.271 1.9.543 3.529.814 5.429 0 .543.271.814.543 1.628.814-1.357.814-2.714.814-3.8.543-9.771 1.629-19.543 3.8-29.043 2.986-13.843 7.6-27.143 13.572-39.9 4.343-9.5 8.957-18.729 13.572-28.2292.271-.5429.814-1.3572 1.357-1.9.271-.2715.543-.2715.814 0 .271 0 .543.5428.543.5428 0 .8143-.272 1.9-.543 2.7143-1.086 4.0715-2.172 8.4141-2.986 12.4861-.271.814-.271 1.357-.271 2.714.814-.543 1.085-.814 1.357-1.086 7.871-14.9283 17.371-28.7714 26.6-43.1573 6.786-10.5858 13.3-21.1716 19.815-31.4861.814-1.3571 1.357-2.7143 2.986-2.9857 1.085.8143 1.085 1.9.542 2.9857-3.257 9.7716-6.514 19.8145-11.943 28.7718-1.628 2.7143-3.257 5.1572-4.614 7.8716-.271.5428-.814 1.3571-.543 2.1714.543-.2715.814-.5429 1.357-1.0857 1.629-1.6286 3.529-2.9858 5.158-4.6144 24.428-23.6145 51.843-43.1576 80.072-61.61501 1.357-.8143 2.714-1.6286 4.071-2.17147.272-.271429 1.086-.00002 1.358.27141.271.54286.271 1.08574 0 1.62861-.272.54286-1.086 1.08574-1.629 1.62861-6.243 6.24295-12.486 12.21445-18.457 18.72875-10.858 11.4002-21.986 22.2575-33.658 32.5719-3.529 2.9857-7.057 6.2429-10.586 9.5001-.543.5429-1.628 1.0857-1.357 2.4429 1.357-.2715 2.714-.5429 3.8-1.0858 9.772-3.5286 19.543-5.9714 29.586-8.6858 13.029-3.5286 26.058-7.3286 38.815-11.1287 3.529-1.0857 7.057-1.9 10.586-2.9857.814-.2715 1.9-.2715 2.714-.2715.271 0 1.086.2715 1.086.5429.271.5428.271 1.3572 0 1.6286-.814.8143-1.629 1.3571-2.443 1.9-2.443 1.3572-4.886 2.9858-7.6 4.3429-12.486 5.9715-25.243 11.943-37.729 17.9145-1.629.8143-2.986 1.3572-4.614 2.1715.271.8143.542 1.6286.814 2.4429-.815 1.6286-2.172 2.4429-3.529 3.2572-7.328 5.4286-14.929 10.0429-23.071 14.1144-11.672 5.7001-22.258 12.7575-33.115 20.0855-.543.272-1.086.815-1.357 1.086 0 0 0 .272-.272.814 1.086-.271 2.172-.271 2.986-.542 4.614-1.358 9.5-2.715 14.114-4.072 1.629-.543 3.8-1.9 4.886.272 1.086 2.171-1.357 2.985-2.714 4.071-4.886 3.8-9.772 7.329-14.658 10.857-3.528 2.443-6.785 5.158-10.314 7.6-.543.543-1.086.815-1.9 1.629 1.629.543 2.714 0 3.529-.543 4.343-1.9 8.414-3.528 12.757-5.428 1.9-.815 2.986-.815 3.257 0 .543 1.085-.271 2.171-.814 2.985-1.629 1.9-2.986 3.8-4.886 5.429-6.786 6.786-13.572 13.572-20.629 20.357-1.086 1.086-2.171 2.172-4.071 4.072 1.628-.543 2.171-.543 2.714-.814 3.529-1.629 6.786-3.258 10.314-4.886.815-.272 1.629-.543 2.715-.815.543 0 1.086.815.814 1.358-.543.814-1.086 1.357-1.629 2.171-2.442 2.443-5.157 4.886-7.6 7.329-.542.543-1.085 1.357-1.628 2.171 2.443 1.629 5.7.543 7.6 2.986 0 1.629-1.357 2.443-2.443 3.257-3.529 2.443-6.786 5.157-10.314 7.872-.815.542-1.358 1.357-2.443 2.443.543.542 1.086.814 1.628 1.085 1.086.543 1.9.815 2.986 1.357 2.714 1.358 2.986 2.715.543 4.886-.814.814-1.629 1.357-2.443 1.9-2.443 1.9-4.886 3.8-7.057 5.7-.543.543-1.086 1.086-1.357 1.629.543 1.086 1.357.814 2.171.814 1.086 0 2.172 0 3.257.272.815 0 1.357 1.357.815 1.9-.815 1.085-1.629 2.171-2.715 3.257-2.986 2.986-6.243 5.971-9.228 8.957-.815.814-1.358 1.629-2.172 2.443 1.086.814 1.9 1.629 2.714 2.171.272 2.172-1.085 3.258-2.171 4.615-4.614 5.157-8.414 11.128-11.943 16.828-5.971 9.501-9.772 20.086-13.029 30.944-.271 1.085-.814 2.171-.543 3.8.815-.814 1.086-1.357 1.629-1.9 4.614-5.972 9.229-12.215 14.114-18.186 3.258-4.072 6.515-8.143 9.772-12.215 10.043-12.757 18.186-26.6 25.243-40.986 7.872-15.471 15.743-30.943 23.615-46.415 4.614-8.685 9.5-17.1 15.2-25.243 16.829-23.614 38.543-40.9861 65.144-52.3862 9.5-4.0715 19.271-7.8715 29.043-11.4001 14.114-4.8858 28.229-10.5859 41.8-16.5574 11.129-4.6144 22.258-9.2287 33.386-14.1145 4.343-1.9 8.415-3.8 12.486-5.7001 1.629-.8143 2.986-.8143 3.257 0 .543 1.3572-.542 1.9001-1.357 2.7144-1.9 1.6286-4.071 3.2572-5.971 4.8857-16.557 12.4859-34.2 23.3432-52.929 32.3005-1.629.8143-2.986 1.3571-4.615 2.1714-.543.2714-.814.8143-1.628 1.6286 5.7-.2714 10.857-.5428 15.743-1.0857 6.243-.8143 12.486-1.6286 18.729-2.7143 2.714-.2715 4.071 0 4.071 1.0857-.271 1.9-1.628 1.9-2.986 2.4429-12.757 5.9715-26.057 11.1287-39.629 14.6573-4.886 1.3572-9.771 2.7143-14.657 3.8 0 1.0858.814 1.0858 1.628 1.3572 6.515 1.3572 13.301 1.6286 20.086 1.6286 11.129 0 21.987-.5429 33.115-1.9 1.357-.2714 2.715-.2715 4.072-.2715.814 0 1.628.5429 1.628 1.3572 0 .5429-.543 1.3572-.814 1.3572-1.629.8143-3.529 1.3571-5.157 1.9-8.686 2.7141-17.915 4.3431-27.143 5.4291-10.858 1.085-21.987 2.171-33.115 2.171-2.986 0-5.7 0-9.5 0 1.085.814 1.628 1.357 2.443 1.629 5.157 2.442 9.771 5.7 14.114 9.5 5.157 4.614 10.315 9.228 15.472 13.843 1.086 1.085 1.9 2.171 2.714 3.528.814 1.086-.271 2.715-1.629 2.443-1.357-.271-2.985-.814-4.342-1.357-4.615-2.171-8.958-4.614-13.572-6.786-3.257-1.628-6.243-3.257-9.5-4.614-.543-.272-1.357-.543-2.172-.814 0 1.628 1.086 2.171 1.629 2.714 5.157 4.886 9.229 10.043 12.214 16.557 1.629 3.8 2.986 8.143 4.615 11.943.543 1.629 1.085 3.529 1.628 5.158.272.814.272 1.357.543 2.171 0 1.086-1.086 1.9-2.171 1.629-.815-.272-1.357-.543-2.172-1.086-1.085-.814-2.171-1.629-3.257-2.443-10.857-8.686-23.072-14.929-35.829-20.357-.543-.272-1.086-.272-1.9-.543-.271 1.9.543 3.257 1.086 4.614 3.257 6.514 6.514 13.3 9.771 19.815.543 1.085 1.086 2.171 1.357 3.257 0 .543-.271 1.085-.814 1.628-.271.272-.814.272-1.357 0-1.086-.543-2.171-1.357-2.986-1.9-1.9-1.357-4.071-2.714-5.971-4.071-3.8-2.443-7.6-4.886-12.215-7.872.815 2.443 2.443 3.529 3.529 4.615 1.086 1.357 2.443 2.443 3.529 3.528 1.357 1.357 2.714 2.443 4.071 3.8 1.086 1.086 2.443 2.443 3.529 3.529 1.357 1.357 2.443 2.714 3.8 3.8 0 1.9-1.086 2.171-2.443 2.171-4.343 0-8.957 0-13.3.272-10.315.814-20.358 1.628-30.672 2.714-5.7.543-11.672 1.629-17.372 2.172-.543 0-1.085.271-1.628.271.271 1.086 1.085.814 1.628.814h18.458c1.628 0 3.257 0 5.157.272.543 0 1.357.543 1.9.814.271 1.357-.543 1.9-1.086 1.9-1.629.543-3.257.814-4.886 1.357-7.871 1.629-16.014 3.257-23.886 5.157-3.8.815-7.328 2.172-10.857 3.801 1.357 0 2.714.271 3.8.271 6.786-.543 13.843-1.357 20.629-1.9 1.9-.272 3.529-.271 5.429-.271 1.357 0 1.899 1.9 1.085 2.714-1.086.814-2.171 1.9-3.257 2.443-4.886 2.714-10.043 5.428-15.2 7.6-6.786 3.257-13.843 5.971-20.629 8.957-.543.271-1.086.543-1.629.814.815 1.086 1.629.815 2.715.543 3.528-.543 7.328-1.357 10.857-1.9 1.086-.271 2.443-.543 3.529-.271.542 0 1.085.543 1.357 1.085 0 .543-.272 1.358-.814 1.629-.815.543-1.9 1.086-2.986 1.357-5.157 1.629-10.315 3.257-15.2 4.886-11.129 3.529-21.444 8.957-31.487 15.2-2.714 1.9-5.428 4.072-7.871 6.515-8.686 9.5-17.372 19-26.058 28.5-1.357 1.629-2.442 3.529-3.8 5.157-.271.543-.542 1.086-1.085 2.443 1.9-1.357 3.257-2.171 4.614-2.986 17.915-12.214 35.558-24.7 53.472-36.643 19-12.757 38.815-23.886 59.444-33.658 10.314-4.885 20.9-8.957 31.486-12.757 20.357-7.057 40.986-12.757 62.158-17.1 19.814-4.072 39.9-6.514 60.258-7.057 5.7-.272 11.671-.272 17.371-.543 1.086 0 2.443-.272 3.257 1.085 0 1.358-1.085 1.629-2.171 2.172-2.714 1.086-5.429 1.9-8.143 2.986-11.4 4.614-22.8 9.228-34.2 13.571-1.086.543-2.172 1.086-3.529 2.172 5.7-.815 10.586-1.357 15.472-2.172 10.043-1.357 19.814-1.085 29.857.272 10.857 1.357 21.443 3.8 32.029 6.514 6.514 1.629 13.029 3.529 19.543 5.157 1.357.272 2.715.815 3.8 1.357.272 0 .543.815.272 1.086 0 .272-.543.814-1.086.814-.814 0-1.629.001-2.172-.271-11.4-1.629-22.8-1.357-34.471-.271-2.443.271-4.886.271-7.329.542-.814 0-1.629.272-2.443.543 0 1.086.814 1.086 1.357 1.358 7.6 2.171 14.658 5.157 21.986 8.414 11.672 5.157 23.072 10.586 34.744 16.014 7.057 3.258 14.385 6.515 21.443 9.5 1.357.543 2.443 1.086 3.8 1.901.543.271.814 1.085 1.086 1.628-.815 1.357-2.172 1.086-2.986 1.086-1.9-.272-3.8-.814-5.972-1.357-14.657-3.8-29.586-6.243-44.515-9.229-.542 0-1.085-.271-1.9-.271 0 1.085.815 1.357 1.358 1.628 14.928 8.415 29.586 16.829 44.514 24.972 11.672 6.514 22.801 13.843 33.658 21.443 1.086.814 1.9 1.629 2.443 2.443.271.271 0 .814 0 1.357-.272.272-.815.814-1.086.543-1.357-.271-2.986-.543-4.343-1.357-6.786-2.986-13.3-5.972-20.086-9.229-1.9-.814-3.528-1.628-5.7-2.171.272.543.543.814 1.086 1.357 28.772 24.157 52.115 52.929 71.658 84.958 1.628 2.714 3.257 5.157 4.614 7.872.543.814.814 1.628 1.086 2.442 0 .272 0 1.086-.271 1.086-.272.272-1.086.272-1.358.272-.814-.543-1.9-1.086-2.443-1.9-2.714-2.715-5.428-5.429-8.143-8.143-9.5-9.772-19.543-18.458-30.128-27.144-6.515-5.428-13.301-10.857-19.815-16.286-1.086-.814-2.171-1.628-4.071-2.985 3.257 7.328 5.971 13.571 8.685 19.814 2.715 6.515 5.429 13.029 7.872 19.543 2.443 6.515 4.886 13.029 7.057 19.272 2.172 6.514 4.886 12.757 6.786 20.086-1.086-.271-1.9-.271-2.172-.543-.814-1.086-1.357-2.443-1.9-3.528-7.057-15.201-15.2-29.858-23.886-43.973-.814-1.357-1.357-2.985-3.528-4.071 1.086 3.529 2.171 6.514 3.257 9.5 2.714 7.329 5.429 14.657 8.143 21.986.543 1.357 1.357 2.443.271 3.8-.814.814-1.9 0-3.257-2.443-12.486-20.357-24.7-40.986-35.015-62.7-1.628-3.258-2.985-6.515-5.7-9.229.815 2.171 1.629 4.071 2.715 6.243 5.971 14.114 13.028 27.686 19.543 41.529 1.9 3.8 3.528 7.6 5.157 11.129.543.814.543 1.9.814 3.528-1.085-.271-1.9 0-2.171-.543-1.086-.814-1.9-2.171-2.714-3.257-10.315-14.386-20.358-28.772-30.401-43.158-8.143-11.4-14.386-23.886-20.629-36.371-.542-1.358-1.357-2.715-2.714-4.343.543 5.157 2.443 9.5 3.8 13.843 5.157 14.114 10.314 28.229 15.472 42.343.814 2.172 1.628 4.343 1.357 7.057-.814-.271-1.9 0-2.172-.543-.814-.814-1.628-1.9-2.171-2.985-4.343-6.786-7.6-14.115-10.857-21.443-3.8-8.686-7.329-17.101-10.858-25.786-.814-1.629-1.628-3.258-2.171-4.886-1.357.814-.814 2.171-.543 2.986 1.357 6.785 2.986 13.843 4.615 20.628 1.085 4.886 2.442 9.772 3.528 14.658.271 1.357.543 2.714.543 4.071 0 1.629-1.9 2.443-2.986 1.629-1.086-.815-2.171-1.9-2.986-2.986-3.528-4.614-7.057-9.229-10.043-14.114-4.071-7.058-8.142-14.115-11.671-21.444-5.429-10.857-10.586-22.257-15.743-33.386-1.629-3.528-2.986-7.057-4.343-10.586-.543-1.357-.543-2.714-.814-4.071-.272-1.086-.815-1.9-1.629-2.714.272 1.628.543 3.257.814 4.885 2.443 11.129 5.158 22.529 7.6 33.658 3.258 14.929 6.786 29.586 10.043 44.515.543 2.714 1.9 4.343 4.072 5.7 24.157 16.014 46.958 33.929 67.858 54.015 4.071 3.8 7.871 7.871 11.671 11.671 6.243 6.515 12.486 13.029 18.729 19.543.543.543.814.815 1.086 1.358 0 .543 0 1.085-.271 1.628-.272.272-.815.272-1.358.272-.814-.272-1.357-.815-1.9-1.357-3.528-2.715-6.785-5.701-10.314-8.686-8.957-7.329-18.186-14.658-27.143-21.986-1.086-1.086-2.443-1.9-3.8-2.986-.543 1.629.814 2.443 1.357 3.257 7.328 10.586 14.114 21.715 19.814 33.115 4.886 9.5 8.686 19.272 12.215 29.315 2.986 8.685 5.971 17.371 8.686 26.057.271 1.086.542 2.171.814 2.986.271.814 0 1.628-.814 1.9-.543 0-1.629-.272-1.9-.815-.543-.814-1.086-1.9-1.629-2.714-2.986-6.786-6.243-13.3-9.229-20.086-8.143-17.371-17.371-34.2-28.771-49.672-.815-1.086-1.629-2.171-2.715-3.257 0 0-.271 0-.543 0 .272.814.272 1.629.543 2.443 4.615 14.386 8.415 29.315 11.129 44.243 1.9 10.315 3.529 20.629 4.886 30.944 1.628 10.314 2.714 20.628 4.071 30.943.543 4.071.815 7.871 1.357 11.943 0 .814.272 1.9 0 2.714-.271.543-.543 1.629-1.085 1.9-1.086.543-1.629-.543-2.172-1.357-.543-1.086-1.086-2.172-1.357-3.529-1.9-6.243-3.8-12.757-5.429-19-7.328-25.786-16.557-51.029-27.957-75.187-1.9-4.342-4.072-8.414-5.972-12.757-1.357.272-1.085.814-.814 1.357 0 .815.271 1.9.543 2.715 2.443 13.028 5.157 26.328 7.6 39.357s4.072 26.058 5.429 39.086c0 1.086.271 2.172 0 3.258 0 .542-.543 1.085-1.086 1.357-.814.271-1.629-.272-1.9-.814-.543-1.358-1.086-2.715-1.357-3.801-1.629-5.971-3.257-11.671-5.157-17.643-2.986-10.585-6.786-20.628-11.401-30.671-4.885-11.129-10.043-21.986-15.2-33.115-.543-1.086-1.357-2.443-2.443-3.257v1.9c1.9 10.314 3.8 20.9 5.429 31.214 1.9 12.215 3.529 24.701 5.429 36.915.271 1.9.271 4.072.271 5.972 0 .543-.814 1.357-1.357 1.628-.543 0-1.629-.271-1.9-.814-.815-1.357-1.629-2.986-2.172-4.614-2.985-8.143-5.7-16.558-8.685-24.701-2.986-8.686-6.515-17.1-9.501-25.786-2.714-7.6-5.157-15.2-7.057-22.8-2.443-8.957-4.614-18.186-6.786-27.143-1.085 0-1.085.814-1.085 1.357-1.358 13.029-2.172 26.057-1.629 39.086.272 6.515.814 13.029 1.086 19.815v4.614c0 1.629-.814 2.714-1.9 2.714-1.357 0-1.9-.814-2.443-1.628-.814-1.629-1.357-2.986-1.9-4.615-2.986-9.771-4.614-19.814-5.7-29.857-.814-9.5-1.086-19-.814-28.501 0-.814-.272-1.628-.272-3.257-1.086 1.629-1.629 2.172-2.171 3.257-2.986 6.243-4.615 12.486-5.7 19.272-1.358 9.772-1.9 19.815-2.172 29.858v4.614c0 1.086 0 2.171-.543 3.257-.271.543-.814 1.357-1.357 1.629-.814.543-1.9 0-2.443-.814-.814-1.086-1.628-2.172-2.171-3.529-1.629-4.072-3.257-8.414-4.343-12.486-3.257-12.757-4.615-26.057-4.886-39.086 0-9.5 0-19 0-28.501 0-.814 0-1.9 0-2.714 0-.271 0-.543 0-.814l-.271.271c0 .272.271.543.543.543-.815-.271-1.086 0-1.358.814-.543 1.629-1.085 3.258-1.628 4.886-6.243 19.815-9.5 39.901-10.315 60.53 0 4.071-.271 8.142-.543 12.485 0 1.629-.542 3.258-1.085 4.886-.543 1.357-2.443 1.357-2.986.272-.814-1.357-1.629-2.986-2.171-4.615-1.358-5.428-1.9-11.128-2.172-16.829-.271-13.028.814-26.057 2.443-39.086.271-1.357.271-2.985.543-5.428-1.086 1.357-1.629 1.9-1.9 2.443-1.357 3.257-2.715 6.514-3.529 10.043-3.257 11.671-4.343 23.886-3.8 35.829.272 6.243.543 12.485.814 18.728 0 1.629.001 2.986-.271 4.615 0 .543-.814 1.357-1.357 1.628-.543 0-1.629-.271-1.9-.814-1.086-1.9-2.172-4.072-2.986-6.243-2.986-8.957-5.157-17.914-5.971-27.415-1.9-20.086-6.515-39.629-12.758-58.9-1.357-4.072-2.986-7.872-4.343-11.672-.543-1.086-1.085-2.171-2.171-2.986v2.443c1.086 8.415 2.443 16.829 3.528 24.972.815 6.514 1.9 13.029 2.715 19.543.271 1.629.271 3.257 0 4.886-.272 1.357-1.9 1.9-2.715.814-.814-1.086-1.628-2.171-2.171-3.528-1.9-4.615-3.8-8.958-5.7-13.572-3.529-8.957-6.786-18.186-11.129-26.6-.814-1.629-1.357-3.8-3.528-5.429.271 5.157.542 10.043.814 14.657.271 6.515.814 13.029 1.086 19.815 0 1.357-.272 2.714-.543 4.071-.272.815-1.629 1.086-2.172.543-.543-.814-1.085-1.357-1.357-2.171-1.357-3.257-2.171-6.786-3.528-10.043-3.8-9.772-7.329-19.543-11.129-29.315-.272-.543-.814-1.357-1.629-2.714v4.343c0 1.357 0 2.443.272 3.8 0 3.257.271 6.786.271 10.043 0 2.443-.543 3.528-1.9 3.8-1.628.271-2.714-.815-3.257-2.172-1.357-2.171-2.443-4.343-3.529-6.514-2.985-6.243-5.7-12.486-8.414-19-.543-1.086-1.086-2.172-1.9-3.257-.814 2.714-1.086 2.714-.543 5.157.543 4.343 1.086 8.686 1.9 13.3.543 4.343 1.086 8.414 1.629 12.757v2.715c-.272 1.628-2.443 2.442-3.529 1.085-1.086-1.085-1.9-2.443-2.443-3.8-1.628-4.343-3.528-8.414-4.886-12.757-3.528-10.315-5.971-20.629-7.6-31.215-.271-1.086-.271-1.9-.543-2.986-1.085 0-1.357.543-1.357 1.086-.814 4.886-.271 9.772 0 14.658.272 2.714.543 5.157.814 7.871 0 1.086-.271 1.9-1.357 2.171-1.085.272-1.9.001-2.442-.814-1.629-1.9-2.443-3.8-2.986-6.243-.815-4.343-1.357-8.414-2.172-12.757 0-.543-.271-1.357-.814-2.172-.271.815-.543 1.629-.543 2.443-.543 4.072-1.086 7.872-1.628 11.943-.272 1.086-.272 2.443-1.629 2.986-1.629.543-2.714-.271-3.529-1.357-1.357-1.357-2.442-2.714-3.8-3.8-2.171-1.9-4.343-3.8-7.328-5.157-1.629 2.985-4.615 4.614-7.6 5.971-1.358.815-2.986 1.357-4.615 2.443-1.085.543-1.9 1.357-2.714 2.172.271 1.357 1.086 1.085 1.9 1.357 2.171.271 4.614.543 6.786.814 6.786.814 13.571 2.986 19.814 5.971 1.629.815 3.529 2.172 4.886 3.529s.814 3.257-1.086 4.072c-1.086.271-2.171.542-3.257.542-3.8 0-7.329-.271-11.129-.271-1.357 0-2.714 0-4.885.271 1.357 1.086 2.171 1.901 2.985 2.443 6.243 4.072 12.758 7.872 19.001 11.943 3.528 2.172 6.785 4.615 10.043 7.329 1.085.814 1.9 1.9 2.714 2.986.543.814 0 2.171-.814 2.171-1.358.272-2.715.272-4.072.543-3.257.272-6.514.272-9.771 1.357.543.815.542 1.629 1.085 2.172 2.172 2.443 4.343 5.157 6.786 7.6 3.257 3.528 6.786 7.057 10.043 10.857 6.243 6.786 11.129 14.657 14.657 23.072.543 1.086.543 1.9.815 2.986 0 .814-1.086 1.628-1.9 1.357-.815-.543-1.629-.815-2.172-1.629-1.9-1.628-3.8-3.257-5.428-4.886-3.529-3.257-7.6-5.7-11.672-7.871-.814 1.357 0 2.443.543 2.986 3.528 5.7 6.786 11.4 10.314 16.828 5.972 8.686 11.943 17.643 17.915 26.058 9.5 13.029 17.371 27.143 25.243 40.986.543.814.814 1.9 1.086 2.986 0 .271-.543.814-.815 1.086-.271.271-.814.271-.814 0-.814-.543-1.357-1.086-1.9-1.9-1.628-2.443-2.986-4.615-4.343-7.058-3.8-6.243-7.6-12.214-11.4-18.186-4.886-7.6-10.586-14.657-17.914-20.357-2.172-1.629-4.615-3.257-6.786-4.614-.815-.543-1.629-.543-2.986-1.086 1.357 2.714 2.443 4.886 3.257 7.329 7.057 15.2 14.386 30.671 21.715 45.6 4.071 8.686 8.686 17.1 13.029 25.786 1.357 2.443 2.171 5.157 3.257 7.6.271.543.543 1.086.271 1.629 0 .271-.271.814-.814 1.086-.272.271-1.086 0-1.357-.272-.815-1.086-1.629-2.171-2.443-3.257-3.529-6.243-7.058-12.486-10.858-18.729-5.7-9.771-11.671-19.272-18.457-27.957-1.086-1.358-2.171-2.443-3.528-4.072-.815 1.629-.001 2.714.542 3.8 2.443 5.972 5.158 11.672 7.6 17.643 7.058 17.101 13.843 34.201 20.629 51.03.815 1.9 1.086 4.071 1.629 6.242 0 .543-.272 1.358-.814 1.358-.543.271-1.358 0-1.629-.272-1.086-1.357-1.9-2.714-2.714-4.343-2.986-5.428-5.972-10.586-8.958-16.014-.542-.814-1.085-1.357-1.9-1.9.272.543.272 1.357.543 1.9 5.7 16.014 10.857 32.029 14.115 48.586 2.171 11.4 2.985 22.8 2.985 34.201 0 1.085 0 2.442-.542 3.528 0 .543-.815.814-1.358 1.086-.271 0-1.085-.272-1.085-.543-.543-1.357-1.086-2.443-1.358-3.8-4.071-13.3-10.042-25.786-17.371-37.458-.271-.542-.814-.814-1.357-1.628-.815 1.628-.543 3.257-.272 4.614.543 5.972 1.358 11.943 1.629 17.915 1.357 20.9 1.086 42.072-2.172 62.7-.271 1.9-.542 3.529-1.085 5.429-.272.543-.543 1.086-.815 1.629-.542.543-2.171.542-2.443-.272-.271-.814-.542-1.628-.814-2.714-.543-2.986-1.086-5.972-1.357-9.229-1.357-10.314-3.257-20.629-6.514-30.672-1.358-4.343-2.986-8.414-5.157-12.214-.543-1.086-1.358-1.9-1.901-2.714-1.357.271-1.085 1.357-1.085 1.9.543 7.057 1.357 14.386 1.628 21.443 1.086 16.014 1.357 32.029.272 48.315-.815 13.028-1.357 26.329-2.443 39.357-.271 5.158-1.086 10.043-1.9 14.929-.272 1.357-.814 2.986-1.357 4.343 0 .271-.815.543-1.086.543-.272 0-1.086-.272-1.086-.814-.271-1.629-.543-2.986-.543-4.615-.271-6.786 0-13.571-.543-20.086-.271-5.428-.814-10.586-1.628-16.014-1.086-7.329-2.443-14.386-3.529-21.715-.543-3.8-.814-7.6-1.357-11.4 0-.814-.271-1.357-.543-2.986-.271 1.086-.543 1.629-.543 1.9-1.357 12.215-2.714 24.701-4.071 36.915-.271 2.714-.272 5.429-.543 8.143 0 .814-.271 1.629-.543 2.171 0 .272-.814.543-1.085.543-.272 0-.543-.271-.815-.543-.271-1.357-.543-2.985-.814-4.342-.272-5.158-.272-10.315-.543-15.743-.543-9.501-1.086-19.001-1.357-28.501-.543-12.757-.272-25.514 1.086-38 0-.815 0-1.358.271-3.258-.814 1.358-1.357 1.9-1.629 2.715-3.8 9.5-7.6 19-11.4 28.772-1.628 4.071-2.714 8.143-4.071 12.214-.272 1.086-.815 2.443-1.357 3.529-.272.271-1.086.542-1.629.542-.271 0-.814-.542-.814-.814 0-1.357 0-2.714 0-4.071 1.086-7.057 1.9-14.386 3.528-21.443 4.072-19.272 8.415-38.272 12.758-57.544 1.9-8.143 3.528-16.557 5.157-24.7.814-4.615 1.086-9.5 1.357-14.115 0-.543-.271-1.085-.271-1.9-1.358.815-1.358 2.172-1.9 3.257-2.986 8.958-5.972 17.915-8.958 27.144-2.442 6.785-4.885 13.571-8.143 20.086-1.085 2.171-2.442 4.343-3.528 6.514-.272.543-.814 1.357-1.357 1.629-.543.271-1.086.542-1.629.271-.543-.272-.814-.814-.814-1.357 0-.815 0-1.629.271-2.172.543-2.171 1.086-4.071 1.629-6.243 3.528-12.214 5.157-24.428 5.7-37.186.271-7.6.543-14.928.543-22.529 0-.814 0-1.357-.272-2.985-.814 1.085-1.085 1.628-1.357 2.443-2.986 6.785-5.971 13.843-8.957 20.628-5.429 12.215-10.043 24.972-14.657 37.729-1.9 5.429-4.072 10.586-5.972 16.015-.271.814-.814 1.629-1.357 2.171-.543.543-1.9 0-1.9-.543 0-.814-.272-1.628 0-2.171 1.085-11.943 2.443-23.886 5.157-35.558 4.614-20.357 7.329-40.714 8.957-61.343 0-1.629 0-2.986.272-4.615 0 0-.272-.271-.543-.542-.543 1.628-1.086 2.985-1.357 4.614-1.629 6.786-3.257 13.3-5.158 20.086-1.9 6.243-3.8 12.214-5.971 18.457-.543 1.357-1.086 2.443-1.9 3.8-.272.272-1.086.815-1.629.543-.814 0-1.357-.814-1.357-1.628 0-1.358 0-2.715.272-4.072.814-7.871 1.628-15.743 2.714-23.614 1.9-12.758 2.714-25.515 2.986-38.544.271-7.871.271-15.743 1.357-23.343 0-.814 0-1.9 0-2.714.271-.272.271-.543.543-.815h-.272v1.086c-1.085.272-1.357 1.357-1.357 2.172-2.171 7.057-4.343 14.114-6.243 21.171-1.628 5.7-2.443 11.672-4.071 17.372-1.357 4.886-2.715 9.772-4.343 14.657-1.357 3.529-2.986 7.058-5.429 10.043-.543.815-1.086 1.357-1.9 1.9-.543.272-1.357.272-1.629 0-.542-.271-.814-.814-.814-1.357 0-.814.272-1.628.272-2.171.543-2.172 1.085-4.072 1.628-6.243 3.257-11.129 5.157-22.529 5.7-33.929.815-14.386 2.986-28.772 5.972-42.615.271-1.629.814-3.257 1.086-4.886 0-.271 0-.543 0-.814-.815-.272-.815.543-1.086.814-.272.543-.543 1.086-.814 1.629-5.701 12.486-11.944 24.429-18.729 36.372-2.986 5.157-6.243 10.314-10.315 14.657-1.085 1.086-2.171 2.171-3.528 2.986-.815.543-2.172-.272-1.9-1.086 0-.814.271-1.9.543-2.714 1.357-3.529 2.714-6.786 4.342-10.043 3.529-7.329 6.243-14.929 8.415-22.801 2.443-8.143 4.614-16.557 6.786-24.971.271-1.086 1.085-1.9 0-3.258-.815 1.358-1.629 2.715-2.172 4.072-3.528 6.514-7.328 12.757-12.486 18.186-1.357 1.357-2.985 2.714-4.614 3.8-.272.271-1.357.271-1.629 0-.542-.271-.814-1.086-.814-1.629 0-1.085.543-2.171.814-2.985 1.9-5.429 4.072-10.586 6.243-16.015 4.072-10.043 7.6-20.086 10.315-30.4 2.714-9.5 5.7-18.729 8.414-28.229 1.357-4.343 2.172-8.686 3.257-13.029.272-1.086.543-2.443 0-4.071-.814 1.628-1.628 2.985-2.171 4.343-5.157 10.043-10.043 20.357-15.472 30.4-4.614 8.686-10.043 17.372-16.286 24.972-1.9 2.171-3.8 4.343-5.7 6.514-.543.543-1.086 1.086-1.9 1.357-.271.272-.814 0-1.357 0-.271-.271-.543-.814-.543-1.086.272-1.085.543-2.442 1.086-3.528 2.171-4.614 4.614-8.957 6.786-13.572 3.8-8.414 7.6-16.829 11.129-25.243 1.9-4.614 3.257-9.5 4.614-14.386.271-.543.271-1.086.271-2.171-1.357.271-1.628 1.085-1.9 1.628-4.071 5.7-7.871 11.4-11.943 16.829-2.714 3.8-6.243 7.329-9.771 10.314-.815.815-1.9 1.358-2.986 1.901-.814.542-1.9-.543-1.9-1.358 0-.542 0-.814.271-1.357.543-1.086.815-1.9 1.357-2.986 7.601-13.571 13.301-27.957 19.544-42.071 1.085-2.443 1.9-5.158 2.985-7.601-1.628-.271-1.628 1.086-2.171 1.629-2.986 4.071-5.7 8.414-8.686 12.486-1.357 1.628-2.714 3.257-4.343 4.886-.271.543-1.086.542-1.628.814-.272 0-.543 0-1.086 0-1.357-1.357-1.629-3.257-1.9-5.429-.543-2.985-.815-5.971-1.357-9.228-.272-1.086-.543-2.172-.815-3.8-.543.814-1.085 1.085-1.357 1.628-3.257 10.315-6.243 20.629-6.514 31.486-.272 6.515-.543 13.3-.815 19.815 0 1.357-.271 2.714-.542 4.071 0 .272-.543.815-1.086.815-.271 0-1.086 0-1.086-.543-.543-.815-1.086-1.9-1.357-2.986-1.357-4.886-2.714-10.043-4.071-15.2-.272-.543-.272-1.086-.543-1.629-1.086-.271-1.358.272-1.358.814-5.157 17.372-8.685 34.744-8.414 52.93 0 4.071.543 7.871 1.086 11.943 0 .814.271 1.9.543 2.714 0 .814 0 1.629-.815 1.9-.814.271-1.357-.271-1.9-1.629-.271-.814-.542-1.9-.814-2.714-2.714-8.686-5.157-17.371-7.871-26.057 0-.272-.272-.543-.543-.815-1.086 0-.815 1.086-1.086 1.629-2.714 16.286-4.614 32.572-4.072 48.858.272 7.6.815 15.2 2.986 22.8.543 1.9.272 2.986-.543 2.986-1.357 0-1.628-1.086-1.9-2.172-3.528-10.314-7.057-20.628-9.771-31.214-.814-3.258-1.629-6.515-2.443-9.772-1.357.272-1.357 1.357-1.629 2.172-4.343 14.928-6.243 30.4-7.6 45.872-.543 5.428-.814 11.128-1.628 16.557-.543 3.528-1.357 7.329-2.172 10.857-.271 1.086-.814 1.9-1.357 2.986-.271.271-1.086.814-1.629.543-.542 0-1.085-.543-1.357-1.086-.271-1.357-.543-2.714-.543-4.071-.814-10.315-1.357-20.358-2.171-30.672 0-.815-.271-1.357-.543-2.443-1.357 2.171-1.086 4.071-1.357 5.971-2.171 19.001-5.429 38.001-9.229 56.73-1.9 9.5-4.071 19.271-7.328 28.5-1.629 5.157-3.801 10.043-5.972 14.929-.543 1.086-1.357 2.171-1.9 2.985-.543.815-2.171.272-2.171-.542-.272-1.086-.272-2.172-.272-3.258.543-4.614 1.086-9.5 1.357-14.114 2.986-27.686 5.7-55.101 7.329-82.787.543-7.328.543-14.657.814-22.529-1.9 1.629-1.628 3.258-1.9 4.615-2.443 13.843-4.886 27.414-7.328 41.257-3.258 18.729-5.972 37.458-8.143 56.458-.272 2.443-.543 4.886-.815 7.329 0 .814-.271 1.9-.543 2.714-.271.543-.814 1.086-1.357 1.086s-1.085-.543-1.357-1.086c-.271-1.086-.543-2.443-.543-3.528-1.085-8.415-1.9-16.829-2.985-25.244-.272-2.171-.815-4.614-1.358-6.785-.271-.815-.542-1.358-1.357-2.986-.271 2.443-.543 4.071-.814 5.429-2.171 22.528-5.157 45.057-8.957 67.586-.815 4.886-1.9 9.5-3.257 14.386-.543 2.443-1.629 3.529-2.715 2.986-1.628-.543-1.357-2.172-1.628-3.529-.272-3.257-.543-6.786-.815-10.043-.543-6.786-4.071-25.243-6.243-32.843-1.085.543-1.085 1.628-1.085 2.714-2.172 14.657-4.072 29.586-5.158 44.244-1.357 17.371-2.443 34.471-3.8 51.843 0 1.629-.271 2.986-.814 4.614 0 .272-.543.815-1.086.815-.271 0-1.085-.272-1.085-.543-.543-1.086-1.086-2.172-1.086-3.529-.814-5.7-1.629-11.128-2.443-16.829-.814-5.428-1.086-10.857-1.9-16.557-1.9-14.114-2.443-28.229-2.443-42.343 0-8.686.272-17.372.272-26.329 0-.814 0-1.357-.543-2.443-.543 1.086-1.086 2.171-1.357 3.257-2.172 7.872-4.615 16.015-6.515 23.886-3.529 14.115-6.786 28.229-10.043 42.615-.271 1.086-.271 2.171-.814 2.986-.272.543-1.086.814-1.629 1.085-1.357-1.357-1.086-2.985-1.086-4.614.543-7.6 1.086-15.2 1.901-22.8.271-4.072.814-8.143 1.085-12.486 1.086-13.029 3.529-25.786 6.515-38.543 1.085-4.886 2.171-9.772 3.257-14.929 2.171 2.443 1.9 1.357 2.171.271 0-.271.272-.271.272-.543-.272 0-.272 0-.543-.271.271.543.271.814.271.814zm182.945-237.503c.543 0 1.086-.271 1.086-.271.543-1.357.814-2.986 1.086-4.343 2.171-10.586 3.528-21.172 4.071-31.758 0-1.357.272-2.714.543-4.071-.271-.543-.271-1.086-.543-1.9 0 0-.271 0-.271.271.271.543.543 1.086.814 1.629-.543.271-1.357.543-1.357.814-.271 1.9-.543 3.529-.814 5.429-1.357 11.129-2.986 22.8-4.615 34.2.272.543-.542 1.357 1.086 2.172-.543-1.086-.814-1.629-1.086-2.172zm4.886-67.315v.815c.272 0 .272-.272.543-.272-.271-.271-.271-.543-.543-.543-.543-1.357-1.085-2.714-1.628-4.071-8.415-16.286-18.458-31.486-29.586-45.872-2.986-3.8-6.515-7.057-9.772-10.315-.814-1.085-2.172-1.9-2.986-2.985-.271-.543-.271-1.358 0-2.172.272-.814 1.357-.814 1.9-.543 2.172.815 4.072 1.9 6.515 2.715-2.172-3.529-16.558-17.101-24.429-23.072-5.972-4.615-9.772-7.057-14.115-8.686.815 1.086 1.357 1.629 1.9 2.443 10.043 11.129 19.543 23.072 28.229 35.557 8.957 12.758 18.186 25.515 27.415 38.001 4.343 5.971 9.229 11.672 14.114 17.643.815.543 1.357 1.629 2.443 1.357zm192.988-31.214c0-.272.272-.543.272-.815l-.272-.271v1.086c4.072 5.971 8.143 11.943 12.215 17.914.543.543.814 1.357 1.085 2.171.543 1.629-.542 3.258-2.171 2.715s-3.257-1.086-4.614-1.9c-9.5-4.886-18.458-10.586-26.872-16.558-3.529-2.442-7.057-4.885-10.586-7.328-.271-.272-.814-.815-1.357.271 3.257 2.986 6.786 5.972 10.043 9.229 1.086.814 2.171 1.9 2.986 2.986.271.271.543 1.085.271 1.628-.271.815-.814 1.357-1.629 1.086-1.357-.271-2.714-.543-4.071-1.086-5.429-2.171-10.857-4.343-16.014-6.786-.815-.271-1.629-1.357-3.258-.814.815.543 1.358 1.357 2.172 1.629 2.986 1.9 5.971 3.8 8.686 5.971 1.085.815 2.171 1.629 3.257 2.715.271.271.543 1.357.271 1.628-.271.543-1.085.814-1.357.814-1.086 0-2.443-.271-3.528-.542-2.986-.815-5.972-1.629-8.686-2.986-10.043-4.072-20.086-8.415-30.129-12.486-.815-.272-1.357-1.086-2.715-.271 1.629 1.085 2.986 1.9 4.343 2.714.815.543 1.9 1.086 1.629 2.443-.272 1.085-1.086 1.628-2.986 1.357-1.628 0-3.257-.272-5.157-.272-4.614-.814-9.5-1.357-14.114-2.171-.543 0-1.358-.543-2.172.543 1.9 1.357 4.071 2.714 5.972 4.071 1.085.543 2.171 1.086 2.985 1.9.543.543.814 1.358.543 1.9-.271.543-1.086 1.086-1.9 1.086-1.086 0-2.171 0-3.257-.271-1.9-.272-3.8-.815-5.972-1.086-4.885-1.086-9.771-2.171-14.657-3.257-.543 0-1.357-.815-1.9.271 3.529 3.8 8.957 4.615 12.486 8.415 11.129-.272 22.529-.272 33.929.271 21.172 1.086 42.072 4.614 62.701 9.5 27.414 6.243 54.015 14.658 79.529 26.6 10.315 4.886 20.629 10.315 30.401 16.015 1.085.543 1.9 1.086 3.528 1.629-.271-.815-.271-1.358-.543-1.9-5.7-10.586-11.4-21.172-16.828-31.487-2.986-5.428-5.972-10.857-9.229-16.557-.543-.814-.814-1.629-1.9-1.629 0-.542 0-1.085-.272-1.628h-.271c.272.543.272 1.086.543 1.628 1.357 2.715 2.443 5.429 3.8 8.415.543 1.086.814 1.9.814 2.986 0 .542-.271 1.357-.543 1.628-.542.272-1.357.272-1.628 0-1.357-1.086-2.714-2.171-3.8-3.257-6.786-7.057-12.757-14.929-17.643-23.343-1.086-1.629-1.9-3.529-2.986-5.157-.272-.543-.814-.815-1.357-1.086 0-.272-.272-.543-.272-.814.272.271.272.271.543.543.543 1.628 1.086 3.257 1.629 4.614 3.8 8.686 7.871 17.372 11.671 26.057.815 1.629 1.358 3.258 1.9 5.158.543 1.628-1.085 2.985-2.714 2.171-1.357-.814-2.986-1.629-4.071-2.714-2.715-2.715-5.158-5.7-7.329-8.686-3.529-4.614-6.514-9.772-9.772-14.386-.542-.543-1.085-1.086-1.628-1.629 0 1.358.271 2.443.543 3.258 2.714 6.242 5.7 12.485 8.414 18.728.543 1.086.814 2.172 1.086 3.529.271 1.086-1.357 1.9-2.172 1.357-1.085-.814-2.171-1.628-2.985-2.714-3.529-4.343-7.058-8.415-10.315-12.758-7.329-9.5-14.386-19-21.443-28.771-.814-.815-1.357-1.629-2.171-2.715-.272 1.086 0 1.629.271 2.443 3.257 6.243 6.514 12.486 9.5 18.729 1.086 1.9 1.9 3.8 2.443 5.972.272.814 0 1.9-.543 2.442-.814 1.086-1.9.815-2.986.272-1.628-.814-3.257-1.9-4.614-2.986-5.971-4.343-11.672-9.5-17.1-14.657-1.086-1.086-2.443-2.443-3.8-3.257-.814.271-1.629.543-2.172.543zm-317.304-33.115c-.542 0-.814-.272-1.085-.272-.815.272-1.358.272-2.172.543-19.543 7.057-37.729 16.015-55.372 26.872-10.314 6.514-19.815 13.843-29.315 21.443-1.085.814-1.9 1.357-2.985 2.172-.815.542-1.9-.543-1.9-1.358.271-1.085.543-2.442 1.085-3.528 3.258-6.515 6.243-13.029 9.501-19.272 4.342-8.414 8.685-16.829 13.028-25.514.272-.815.543-1.629 1.086-2.715-1.9.272-2.714 1.357-3.8 2.172-15.472 12.486-29.043 27.414-40.715 43.429-2.443 3.528-5.157 7.057-7.6 10.314-.814 1.086-1.629 1.9-2.714 2.443-.272.272-1.358.272-1.629 0-.271-.271-.814-1.086-.543-1.629.272-1.085.543-2.171 1.086-2.985 2.171-5.157 4.071-10.586 6.243-15.743 2.714-7.058 5.157-14.386 7.6-21.715.272-.543.814-1.357 0-2.171-3.529 2.171-13.3 10.314-20.086 17.1-11.672 11.129-20.9 24.157-29.857 37.186-.272.543-.543 1.086-.815 2.172 1.629-.543 2.714-.815 3.8-1.086 8.686-2.443 17.372-4.886 26.329-6.243 10.857-1.629 21.986-2.714 32.844-3.529 20.9-1.357 41.8-1.357 62.429.272 20.629 1.9 41.529 4.071 62.158 5.971 22.529 2.172 45.057 4.615 67.858 5.972 1.9 0 3.528 0 5.428.271-1.085-1.086-2.442-1.628-3.8-1.9-4.071-1.086-8.143-1.9-12.214-2.714-1.9-.543-4.343-.272-4.886-2.715-.543-2.171 1.9-2.985 3.257-4.071 1.086-.814 2.172-1.629 3.529-2.986-1.9-.271-3.257-.271-4.614-.543-4.072-.271-8.143-.271-12.486-.543-1.358 0-3.258.001-4.072-1.628-.814-2.172 1.086-2.986 2.172-4.072 2.985-2.442 6.243-4.614 9.228-6.785.543-.543 1.086-1.086 2.443-2.172-1.628 0-2.443 0-3.257 0-2.714.272-5.157.814-7.872 1.086-7.6.814-15.2 2.714-22.257 5.429-1.629.542-3.257 1.085-4.886 1.628-1.085.272-2.443.543-3.528-.543-.815-.814-.543-1.9.543-3.257.542-.543.814-1.086 1.357-1.9 4.071-4.343 7.871-8.957 11.943-13.3 1.085-1.086 2.171-2.172 3.257-3.257.543-.543.543-1.357 1.086-2.443-3.529 0-6.243 0-9.229.271-6.514.543-13.029 1.357-19.543 3.257-9.772 2.986-19.272 6.786-28.501 11.401-3.528 1.628-6.785 3.257-10.314 4.885-1.629.815-2.986.543-3.257-.543-.543-1.085 0-2.171.814-2.985 2.443-2.715 4.614-5.7 7.329-8.143 7.328-7.329 14.657-14.386 21.986-21.715.814-.814 1.9-1.357 2.443-2.986-.815.272-1.629.272-2.172.543-1.357.543-2.985 1.086-4.343 1.629-19.271 8.143-37.457 17.643-53.2 31.215-.543.271-1.086.542-1.629.814-.271 0-.543 0-.814-.272-.272-.271-.272-.542-.272-.814.543-.814 1.358-1.628 1.9-2.443 12.215-11.671 24.701-22.8 38.001-33.386 1.357-1.086 2.986-2.171 4.343-3.528.814 0 1.086-.543 1.628-1.086zm-151.73 24.157c-.543 0-.543-.271-.814-.271-.272.271-.815.543-1.086.814-11.4 11.943-21.986 24.7-30.943 38.543-3.8 5.701-7.057 11.943-9.772 18.186-.271.543-.271 1.358-.543 2.172 1.086-.272 1.629-.543 2.172-.814 6.243-2.986 12.486-5.972 18.729-8.686 2.442-1.086 3.528-2.443 4.342-4.615 5.7-14.657 11.401-29.043 17.101-43.429.542-.271.814-1.085.814-1.9zm157.702-98.801c-.814.814-.543 1.086 0 1.629 2.986 3.528 6.243 6.785 9.229 10.314 1.357 1.629 2.985 1.9 4.885 1.629 4.615-.543 9.5-1.086 14.115-1.629 2.985-.271 5.7-.543 8.686-1.086.542 0 1.357 0 1.357-.814-.272-.271-.543-.543-1.086-.814-12.486-3.529-24.7-6.786-37.186-9.229zm57.815 41.529c0-.271.271-.543.271-.814-3.528-2.172-7.328-4.615-10.857-6.786-7.6-4.343-15.2-8.414-23.614-11.4-.815-.272-1.629-1.086-2.715 0 3.529 3.257 7.057 6.243 10.857 9.229 3.529 2.985 7.058 6.243 10.858 9.5.814-1.9 2.171-2.443 3.8-2.172 2.443.543 5.157.815 7.6 1.357 1.086.543 2.443.815 3.8 1.086zm117.53 89.301c-.543-.543-.543-.814-.543-.814-.543 0-.814-.272-1.357-.272-9.772 0-19.272 1.901-28.229 4.886-4.614 1.629-9.229 3.529-13.3 6.243-.543.272-.814.815-2.172 2.172 15.472-4.886 30.401-8.686 45.601-12.215zm.814-7.057c2.714 1.9 5.429 2.986 8.143 4.343.814.271 1.9.271 2.714 0 3.258-.543 6.515-1.086 10.043-1.629.543 0 1.358 0 1.358-.814-5.158-1.086-19.001-2.443-22.258-1.9z"/><path d="m358.711 545.44s0 .271.271.271c.272-.271.543-.271.543-.542 0-.272-.271-.543-.543-.815.815.272 1.358.272 1.9-.271 2.172-2.172 4.072-4.343 6.243-6.514 1.086-1.086 2.172-1.9 3.529-2.715 1.357-.814 3.257.272 3.257 1.9 0 .543 0 1.086-.271 1.9-.543 1.357-.815 2.986-1.629 4.343-2.986 6.786-6.243 13.3-9.5 20.086-4.614 9.5-9.229 19.272-12.757 29.315-.272.543-.272 1.357-.815 2.986 1.358-1.629 2.172-2.443 2.715-3.258 4.343-4.885 8.414-9.771 12.757-14.657 2.986-3.257 6.243-6.514 9.5-9.5 1.086-1.086 2.443-1.9 3.8-2.443 1.086-.543 2.443.543 2.443 1.629 0 .814-.271 1.9-.543 2.714-.543 1.629-1.357 2.986-2.171 4.343-3.529 6.243-7.329 12.486-11.129 18.729-2.714 4.343-5.7 8.414-8.414 12.757-.272.543-1.086 1.086-.272 1.9.815-.814 1.9-1.629 2.715-2.443 2.985-2.714 5.971-5.429 8.957-8.143 1.086-1.086 2.443-1.9 3.528-2.714.815-.543 1.901-.815 2.986-.272.815.543 1.357 1.629.814 3.258-.271.814-.542 1.628-.814 2.442-.814 1.629-1.357 2.986-2.171 4.343-3.257 5.429-6.786 11.129-10.043 16.558-.272.543-1.357 1.085-.814 2.171 1.357-.543 2.442-1.357 3.799-1.628 2.443-.543 4.615 1.085 4.344 3.8-.272 1.357-.543 2.714-1.086 3.8-1.357 3.528-2.715 7.057-4.072 10.586-4.343 11.128-7.057 22.8-7.057 34.743-.271 11.128.543 22.257 1.9 33.386 0 .543-.271 1.357.814 1.9.272-.543.543-1.086.815-1.629 7.057-17.643 14.114-35.557 21.443-53.2 6.514-15.743 15.2-30.401 25.243-44.244.814-1.085 1.357-1.9 2.171-2.714.272-.543.815-.814 1.358-1.086.814-.543 2.171.272 1.9 1.086-.272 1.086-.543 1.9-.815 2.986-.543 1.9-1.9 3.257-1.9 5.428.543-.271.814-.271 1.086-.543.814-.814 1.629-1.628 2.443-2.442 15.743-16.829 33.386-31.215 53.2-43.158 1.358-.814 2.986-1.629 4.343-2.443.543-.271 1.086-.543 1.629-.543 1.357 0 2.714 1.629 2.171 2.714-.271.815-.814 1.629-1.357 2.172-.814 1.086-1.628 1.9-2.714 2.986 1.629.271 2.171-.543 3.257-.815 7.329-3.257 14.658-6.785 22.258-9.771 11.128-4.343 22.257-8.143 33.386-12.215 1.9-.542 3.8-1.357 5.7-1.628 1.085-.272 2.443-.272 3.528-.272 1.358.272 2.172 1.9 1.358 3.258-.543.814-1.358 1.628-2.172 2.442-2.171 1.629-4.343 2.986-6.514 4.343-3.8 2.172-7.6 4.343-11.4 6.786-.543.272-1.086.814-1.629 1.357 1.629 0 3.257-.271 4.614-.814 6.515-1.9 13.029-3.257 19.815-4.071 10.586-1.358 21.443-1.629 32.029-1.086 9.5.543 19.272 1.357 28.772 1.9.542 0 1.357 0 1.628.271.543.272 1.086 1.086 1.086 1.629s-.543 1.357-1.086 1.628c-1.085.272-2.171.272-2.986.272-3.8.271-7.6.543-11.128 1.086-.814 0-1.629.543-3.257 1.085 6.243 1.358 11.4 2.715 16.557 3.8 7.871 1.9 15.743 3.8 23.614 5.7 1.086.272 2.443.543 3.529 1.086.814.272 1.357 1.357 1.357 2.172 0 1.085-.814 1.628-1.628 1.9-1.086.271-2.172.271-3.258.271-5.971 0-11.671 0-17.643 0-11.4 0-22.528 1.086-33.657 2.443-.543 0-1.086.543-2.172 1.086 3.8 1.085 6.786 1.9 9.772 2.714 14.929 4.343 29.586 10.314 44.243 16.014.543.272 1.086.543 1.629.815.814.543 1.086 1.357.814 2.443-.271.814-1.086 1.357-2.171 1.357-.815 0-1.629-.543-2.715-.543-3.257-.814-6.785-1.9-10.042-2.443-12.758-2.443-25.786-4.614-38.544-6.786-3.8-.543-7.6-1.085-11.671-1.628.271.271.271.814.542 1.085 1.9.815 3.8 1.629 5.972 2.172 7.871 2.443 15.743 4.886 23.615 7.329 8.685 2.714 17.643 5.157 26.328 7.871 1.358.272 2.715.814 3.8 1.357.815.543 1.086 1.357 1.086 2.443-.271 1.086-1.086 1.629-1.9 1.629-1.9 0-3.8-.272-5.7-.543-5.428-.814-10.857-1.357-16.014-2.172-12.486-1.628-24.972-3.528-37.187-6.514-19-4.614-38-9.5-57.272-13.3-.543 0-1.085 0-2.714 0 1.629.814 2.171 1.357 2.986 1.9 4.071 1.628 8.414 3.528 12.757 4.886 7.6 2.171 15.472 4.343 23.072 6.243 8.686 2.171 17.1 4.614 25.786 6.785 1.357.272 2.714.815 3.8 1.358 1.086.542 1.628 1.9 1.086 2.714-.272.814-1.086 1.628-1.9 1.9-1.358.271-2.986.271-4.615.271-10.043-.271-20.086-1.357-29.857-3.528-13.3-2.715-26.601-5.972-40.172-8.958-.543-.271-1.357 0-1.9-.271.814 1.086 1.9 1.9 2.985 2.172 4.615 2.171 9.229 4.342 14.115 6.242 8.957 3.529 17.914 6.786 27.143 10.043 1.357.543 2.714 1.086 4.072 1.629 1.085.543 1.357 1.357 1.357 2.714-.272 1.086-1.086 1.9-2.172 2.172-.814.271-1.9.271-2.714.271-9.5 0-19.272 0-28.772-.543-7.328-.271-14.657-1.357-21.986-2.443-6.786-1.085-13.3-2.442-20.086-3.528-.543 0-.814-.272-1.357-.272s-1.086-.542-1.357.815c1.086.543 2.171 1.357 3.257 1.9 13.572 7.328 27.686 14.114 41.801 20.357 1.085.543 1.9.814 2.714 1.357 1.086.815 1.357 2.443.814 4.072-.543 1.086-1.357 1.628-2.714 1.357-2.171-.271-4.071-.814-6.243-1.357-8.414-2.715-16.557-5.429-24.972-8.143-.814-.272-1.357-.272-2.171-.543.814 1.086 1.9 1.628 2.714 2.443 2.443 1.628 4.886 3.257 7.057 4.886.815.542 1.629 1.357 2.443 2.171 1.086 1.086 1.086 2.443.543 3.8-.543 1.086-1.629 1.629-2.986 1.629-1.9-.272-3.528-.543-5.428-.815-12.486-2.985-24.701-6.514-36.644-10.857-.814-.271-1.628-1.086-2.714-.271 1.086 1.085 1.9 1.9 2.714 2.714 5.158 4.343 10.315 8.414 15.201 12.757 1.085 1.086 2.442 1.9 3.257 2.986.814 1.086 1.357 2.172 2.171 3.529.815-.272 1.357-.272 2.172-.543 10.857-3.257 21.986-6.515 32.843-9.5 13.3-3.8 26.6-7.6 39.9-10.858 14.658-3.8 29.587-6.514 43.972-11.671.815-.272 1.629-.272 2.715-.543 1.086 0 2.171.543 2.443 1.629.271 1.085.271 2.171-.543 2.985-1.086 1.086-2.443 1.629-3.529 2.715-1.357 1.085-3.257 1.628-4.614 3.257 2.171.543 4.071-.543 5.971-.814 10.043-2.172 20.086-4.343 29.858-6.515 1.357-.271 2.714-.543 4.071-.543.543 0 1.357.815 1.629 1.357.271.543 0 1.629-.543 1.901-.814.814-1.9 1.357-2.986 1.899-3.528 1.358-7.057 2.715-10.586 4.072-.814.271-1.628.814-2.443 1.086.272.271.272.543.272.543h2.714c10.043-.815 20.086-.543 30.129.271 1.357 0 2.715.271 4.072.543.543.271 1.357.814 1.357 1.628.271.815 0 1.901-1.086 2.172-1.086.543-2.443 1.357-3.8 1.629-4.071.814-8.414 1.357-12.486 2.171-1.628.271-3.257.271-4.886.543-1.628.271-3.528.271-5.157.271-.271.272-.271.543-.543.815.272.271.815.542 1.086.542 2.172.815 4.615 1.629 6.786 2.443 8.143 2.443 16.014 5.158 23.614 8.958 8.143 4.071 16.015 8.143 24.158 12.214.543.271 1.357.814 1.628 1.357.272.543.272 1.357.272 2.172 0 .542-.814 1.085-1.357.814-1.086 0-2.443-.272-3.529-.543-9.771-2.714-19.271-5.7-29.043-8.414-1.086-.272-2.171-.815-3.257-.272.271 1.086 1.085 1.629 1.628 2.172 3.529 2.714 7.058 5.428 10.315 7.871 5.971 4.615 11.943 9.229 17.914 13.843.543.272 1.086.815 1.358 1.086.271.543.542 1.357.271 2.171-.272 1.086-1.357 1.358-2.172 1.086-.814-.271-1.628-.543-2.442-.814-19.001-8.686-37.458-18.457-55.644-29.043-.543-.272-1.086-1.086-1.629-1.358-.271 0-.814.001-1.357.272.543 0 1.086 0 1.357-.272 0 .543-.271 1.086 0 1.358.815.814 1.629 1.357 2.443 2.171 10.043 7.057 20.358 14.115 30.401 21.172.814.543 1.9 1.085 2.443 1.9.814.543 1.085 1.628.542 2.443-.542.814-1.357 1.357-2.171 1.085-.814 0-1.357-.271-2.171-.542-13.572-5.429-26.601-11.943-38.815-20.086-1.9-1.358-3.8-2.443-5.7-3.8-.543-.272-.815-.815-1.9 0 1.085 1.085 2.171 2.442 3.528 3.257 8.143 7.057 16.286 14.114 24.158 20.9.814.814 1.9 1.629 2.714 2.443.271.271.271 1.086.271 1.628-.271.543-.814 1.086-1.357.815-1.085 0-2.171-.272-2.985-.543-2.172-1.086-4.343-1.9-6.515-2.986-9.5-5.157-18.729-10.314-28.229-15.2-1.085-.543-2.443-1.086-4.343-2.171 1.086 1.9 1.9 2.714 2.715 3.528 6.785 6.243 13.3 12.486 20.086 19 2.714 2.443 5.7 4.886 8.414 7.329.814.814 1.629 1.629 2.443 2.714.543 1.086-.271 2.715-1.629 2.715-.814 0-1.628-.272-2.171-.543-2.172-1.086-4.343-1.9-6.514-2.986-7.601-4.071-14.929-8.957-21.987-14.114-4.342-3.258-8.414-6.515-12.485-9.772-.543-.543-1.086-1.357-2.443-.814.271.543.543 1.085.814 1.357 6.786 7.871 13.572 15.743 20.086 23.614.814.815 1.629 1.901 2.443 2.715.814 1.086.814 2.443 0 3.257s-2.172 1.086-3.257.543c-1.086-.543-2.443-1.357-3.258-2.172-4.071-3.528-8.142-7.057-12.214-10.857-.543-.543-.814-1.357-2.443-1.357.543.814.815 1.629 1.357 2.443 2.443 3.528 5.158 7.057 7.6 10.586.815 1.085 1.358 1.9 1.901 2.985.271.815 0 1.9-.543 2.443-.543.815-1.629 1.086-2.443.543-1.086-.543-2.172-1.086-3.257-1.628-11.129-7.6-22.258-14.658-32.029-24.158-.543-.543-.815-1.357-2.172-.814.543 1.086 1.086 2.171 1.629 3.257 4.614 7.6 8.957 15.2 13.571 22.8.543.815 1.086 1.9 1.629 2.715.543.814.543 1.628-.272 2.442-.814.815-1.628.815-2.442.272-1.358-.814-2.715-1.629-3.8-2.443-3.529-3.257-7.058-6.514-10.586-9.771-3.529-3.258-6.786-6.243-10.315-9.501-.271-.271-.814-1.085-1.628 0 1.085 1.358 1.9 2.986 2.985 4.343 2.172 2.715 4.072 5.429 6.243 8.415.815 1.085 1.358 2.171 1.629 3.257s-.543 2.171-.814 3.257c1.357.814 2.714 1.357 4.071 2.171 13.3 6.243 26.329 12.486 39.629 18.729 4.886 2.443 9.772 4.615 14.658 7.058 1.357.542 2.442 1.628 3.8 2.443 1.085.814 1.085 2.171.542 3.257-.542 1.357-1.9 2.171-3.257 1.9-1.357-.272-2.714-.815-3.8-1.086-4.885-1.9-9.771-3.8-14.929-5.429-1.357-.543-2.714-.814-4.342-1.357 0 .543 0 .814.271 1.086 1.086 1.086 2.172 2.171 3.257 2.986 12.215 10.585 23.072 22.257 34.472 33.929.543.542 1.086 1.085 1.357 1.628.272.272.543.815.543 1.086.814 1.629-.543 3.528-2.443 3.257-.814 0-1.357-.271-2.171-.543-1.086-.543-2.443-1.357-3.529-1.9-5.157-3.528-10.314-7.328-15.472-11.129-.271-.271-.814-.542-1.085-.814-.543-.271-.815-1.086-1.629 0 .272.543.543 1.357.815 1.9 5.971 11.943 11.671 24.158 17.643 36.101 2.985 6.243 5.971 12.757 8.957 19.271.543 1.086 1.086 2.172 1.357 3.258.271 1.085-.543 2.171-1.357 2.442-1.086.272-1.9 0-2.443-.542-.543-.815-1.086-1.629-1.357-2.443-3.8-9.229-9.229-17.643-15.2-25.515-11.401-15.472-22.801-30.672-34.201-45.872-.814-1.086-1.629-2.171-2.714-2.986-.272-.271-.815 0-1.357 0 0-.271 0-.543.271-1.085h-.271c0 .271.271.542.271.814 3.8 6.786 7.872 13.572 11.672 20.357 5.7 9.772 11.671 19.815 17.371 29.586.272.543.815 1.357 1.086 1.9.814 1.9.543 3.258-.814 4.072-1.086.814-2.443.814-4.072-.543-.814-.543-1.628-1.357-2.171-2.171-11.129-12.215-21.715-24.701-30.401-38.815-4.885-7.872-10.043-15.743-14.928-23.615-.815-1.357-1.629-2.443-2.443-3.528-.272 1.085-.272 1.9 0 2.714 1.9 4.071 3.257 8.143 5.428 11.943 4.615 8.414 9.501 16.829 14.115 25.243.814 1.357 1.629 2.714 2.443 4.343.271.814.543 1.629.814 2.443.272 1.9-1.629 3.257-3.257 2.171-1.086-.543-2.172-1.357-2.986-2.171-2.986-2.714-5.971-5.429-8.686-8.414-6.514-7.329-12.757-14.929-18.729-22.529-4.071-5.158-7.871-10.586-11.942-16.015-.815-1.086-1.629-1.9-2.443-2.714-.272 1.9.542 2.986 1.357 4.343 4.614 7.328 9.229 14.386 13.843 21.714 2.714 4.072 5.428 8.143 8.414 12.486.543.814 1.086 1.9 1.357 2.715.272.814 0 1.9-.814 2.442-.543.272-1.628.272-2.171 0-1.358-.814-2.715-1.628-4.072-2.714-13.843-10.857-26.6-23.072-37.729-36.643-2.443-2.986-4.886-5.972-7.329-9.229-.271-.543-.543-1.357-1.9-1.086.815 1.358 1.629 2.715 2.172 4.072 2.714 4.614 5.429 8.957 8.143 13.571.543 1.086 1.357 2.443 1.628 3.8.272 1.9-1.357 3.258-3.257 2.443-1.357-.543-2.443-1.628-3.8-2.443-4.343-3.528-8.414-7.871-11.943-12.214-3.257-4.071-6.243-8.143-9.5-12.214-.543-.815-1.357-1.358-2.171-2.443-.543 1.9.542 2.985.814 4.071 2.171 5.7 4.343 11.4 6.243 16.829.543 1.086.814 2.443.814 3.529 0 .814-.543 1.9-1.086 2.171-.542.271-1.628.271-2.443 0-.814-.271-1.628-1.086-2.171-1.629-1.357-1.357-2.443-2.714-3.529-4.071-3.528-4.343-6.785-8.686-10.314-13.3-.543-.815-1.357-1.357-1.9-1.9 0 1.357.272 2.443.543 3.8.814 2.986 1.628 6.243 2.171 9.229.272.814.272 1.9.272 2.714-.272 1.628-2.172 2.443-3.529 1.628-1.357-1.085-2.443-2.171-3.528-3.528-3.801-4.615-7.601-9.229-11.401-13.843-.543-.543-1.085-1.086-2.171-1.9.271 4.886 1.9 9.228 1.086 13.571 1.085.543 1.9 1.358 2.714 1.629 10.043 5.429 20.086 10.586 30.4 16.014 10.315 5.429 20.901 10.586 31.487 15.743 6.514 3.258 12.757 7.329 18.728 11.943 11.129 8.415 22.529 16.558 33.658 24.972.814.543 1.357 1.086 2.171 1.629.543.271 1.086.814 1.086 1.357.272.543.272 1.629 0 2.171-.271.543-1.086 1.086-1.9 1.086-1.086 0-2.443-.543-3.529-.814-3.257-1.357-6.243-2.986-9.5-4.343-.543-.272-1.086-.814-2.171 0 1.9 1.629 3.8 3.529 5.7 5.157 8.414 7.6 16.829 14.929 25.243 22.529 1.357 1.086 2.171 2.443 3.257 3.529.543.814.814 1.628.272 2.442-.543.815-1.357 1.358-2.443 1.086-1.357-.271-2.715-.814-3.8-1.357-2.172-.814-4.072-2.171-5.972-2.986-.543-.271-1.357-.543-2.443-.814.543 2.171 1.629 3.529 2.443 4.614 3.8 5.429 7.329 10.858 11.129 16.558 5.7 8.414 9.771 17.643 12.757 27.414.272 1.086.543 2.172.543 2.986 0 1.9-1.9 2.986-3.529 2.172-1.085-.815-2.171-1.629-2.985-2.715-2.443-3.257-4.886-6.514-7.329-9.771-.271-.543-.543-1.629-1.629-1.086.272.814.272 1.357.543 2.171 7.058 19.272 10.315 39.629 13.029 59.987 0 .814.271 1.9 0 2.714s-1.086 1.357-1.9 1.629c-.814.271-1.9-.272-2.171-1.086-.543-1.086-1.086-2.171-1.358-3.257-2.714-7.057-5.157-14.115-7.871-21.172-.543-1.357-1.086-2.443-1.629-3.528-.543.814-.542 1.9-.542 2.442.542 2.443 1.085 4.886 1.628 7.6.271 1.358.543 2.715.814 4.072.272 1.629-.543 2.714-1.628 3.257-1.086.543-2.443 0-3.529-1.357-.814-1.357-1.629-2.443-2.171-3.8-4.886-9.771-9.5-19.543-14.386-29.315-3.257-6.785-5.7-13.571-7.6-20.9-1.357-5.429-2.986-11.129-4.615-16.557-.271-.815-.271-1.9-1.628-2.172 0 .815-.272 1.357-.272 2.172v13.571c.272 5.429.543 10.858.815 16.286 0 1.357 0 2.715-.272 4.072-.271 1.085-1.086 1.9-2.171 1.9-1.086 0-1.9-.543-2.172-1.357-.543-1.358-1.085-2.443-1.357-3.8-2.171-7.872-4.343-16.015-6.514-23.887-.272-.542 0-1.628-1.357-1.628-.272.271-.543.814-.543 1.086-1.357 4.614-2.172 8.957-2.443 13.843 0 1.085-.272 2.443-.543 3.528-.271 1.357-1.629 2.172-2.714 2.172-1.086 0-1.9-.815-2.443-1.9-.272-.543-.272-1.086-.543-1.629-2.443-10.314-4.886-20.9-7.329-31.215-1.357-6.514-2.443-13.028-3.8-19.543-.271-.814 0-1.9-1.357-1.9-2.171 6.515-2.986 13.3-3.529 20.086-.271 3.8-.542 7.6-.814 11.129 0 1.357-.271 2.714-.814 4.072-.272.814-1.086 1.357-2.172 1.357-1.085 0-1.628-.543-2.171-1.357-.272-.815-.272-1.358-.543-2.172-.814-3.529-1.357-7.057-2.171-10.586-2.986-14.657-6.515-29.314-7.872-44.515 0-.271-.543-.814-1.086-1.9-.543 5.972-1.085 11.129-1.357 16.015-.271 5.971-.271 11.671-.543 17.643 0 1.086 0 2.443-.271 3.528-.272 1.358-1.086 2.172-1.9 1.901-1.086-.272-1.629-.815-1.629-2.172 0-1.086 0-2.171 0-3.257.272-11.943.543-24.158-1.357-36.101-.271-1.628-.271-3.257-1.357-5.7-.543 2.986-1.086 4.886-1.086 7.058-.814 10.314-1.628 20.628-2.443 30.943 0 1.628-.271 3.257-.271 4.886-.272 1.9-1.086 2.985-2.443 2.714-1.086-.271-1.629-1.086-1.9-2.714-.814-8.686-1.629-17.372-2.714-26.058-.815-7.871-1.9-15.743-2.715-23.886 0-.814-.271-1.9-.543-2.714-.271-.814 0-1.629-1.085-2.443-.272.814-.815 1.086-.815 1.629-.814 4.614-1.9 9.5-2.714 14.114-.814 5.157-1.086 10.586-1.628 15.743 0 .814-.272 1.9-.543 2.714-.272 1.358-1.357 1.9-2.172 1.9-1.085-.271-1.628-.814-1.9-1.628-.271-1.086-.543-2.172-.543-2.986-2.443-14.114-5.7-27.957-9.5-41.8-.271-.815-.271-1.629-1.357-1.629-1.086 4.886-1.628 10.043-1.628 15.2v5.972c0 1.085-.272 2.171-.815 2.985-.543 1.086-2.443 1.358-2.986.272-.542-.815-1.085-1.9-1.357-2.715-1.085-4.071-2.171-8.142-2.985-12.214-1.629-7.6-3.258-14.929-4.886-22.529-.272-.814-.272-1.9-1.629-2.714 0 2.714-.271 5.157-.271 7.6 0 5.429.271 10.857.271 16.286 0 1.357 0 2.714-.271 4.071-.272 1.086-1.358 2.172-2.172 1.9-.814 0-1.9-.542-2.171-1.085-.815-1.086-1.357-2.443-1.629-3.529-1.9-4.886-4.343-9.5-7.328-14.114-.543-.815-1.358-1.9-2.172-2.172-2.171-.814-3.8-2.171-5.429-3.8-4.342-4.343-8.414-8.957-12.485-13.572-.815-.814-1.086-2.171-2.715-2.171 0-.271-.271-.543-.271-1.086l-.272.272c.272.271.543.543.543.814-.271 1.9.815 3.529 1.629 4.886 8.143 16.557 15.471 33.657 24.429 49.943.814 1.629 1.628 3.529 2.443 5.429.542 1.357.543 2.714-.543 3.8s-2.443 1.086-3.8.543c-.815-.543-1.9-.814-2.715-1.629-1.628-1.357-3.257-2.714-4.614-4.343-2.986-3.257-5.972-6.785-8.686-10.314-.814-.814-1.357-1.629-2.714-2.986.271 1.357.271 2.172.543 2.714 2.443 6.786 4.885 13.572 7.6 20.358 3.257 7.6 6.786 15.2 10.043 22.8 1.086 2.714 2.443 5.157 3.528 7.872 1.086 2.714.815 4.343-1.085 5.157-2.172.814-3.257-.543-4.615-1.9-.814-.814-1.628-1.9-2.171-2.986-1.357-1.9-2.714-4.071-3.8-5.971-3.529-5.972-6.786-11.943-10.043-18.186-3.529-6.515-6.786-13.029-10.315-19.543-.542-.815-1.085-1.629-1.628-2.443 0 1.628.271 2.985.543 4.614 3.8 16.015 9.228 31.758 14.386 47.501 1.628 4.885 3.257 10.043 4.614 15.2.271 1.357.543 2.714.543 4.071 0 .815-.543 1.9-1.357 2.172-.815.271-1.9 0-2.443-.543-1.086-1.086-2.172-2.172-2.714-3.529-2.172-4.343-4.615-8.414-6.515-12.757-2.714-5.7-4.886-11.4-7.329-17.1-.542-1.357-1.357-2.443-1.899-3.8-.272.814-.272 1.357-.272 1.9 1.086 4.343 2.443 8.686 3.529 13.028 3.528 14.386 7.328 28.501 10.857 42.887 1.357 5.428 2.986 10.857 4.343 16.286.271 1.628.543 3.257.543 4.885 0 1.086-.543 1.9-1.9 2.443-1.086.272-2.172.272-2.986-.814-1.086-1.086-1.9-2.443-2.443-3.8-3.8-7.329-7.6-14.386-10.043-22.257-.271-1.086-.271-2.172-1.628-2.715v1.9c.542 6.515.814 13.3 1.357 19.815 1.085 12.757 1.357 25.514.814 38.272 0 1.085-.272 2.171-.543 2.985-.271 1.086-1.629 2.172-2.714 2.172-1.086 0-2.172-.543-2.443-1.629-.543-.814-.815-1.9-.815-2.985-1.085-4.343-1.899-8.686-2.985-13.301-2.443-12.214-4.886-24.429-7.6-36.643-.272-1.357-.272-2.714-1.629-4.071-.271 1.085-.271 1.628-.543 2.442-1.086 7.329-1.357 14.658-1.357 21.986 0 4.886 0 9.772-.271 14.386-.815 14.386.543 28.505 1.9 42.885.543 4.89 1.085 9.5 1.628 14.39 0 1.08.272 2.44 0 3.53 0 1.35-1.357 2.17-2.443 2.44-1.085 0-2.443-.54-2.985-1.9-.272-.82-.543-1.63-.543-2.72-3.529-15.74-6.515-31.75-7.872-48.039-.271-1.628-.543-3.528-1.086-6.243-.271 1.629-.542 2.172-.542 2.715-2.172 15.471-1.9 31.217-1.358 46.957.272 8.14 1.086 16.29 1.629 24.43 0 1.08 0 2.44-.271 3.53-.272 1.08-1.086 1.9-2.172 1.9s-2.171-.27-2.714-1.36c-.272-.54-.543-1.36-.814-2.17-.272-1.9-.815-3.8-.815-5.7-.814-10.32-1.628-20.63-2.171-30.94-.814-11.13-2.172-22.261-3.529-33.119 0-1.085-.271-1.9-.814-3.528-.814 1.085-1.357 1.628-1.357 2.442-.815 2.715-1.629 5.429-2.172 8.143-.814 5.158-1.628 10.042-2.443 15.202-.271 1.36-.542 2.71-1.085 3.8-.543 1.08-1.629 1.63-2.986 1.63-1.086-.27-1.9-.82-2.172-1.9-.271-1.36-.814-2.72-.814-4.07-.543-5.43-.814-10.861-1.357-16.29-1.086-11.672-2.443-23.343-2.986-35.015 0-.543-.271-1.086-.543-1.9-2.714 2.443-4.343 5.157-5.7 7.872-1.9 3.528-3.528 7.328-5.157 10.857-.543 1.086-1.086 2.171-1.629 3.257-.814 1.357-2.171 1.629-3.528 1.086s-1.9-1.357-1.9-2.715c0-1.628 0-3.257.271-4.885 1.9-10.315 4.343-20.629 8.686-30.401 1.9-4.614 3.8-9.228 5.429-13.843.543-1.085.814-2.443 1.085-3.528-.271-.272-.542-.543-.542-.543-5.701.271-11.401 1.357-16.286 4.343-1.358.814-2.715 1.628-4.343 2.443-.814.542-1.629.814-2.443.814-1.629.271-2.986-1.357-2.443-2.986.543-1.086 1.086-2.171 1.9-2.986 2.443-3.257 5.157-6.243 7.6-9.5 3.257-4.343 5.972-8.686 9.229-13.028.543-.815 1.086-1.358.271-2.443-2.714.271-5.428 1.085-8.143 1.9-2.171.543-4.343 1.628-6.514 1.628-2.172.272-3.8 1.086-5.429 2.172-4.885 3.257-9.5 7.057-13.571 11.128-1.086 1.086-2.443 2.172-3.8 3.258-.543.542-1.629.543-1.9-.272-.272-.543-.815-1.357-.543-1.9.543-1.357 1.357-2.443 2.171-3.528 9.229-11.672 18.186-23.615 27.415-35.287.271-.542 1.086-.814.814-2.171-1.086.814-1.9 1.357-2.714 2.171-3.257 2.443-6.243 5.158-9.5 7.6-.815.815-1.9 1.358-2.986 1.901-.814.271-1.9.271-2.443-.543-.271-.543-.543-1.357-.271-2.172.542-1.357 1.357-2.714 2.171-4.071 5.157-7.6 10.043-15.2 15.2-22.258 4.343-5.971 9.229-11.943 13.843-17.914.543-.543 1.629-1.086.815-2.172-5.429 4.072-10.315 8.415-14.929 13.301-.814.814-1.629 1.628-2.443 2.442-.271.272-1.086.272-1.357 0-.272-.271-.815-1.085-.543-1.357.271-.814.543-1.628 1.086-2.443 10.586-17.1 21.714-33.657 34.743-48.857.814-.815 1.357-1.9 2.171-2.715-2.443.543-3.8 2.172-5.7 3.529-.814.543-1.628 1.357-2.714.543-1.357-.815-.814-1.9-.543-3.257 0-.272 0-.543-.271-.815-1.357-.543-2.172-.271-2.986 1.086-2.443 3.8-5.157 7.6-7.6 11.129-1.086 1.628-2.172 3.257-3.529 4.614-1.085 1.357-2.714 1.9-4.614 1.086-.543-.272-1.086-.272-1.629-.543-.542 1.628-1.085 2.986-1.628 4.343-1.357 3.528-2.715 7.057-4.343 10.586-1.357 3.257-3.257 6.243-7.057 6.785-1.086 2.986-2.172 5.429-3.258 8.143-3.528 8.143-6.785 16.558-9.5 24.972-.814 2.715-1.9 5.429-3.257 7.872-.543 1.085-1.357 2.443-2.171 3.257-1.357 1.357-3.258 1.086-4.343-.272-.543-.814-1.086-1.628-2.172-3.257 0 1.629-.271 2.443-.271 3.257-.272 3.801-.272 7.872-.543 11.672 0 1.086-.271 2.443-.543 3.529-.271 1.357-.814 2.714-2.443 2.714-1.628.271-2.443-1.086-2.986-2.172-.271-.814-.814-1.628-1.085-2.442-.815-1.629-1.357-3.258-2.172-4.886-.271-.543-.543-1.357-1.628-1.357 0 1.9.271 3.528.271 5.428 0 4.886.272 9.5.272 14.386 0 1.629-.272 2.986-.543 4.343-.543 2.172-1.629 3.529-2.986 3.529-1.9 0-2.443-1.629-2.986-2.986-1.086-2.986-2.443-6.243-3.528-9.229-.272-.543-.543-1.357-1.629-1.357-.543 4.614-1.086 9.229-1.629 13.843-.814 5.972-1.628 11.943-2.443 17.915-.271 1.628-.542 3.257-1.899 4.614-1.086 1.357-2.986 1.086-3.801-.271-.542-1.086-.814-2.172-.814-3.529-.543-3.529-.543-7.329-1.628-11.672-.543 1.358-1.086 1.9-1.358 2.443-3.528 13.029-6.785 25.786-8.414 39.358-.271 1.9-.543 3.529-.814 5.429 0 .814-.272 1.357-.815 2.171-.814 1.629-2.985 1.9-4.071.272-.543-.815-.814-1.629-1.086-2.443-1.357-4.072-2.443-8.143-3.8-11.944-.271-1.085-.814-1.899-1.357-3.528-.543 1.629-1.086 2.986-1.357 4.071-1.9 9.501-3.8 19.001-4.343 28.501-.271 4.343-.543 8.686-1.086 13.03 0 1.08-.271 2.17-.271 3.26-.272 1.08-.815 1.62-1.9 1.62-1.086 0-1.629-.54-1.9-1.62-.272-1.09-.543-1.9-.815-2.99-1.085-4.343-1.9-8.414-2.985-12.757 0-.543 0-1.358-.815-1.086 0 0-.271 0-.271.271-.272.543-.272 1.086-.543 1.629-2.443 11.673-3.529 23.613-4.071 35.283 0 1.9 0 3.53-.272 5.43 0 .82-.271 1.63-.543 2.17-.543.82-1.085 1.36-2.171 1.09-.543-.27-1.357-.82-1.629-1.36-.271-.54-.543-1.36-.543-2.17-1.085-5.97-2.171-11.94-3.257-17.64 0-.55-.543-1.09-1.086-2.17-.542 2.17-1.357 3.8-1.628 5.42-1.9 7.88-3.529 15.75-5.429 23.89-.543 2.71-1.628 5.43-2.171 8.41-1.357 7.6-2.443 15.48-3.8 23.08-.272 1.35-.543 2.98-1.086 4.34-.271.54-.543 1.09-.814 1.63-.543.81-2.172.81-2.715 0-.543-.82-.814-1.9-1.085-2.99-2.715-14.65-3.8-29.31-3.529-43.97 0-4.89.543-9.5.543-14.39 0-.81.543-1.62-.543-2.44-.543 1.36-.814 2.44-1.357 3.53-.814 2.71-1.357 5.16-2.172 7.87-.271 1.09-.814 2.17-1.357 3.26-.543.81-1.357 1.08-2.443.81-1.085-.27-1.628-.81-1.628-1.9 0-1.08 0-2.17 0-3.25 1.085-9.23 2.171-18.46 4.071-27.69 3.257-16.015 7.6-32.029 12.758-47.501.271-.814.271-1.357.542-2.985-1.085 1.085-1.628 1.628-2.171 2.171-1.629 1.9-2.986 4.071-4.886 5.971-.814 1.086-1.9 1.901-2.986 2.443-1.628.815-3.8-.814-3.528-2.714 0-.814.543-1.357.543-2.171 3.257-9.772 7.057-19.272 11.671-28.229 16.558-33.386 37.187-63.515 62.158-90.93 12.215-13.3 24.972-25.786 39.086-36.643 19.544-15.2 40.172-28.501 63.244-38.272 1.086-.543 1.9-.814 2.714-1.357.272-.272.272-.815.543-1.086.815.271 1.9.543 2.443-.543.814 0 1.629.271 1.629-1.086 1.085.272 1.9.272 2.714-.543.814-.271 1.357-.542 2.171-.542.272-.272.543-.272.543-.543-.271.271-.271.543-.543.543-.814-.272-1.9-.815-2.171.542-.814.272-1.9.272-2.714.543-.543.272-1.086.543-1.629.815-.814.271-1.628.271-2.171.542-.272 0-.543.272-.815 0-2.985-.542-3.8-2.442-2.442-4.885.814-1.358 1.9-2.443 2.714-3.8.543-.815 1.628-1.358 1.085-2.715-.542 0-.814 0-1.357.272-7.871 2.714-15.471 6.243-21.714 11.671-.815.815-1.9 1.629-2.986 2.172-2.986 1.628-5.157.543-5.971-2.715 0-.542.271-1.628-.815-2.171-.543.543-1.357 1.086-1.9 1.629-5.157 4.614-10.043 9.5-13.843 15.471-.543 1.086-1.357 1.9-2.171 2.715-2.172 1.9-4.886.814-5.429-1.901-.271-.814 0-1.9 0-2.714.272-1.9.814-3.8 1.357-5.7.272-.814.272-1.628.543-2.986-1.086.543-1.628.543-2.443 1.086-6.514 4.343-13.028 9.5-18.186 15.472-1.085 1.357-2.443 2.714-3.528 4.071-.815.814-1.629 1.357-2.443 1.9-1.9 1.086-4.072-.271-4.072-2.443 0-1.357 0-2.985.272-4.343-1.086-.542-1.357 0-1.9.543-5.157 4.343-10.043 9.229-13.843 14.658-1.9 2.985-3.8 5.7-5.7 8.685-.815 1.086-1.629 2.172-2.443 3.258-1.9 1.9-4.343 1.357-5.7-.815-.543-.814 0-1.9-1.629-2.171-.271.543-.271 1.086-.543 1.628-1.085 3.529-2.171 7.058-3.528 10.586-.815 1.9-1.629 3.8-2.715 5.7-.814 1.358-1.9 2.443-3.528 2.172-1.358-.272-1.9-1.086-2.172-3.529 0-.543 0-1.086-.271-1.9-.272-1.628-.543-3.528-.814-5.157-.543 1.086-.815 1.9-.815 2.986-.814 6.243-2.171 12.486-4.343 18.457-.271 1.086-.814 2.172-1.357 3.257-1.357 2.172-3.529 2.172-5.157.272-.272-.543-.272-1.629-1.357-1.629l-.272.272c-2.985 10.043-6.514 19.543-8.686 29.857-.271 1.086-.542 2.172-1.085 2.986-1.086 2.171-3.8 2.171-5.157.271-.815-1.357-1.358-2.714-1.629-4.071-1.629-5.972-3.257-11.943-4.614-17.915-.272-.543 0-1.628-1.357-1.628-.272 1.085-.543 2.171-.815 3.528-.543 5.157-1.086 10.586-1.628 15.743-.272 1.358 0 2.986-1.086 4.343s-3.257 1.357-4.343 0c-.543-.814-.814-1.9-1.086-2.985-.814-3.529-1.628-7.058-2.443-10.586-.271-.815-.271-1.629-1.628-1.629-.543 8.143-1.357 16.286-1.9 24.158-.272 3.8-.815 7.871-1.086 11.671-.271 2.172-1.357 2.986-2.714 2.986-1.629-.272-2.172-1.629-2.443-2.986-.543-3.529-1.357-6.786-1.9-10.314-.543-2.986-1.086-5.7-1.629-8.686-.814 1.086-1.357 2.171-1.357 3.257-.543 3.8-1.086 7.329-1.629 11.129-.814 4.343-1.357 8.957-2.171 13.3-.271 1.086-.814 2.171-1.357 3.257-.814 1.357-2.986 1.086-3.8-.543-.543-1.086-.543-2.443-.815-3.528-.814-8.958-1.357-17.643-2.171-26.601 0-.543.271-1.628-1.086-1.9-.543 1.086-1.085 1.9-1.628 2.986-2.715 5.429-5.429 10.586-8.143 16.014-6.786 13.301-13.3003 26.601-18.4576 40.715-.2714.815-.8143 1.629-1.3571 2.443-1.0857 1.629-3.8002 1.086-4.343-.814-.2715-1.086-.2715-2.443 0-3.529 1.0857-6.243 2.4429-12.757 3.8001-19 4.6143-21.443 11.1287-42.072 20.3576-62.158.543-.814 1.357-1.628.814-2.986-.271.272-.814.543-1.086.815-6.243 7.328-12.2141 14.928-17.3713 23.071-.5429.815-1.0858 1.9-1.6287 2.715-.5429.814-1.6285 1.085-2.4428.543-.8143-.272-1.6286-1.629-1.3571-2.715.2714-.814.5428-1.357.8142-2.171 2.9858-6.515 6.243-13.029 9.2288-19.543 5.1569-11.4 10.5859-22.529 17.3719-33.115 2.714-4.072 5.428-7.872 8.143-11.943.271-.543 1.085-1.086 0-1.9-.815.543-1.629.814-2.172 1.357-2.986 2.443-5.971 4.614-8.686 7.057-.814.543-1.628 1.358-2.442 1.9-1.358 1.086-3.258.815-4.072-.271s-1.086-2.443-.271-3.8c.542-.814 1.085-1.629 1.9-2.443 4.885-5.971 9.771-12.214 14.928-18.186 6.786-7.871 14.115-15.2 22.258-21.714 6.514-5.158 13.3-10.315 20.086-15.201 1.628-1.357 3.257-2.443 3.528-4.885.272-1.629 1.358-3.258 2.172-4.886.271-.543.271-1.357.543-2.172-1.086.543-1.629.815-1.9 1.086-7.058 5.429-13.843 11.129-19.815 17.643-1.086 1.086-2.171 2.443-3.529 3.529-.542.543-1.085 1.085-1.628 1.628-.814.543-2.172.815-2.986 0-.814-.543-1.086-1.628-.814-2.443.271-.814.543-1.628.814-2.442.814-1.629 1.629-3.258 2.715-4.886 2.714-4.615 5.428-8.957 8.142-13.572.272-.543 1.086-1.086 0-2.171-.542.543-1.357 1.085-1.9 1.628-6.514 5.972-12.485 12.486-18.457 19.272-1.629 2.171-3.529 4.071-5.429 5.971-.814.815-1.628 1.629-2.714 2.443-1.086.815-2.443 1.086-3.8.272-1.086-.543-1.357-2.172-1.086-3.529.272-1.086.815-2.171 1.357-3.257 2.986-6.514 5.429-13.3 7.872-20.086.271-.814.543-1.629.814-2.714-.543.271-.814.271-1.085.543-.815 1.085-1.629 2.171-2.443 3.257-11.4 14.928-22.801 29.586-35.2865 43.429-4.0715 4.343-7.8715 9.229-11.6716 13.843-.5428.543-.8143 1.086-1.3571 1.628-1.0857 1.086-2.4429 1.358-3.5286.815s-1.3573-1.9-.8144-3.529c.5428-1.357 1.0858-2.443 1.6287-3.8 7.3286-15.2 14.3859-30.4 21.7145-45.6.5429-.815.8143-1.9 1.3572-2.715-1.3572.272-2.1716 1.086-2.9859 1.629-7.6001 7.6-14.3858 15.743-20.0858 24.7-.8143 1.357-1.9002 2.714-2.9859 4.072-.8143.814-1.8999 1.085-2.9857.543-1.0857-.543-1.6286-1.358-1.3571-2.443.2714-1.358.5429-2.715 1.0858-3.8 5.1572-11.401 10.3143-23.072 17.1001-33.658.2715-.543 1.0857-1.086.2714-1.9-28.5003 16.557-55.1007 36.1-80.61531 56.458-1.357164-.543-1.899929-1.086-1.08563-2.172.54286-1.085 1.35712-1.9 2.17142-2.985 4.34291-5.429 8.95732-11.129 13.30022-16.558 7.8715-9.771 16.2858-19 25.5145-27.414 20.9003-19.272 43.1577-36.372 69.7577-47.772.272-.272.543-.543 1.086-1.358-1.357 0-2.443-.271-3.257 0-7.329.272-14.3859.815-21.7146 1.086-1.3572 0-2.9859 0-4.343 0-1.0858-.271-1.8999-.814-1.8999-2.171 0-1.086.2714-2.172 1.3571-2.715 1.3572-.542 2.7144-1.357 4.0715-1.628 13.8429-4.072 27.6859-7.872 42.0719-10.315.814-.271 1.9-.542 3.8-1.357-5.157-1.085-9.229-1.9-13.3-2.714-3.257-.814-6.786-1.357-10.043-2.172-1.357-.271-2.443-1.357-2.443-2.985 0-1.357.814-2.443 2.443-2.715.814-.271 1.357-.271 2.171-.542 2.172-.272 4.615-.543 6.786-.543 6.515-.272 13.029-.272 19.543-.543 8.415-.272 16.829-.272 25.243.271.543 0 1.086.543 1.629-.543-.543-.271-1.086-.814-1.629-1.085-2.985-1.629-6.243-3.258-9.228-4.886-1.086-.543-2.443-1.357-3.529-1.9-1.086-.814-1.357-2.172-.814-3.257.543-1.086 1.628-1.358 2.714-1.358 1.357.272 2.986.543 4.343.815 3.529.814 7.329 1.9 10.857 2.986 16.558 4.614 32.844 10.043 48.315 17.371.543.272 1.357.543 1.9.815-.271-1.086-1.085-1.901-1.628-2.715-1.086-1.086-2.172-1.9-3.258-2.986-1.357-1.357-1.628-2.714-.814-3.528.814-1.086 1.9-1.357 3.529-.815 1.085.543 2.171 1.086 3.257 1.358 10.043 4.885 19.815 10.043 29.857 14.928 18.186 9.501 36.644 19.001 54.83 28.501 5.428 2.714 11.128 5.428 16.557 8.143.543.271 1.086 1.085 1.9 0-.543-.543-.814-.815-1.357-1.086-12.214-9.772-24.972-18.729-38.815-26.6-1.9-1.086-3.8-2.172-5.971-3.258-.815-.542-1.9-1.085-2.443-1.899-1.629-1.358-1.357-3.529.543-4.343 1.085-.543 2.171-.815 2.985-1.358-.271-.542-.271-.542-.271-.814-4.886-2.443-9.772-4.343-15.2-5.7-1.086-.271-2.443-.543-3.529-1.086-1.9-.814-2.443-2.985-1.086-4.343.815-.814 1.9-1.628 2.986-2.443-.543-.271-1.086-.814-1.357-.814-6.786-2.171-13.572-4.071-20.629-5.157-2.714-.271-5.428-.543-8.143-.814-.543 0-1.357-.815-1.628-1.357-.543-.815 0-1.9.814-2.443 1.629-.815 3.257-1.629 4.886-2.443 1.357-.543 2.714-.814 3.8-2.172-.272-.271-.543-.543-.815-.543-5.428-1.085-11.128-1.085-16.557-.271-1.9.271-3.528.543-5.429.814-1.628.272-2.985-.814-2.985-1.9 0-.814 0-1.628.271-2.171.814-2.172 2.443-4.072 4.072-5.7.543-.543 1.9-1.086 1.628-2.443-.271-.272-.543-.543-.814-.543-6.514-.814-13.3-.814-19.815 1.086-1.085.271-2.442.543-3.528.543-1.357 0-2.172-1.358-1.629-2.715.272-.814.815-1.9 1.629-2.714 2.714-2.714 5.971-5.157 9.5-6.786 1.086-.543 2.171-1.086 3.8-1.9-2.443-.543-4.072-.814-5.7-1.086-7.872-1.085-15.472-1.9-23.343-1.357-1.086 0-2.172 0-3.257 0-1.086 0-1.9-1.085-1.9-2.171s.271-1.9 1.085-2.443c1.086-.543 2.172-1.086 3.257-1.357 4.343-1.357 8.958-2.715 13.301-4.343.814-.272 1.357-.814 2.714-1.357-2.172-1.086-3.8-1.629-5.429-2.443-9.5-4.072-18.729-7.872-28.229-11.943-1.9-.815-3.528-1.629-5.428-2.443-.815-.272-1.629-.814-2.172-1.357-.814-.815-1.086-1.9-.543-2.986s1.358-1.629 2.715-1.357c.814 0 1.357.271 2.171.543 1.9.543 4.072 1.357 5.972 1.9 4.614 1.628 9.5 2.714 14.386 3.528.543 0 1.628.543 1.9-.814-2.443-2.171-5.158-4.071-7.601-5.971-9.5-7.058-18.457-14.929-27.414-22.801-.543-.543-1.086-1.085-1.629-1.628-1.9-1.9-2.171-3.258-1.357-4.343.814-1.086 2.172-1.357 4.072-.272 2.714 1.357 5.428 2.715 8.143 4.072 17.371 9.771 34.471 19.814 51.572 29.586.542.271 1.085 1.086 2.171.271-.814-1.085-1.357-1.9-2.171-2.985-2.172-2.715-4.343-5.429-6.243-8.143-1.086-1.358-1.629-2.715-2.443-4.343-.543-1.357.814-2.715 2.443-2.443.814.271 1.357.543 1.9.814 1.357 1.086 2.714 1.9 3.8 2.986 8.686 7.329 17.643 14.657 26.329 21.986.271.271.814.543 2.171 1.357-1.086-1.9-1.629-3.257-2.171-4.343-1.358-2.714-2.986-5.7-4.343-8.414-.543-1.086-.815-2.172-1.086-3.529-.271-.814 0-1.9 1.086-2.171.543-.272 1.628 0 2.171.271.814.543 1.629 1.357 2.172 2.172 3.257 3.257 6.243 6.514 9.5 9.771 5.971 5.7 11.671 11.672 16.829 18.186.542.543 1.085 1.086 1.9 1.9.542-1.357-.272-1.9-.543-2.714-1.629-3.529-3.258-6.786-4.615-10.315-.543-1.085-.814-2.171-1.357-3.257-.271-1.086.272-1.9 1.086-2.171.814-.543 1.629 0 2.171.542 1.086 1.358 2.443 2.715 3.529 4.072 10.857 14.386 21.443 29.043 31.215 44.243.543.815 1.085 1.9 2.714 3.258-.543-1.629-.814-2.443-1.086-3.258-1.357-3.8-2.714-7.328-4.071-11.128-.543-1.9-1.357-3.8-1.629-5.7-.271-.815 0-1.9 0-2.715.272-.814 1.629-1.357 2.172-.543.814.815 1.357 1.629 1.9 2.443 8.957 17.101 17.914 34.472 26.871 51.572 2.172 4.072 4.343 8.415 6.515 12.486.271.543 1.086 1.086 2.171 2.443-.814-4.071-1.357-7.057-1.9-10.314-.814-4.072-1.9-8.143-2.171-12.486-.272-2.714-1.086-5.157-2.172-7.6-5.428-10.858-10.043-22.258-14.386-33.658-.542-1.357-.814-2.443-1.085-3.8-.272-1.086 0-2.443 1.085-3.257 1.086-.543 2.172-.543 3.258.543 1.357 1.357 2.443 2.714 3.8 3.8.814.814 1.357 1.628 3.257 2.171-.814-1.357-1.086-2.171-1.629-3.257-2.985-4.886-5.7-9.771-8.686-14.929-1.357-2.714-2.714-5.428-4.071-8.143-.543-1.085-.543-2.171-.814-3.528 0-.543.542-1.357.814-1.357.543-.272 1.629-.272 2.172 0 .814.814 1.628 1.628 2.442 2.714 2.172 2.714 4.343 5.429 6.515 8.143.271.271.814.543 1.9 1.357-.543-1.629-.815-2.171-1.086-2.986-1.086-2.442-2.171-4.885-3.257-7.6-3.8-8.957-6.786-18.457-8.686-27.957-.272-2.172-.271-4.072-.543-6.243 0-1.086.814-1.9 1.629-2.443 1.357-.543 2.443-.271 3.257.814.814 1.086 1.628 2.172 2.443 3.257 2.171 2.986 4.343 5.701 6.514 8.686.272.543 1.086.543 1.9 1.086.272-2.443-.543-4.614-1.086-6.514-1.9-10.315-4.071-20.358-5.971-30.672-.272-2.172-.271-4.072-.271-6.243 0-1.357 1.085-2.172 2.171-2.443s2.443.271 2.986 1.629c.543 1.085 1.086 2.442 1.357 3.8 1.357 4.071 2.714 8.414 4.343 12.486.543 1.085.814 2.714 1.9 3.257 1.086-.543.814-1.629 1.085-2.443.815-10.586 2.443-20.9 4.072-31.215 1.357-7.6 2.986-15.471 5.429-22.8.542-1.357 1.085-2.714 1.9-4.072.543-1.085 1.357-1.628 2.714-1.085 1.086.271 1.9 1.085 1.629 2.443 0 1.628-.272 2.985-.543 4.342-1.086 7.329-2.443 14.929-3.529 22.258 0 .543-.543 1.628.543 1.628.271 0 .271-.271.271-.271 1.086-2.443 2.172-4.614 3.258-7.057 8.143-19.543 19.543-37.458 31.757-54.558 1.086-1.357 2.172-2.714 3.257-3.8.543-.543 1.086-1.086 1.629-1.629.814-.543 1.9-.814 2.986-.271 1.085.543 1.357 1.628 1.085 2.714-.542 1.629-.814 3.529-1.628 5.157-5.157 11.129-10.586 22.258-16.015 33.387-3.8 7.871-7.871 15.743-11.671 23.343-.272.543-.543 1.357-.543 1.9 1.357-.815 2.443-2.172 3.257-3.257 3.257-4.343 6.514-8.686 10.043-12.758 2.443-2.714 4.886-5.428 7.329-7.871 1.085-1.086 2.443-1.9 3.528-2.715.815-.543 1.9-.543 2.986 0 .814.815 1.357 1.629 1.086 2.715-.272 1.628-.814 3.257-1.629 4.614-2.171 4.343-4.071 8.686-6.514 13.029-4.886 8.686-10.043 17.1-14.929 25.786-.814 1.357-1.357 2.443-2.171 3.8 1.085-.272 1.9-.814 2.714-1.629 2.986-2.714 5.7-5.157 8.686-7.871 1.086-.815 2.171-1.629 3.528-2.172 1.629-.814 3.529.543 3.258 2.443-.272 1.086-.543 2.443-1.086 3.257-3.8 6.786-7.872 13.029-12.758 19.272 2.443-.543 2.172-.271 2.172 0zm159.873 185.659c.272-.271.272 0 0 0 0-.542 0-.542-.271-.814-1.086-.271-1.9-.543-2.986-.543 0-.271 0-.271 0-.543-3.257-2.442-6.786-4.071-10.586-5.971 0 2.714 0 2.986.815 3.257 3.257 1.086 6.243 2.986 9.771 2.986.814 1.357 1.9.814 2.986.543.271.271.271.814.271 1.085zm-86.315-42.614c-4.614-1.358-8.957-3.258-13.572-4.886-.814-.272-1.9-.543-3.528-1.086.543 1.086.543 1.9 1.085 2.443 1.358 2.172 2.986 4.343 4.072 6.514 1.9 3.258.271 6.243-3.529 6.243-2.442 0-5.157-.542-7.6-1.357-2.171-.543-4.071-1.357-6.243-2.171-.814 1.085-.271 1.628 0 2.171.815 1.9 1.629 3.8 2.443 5.7 1.629 4.072.272 5.972-4.071 5.972-1.629 0-3.257-.272-4.886-.272-1.357 0-2.714 0-4.071 0-.543 0-.815.272-1.629.272-.543 2.714.814 5.157 1.629 7.871.814-.271 1.628-.543 2.171-.814 14.657-7.6 29.315-14.929 44.243-22.529 1.358-.814 3.258-1.086 3.8-2.714 1.086-.272 2.172-.272 2.986-.814 5.972-2.715 11.672-5.429 17.372-8.415.543-.271.814-.814 1.629-1.357-1.086-.271-1.629-.543-2.443-.814-14.386-3.257-27.958-8.686-41.801-13.572 0 0-.271.272-.543.272.815.814 1.357 1.628 2.172 2.171 3.257 2.714 6.243 5.429 9.5 8.143 2.986 2.443 5.971 4.886 8.957 7.329.814.542 1.629 1.357 2.443 2.171 1.357 1.357 1.357 2.986 0 4.343-3.8 1.357-7.329.271-10.586-.814zm-13.3 77.086c1.628.815 2.986 1.629 4.886 2.715-1.629-3.257-3.257-5.158-7.329-8.415-1.086 2.986 0 4.615 2.443 5.7zm-88.758 12.486c-1.086 0-1.629 0-1.9.272-1.358 1.357-2.172 2.985-2.715 5.157 1.9-1.357 2.986-2.986 4.615-5.429z"/></g></svg>