<svg fill="none" viewBox="0 0 1919 279" xmlns="http://www.w3.org/2000/svg" xmlns:xlink="http://www.w3.org/1999/xlink"><linearGradient id="a" gradientUnits="userSpaceOnUse" x1="974.674" x2="974.674" y1="689.177" y2=".069942"><stop offset=".4516" stop-color="#fff" stop-opacity="0"/><stop offset="1" stop-color="#fff" stop-opacity=".99"/></linearGradient><path d="m-43.1963 26.9987c41.25767-1.0857 96.9012-4.3429 137.0732-7.0572 75.4581-5.4287 149.2871-9.5002 220.6741 10.8572 66.501 19.0003 127.302 56.1865 198.688 62.9723 67.315 6.243 129.473-26.0575 194.888-28.7718 66.23-2.7143 123.502 27.4146 186.203 46.1438 75.729 22.8 157.16 50.214 237.23 41.529 81.43-8.686 146.85-69.2154 221.49-87.4014 138.16-33.929 303.46 30.4004 450.03 5.1572 71.39-12.2144 124.32-42.3434 190.28-70.300847v689.166047h-2036.5563z" fill="url(#a)" opacity=".7"/></svg>