<svg fill="none" viewBox="0 0 31 32" xmlns="http://www.w3.org/2000/svg"><path d="m29.7873 7.13704c-1.0479.46431-2.1735.77803-3.3569.91984 1.221-.73062 2.1345-1.88051 2.57-3.23514-1.1471.6814-2.4027 1.16103-3.712 1.41804-.8804-.94009-2.0466-1.5632-3.3175-1.77258s-2.5754.00667-3.7109.61462-2.0385 1.57379-2.5689 2.74755c-.5303 1.17376-.6583 2.48983-.3641 3.74373-2.3244-.1167-4.5984-.7209-6.67427-1.77328-2.07586-1.05242-3.90724-2.52956-5.37527-4.33557-.50196.86588-.79059 1.86981-.79059 2.93898-.00056.96251.23646 1.91027.69004 2.75917.45358.849 1.10969 1.5728 1.91012 2.1073-.92828-.0295-1.83609-.2803-2.64785-.7316v.0753c-.00009 1.35.46687 2.6584 1.32164 3.7032.85478 1.0449 2.04473 1.7618 3.36793 2.0292-.86113.2331-1.76397.2674-2.64031.1004.37333 1.1616 1.10054 2.1773 2.07983 2.905s2.16163 1.131 3.3815 1.1534c-2.0708 1.6256-4.62822 2.5074-7.26086 2.5035-.46635.0001-.9323-.0271-1.39545-.0816 2.67228 1.7182 5.78301 2.6301 8.96004 2.6265 10.7545 0 16.6337-8.9073 16.6337-16.6324 0-.251-.0063-.5045-.0176-.7555 1.1436-.827 2.1307-1.8511 2.9152-3.0243z" fill="#ffc175"/></svg>